<svg width="95" height="53" viewBox="0 0 95 53" fill="none" xmlns="http://www.w3.org/2000/svg">
<g opacity="0.4">
<path d="M47.0797 14.0625C32.5659 14.0625 20.8027 19.5905 20.8027 26.4167C20.8027 32.3283 29.6246 37.2721 41.4216 38.4901C41.5566 38.5041 41.6861 38.4305 41.7431 38.3077L46.7917 27.4322C46.9053 27.1877 47.254 27.1877 47.3676 27.4322L52.4162 38.3077C52.4732 38.4305 52.6027 38.504 52.7377 38.4901C64.5347 37.2721 73.3566 32.3284 73.3566 26.4167C73.3566 19.5905 61.5933 14.0625 47.0797 14.0625ZM58.3325 32.1425L47.3119 20.338C47.1865 20.2036 46.9729 20.2036 46.8475 20.338L35.8268 32.1425C29.5733 31.5407 25.4389 28.119 25.4389 25.0411C25.4389 21.0692 34.3305 16.6416 47.0798 16.6416C59.8376 16.6416 68.7206 21.0692 68.7206 25.0411C68.7206 28.119 64.586 31.5407 58.3325 32.1425Z" fill="#828282"/>
<path d="M58.2382 32.1632C58.2705 32.157 58.3021 32.1504 58.3324 32.1436L47.3118 20.3391C47.1864 20.2047 46.9728 20.2047 46.8474 20.3391L45.7578 21.5061L54.572 30.9472C55.5065 31.9483 56.8914 32.4243 58.2382 32.1632Z" fill="#828282"/>
<path d="M41.7967 32.4977L39.1482 38.203C39.8926 38.3137 40.6507 38.4098 41.4221 38.4896C41.557 38.5035 41.6864 38.43 41.7434 38.3073L47.0799 26.8115L46.792 27.4317C44.4736 28.7246 42.9123 30.0946 41.7967 32.4977Z" fill="#828282"/>
<path d="M47.0796 14.0625C46.6363 14.0625 46.1957 14.0678 45.7578 14.078C59.6573 14.4015 70.713 19.799 70.713 26.4167C70.713 31.9417 63.0065 36.6207 52.3678 38.2035L52.4161 38.3078C52.4731 38.4306 52.6026 38.5041 52.7376 38.4902C64.5346 37.2721 73.3565 32.3283 73.3565 26.4168C73.3565 19.5905 61.5933 14.0625 47.0796 14.0625Z" fill="#828282"/>
</g>
</svg>
