<svg width="95" height="53" viewBox="0 0 95 53" fill="none" xmlns="http://www.w3.org/2000/svg">
<path d="M69.142 30.2656C68.4477 32.4844 67.1446 34.5412 65.3657 36.322H37.2376C31.0547 36.322 33.0808 31.675 33.0808 31.675C36.5717 24.2665 44.8001 13.4297 47.7203 9.67773C51.0115 9.76344 54.1316 10.3633 56.9283 11.3822C50.3933 18.7242 44.6477 25.9995 42.2982 29.0277C41.8321 29.6276 42.2697 30.4846 43.0211 30.4846L69.142 30.2656Z" fill="#CDCDCD"/>
<path d="M49.8694 10.2107C51.8648 10.5944 52.6975 12.9946 51.3694 14.5313C46.0141 20.7276 41.5124 26.4344 39.5006 29.0274C39.0345 29.6272 39.472 30.4843 40.2235 30.4843L42.3903 30.4662C42.486 30.4653 42.5274 30.3453 42.4526 30.2858C42.0907 29.9979 41.9705 29.4496 42.2985 29.0274C44.636 26.0147 50.3347 18.7984 56.8281 11.4949C56.8761 11.4409 56.8548 11.355 56.7869 11.3307C54.0415 10.3482 50.9893 9.76785 47.7728 9.67875C47.7401 9.67783 47.7091 9.6922 47.6891 9.71796C47.6886 9.71858 47.6882 9.71919 47.6877 9.71981C47.6391 9.78222 47.6774 9.87337 47.7559 9.88271C48.4719 9.9678 49.1769 10.0774 49.8694 10.2107Z" fill="#CDCDCD"/>
<path d="M66.3157 30.3585C65.6371 32.4706 64.4067 34.4341 62.739 36.1496C62.6763 36.2141 62.7208 36.3218 62.8109 36.3218H65.3245C65.3519 36.3218 65.3783 36.3108 65.3976 36.2914C67.1252 34.5538 68.4004 32.5547 69.1008 30.3998C69.1222 30.3338 69.0718 30.266 69.0024 30.2666L66.411 30.2884C66.3673 30.2887 66.3291 30.3169 66.3157 30.3585Z" fill="#CDCDCD"/>
<path d="M47.0797 8.31445C32.5676 8.31445 20.8027 16.3565 20.8027 26.2772C20.8027 36.1979 32.5676 44.2399 47.0797 44.2399C61.5917 44.2399 73.3566 36.1979 73.3566 26.2772C73.3566 16.3565 61.5917 8.31445 47.0797 8.31445ZM68.2239 29.8972C67.5651 32.0042 66.3269 33.9579 64.6382 35.6485C60.6908 39.6267 54.2966 42.2133 47.0797 42.2133C35.0938 42.2133 25.3666 35.0789 25.3666 26.2804C25.3666 17.4744 35.0938 10.34 47.0797 10.34C47.3503 10.34 47.6126 10.34 47.8833 10.3485C51.009 10.4298 53.9708 10.9993 56.6271 11.9673C63.8345 14.5539 68.7927 19.9882 68.7927 26.2804C68.7927 27.5282 68.594 28.7402 68.2239 29.8972Z" fill="#CDCDCD"/>
<path d="M45.7967 10.3702C45.6114 10.3619 45.4257 10.355 45.2393 10.3502C44.9686 10.3418 44.7064 10.3418 44.4357 10.3418C32.4498 10.3418 22.7227 17.4762 22.7227 26.2821C22.7227 35.0807 32.4498 42.2151 44.4357 42.2151C44.8836 42.2151 45.3283 42.205 45.7696 42.1853C34.393 41.688 25.3662 34.7578 25.3662 26.2821C25.3662 17.7925 34.4073 10.8577 45.7967 10.3702Z" fill="#CDCDCD"/>
<path d="M47.0796 8.31445C46.6362 8.31445 46.1957 8.32225 45.7578 8.33703C59.6557 8.80776 70.7129 16.6595 70.7129 26.2772C70.7129 35.8949 59.6557 43.7466 45.7578 44.2174C46.1957 44.2322 46.6363 44.2399 47.0796 44.2399C61.5916 44.2399 73.3565 36.1979 73.3565 26.2772C73.3565 16.3565 61.5916 8.31445 47.0796 8.31445Z" fill="#CDCDCD"/>
</svg>
