<svg width="95" height="53" viewBox="0 0 95 53" fill="none" xmlns="http://www.w3.org/2000/svg">
<g opacity="0.4">
<path d="M47.0797 12.2148C32.5676 12.2148 20.8027 18.5111 20.8027 26.2776C20.8027 34.0441 32.5676 40.3394 47.0797 40.3394C61.5917 40.3394 73.3566 34.0442 73.3566 26.2776C73.3566 18.511 61.5917 12.2148 47.0797 12.2148ZM64.1623 33.4273C60.5914 35.3392 56.0445 36.5697 51.0778 36.9995C50.3005 37.0671 49.5127 37.1147 48.7176 37.1411C48.1751 37.1612 47.6294 37.1706 47.0797 37.1706C41.7862 37.1706 36.7835 36.2908 32.6733 34.6621C32.0293 34.4076 31.4065 34.134 30.8091 33.8425C30.5331 33.7073 30.2624 33.569 29.997 33.4274C26.1702 31.3793 23.975 28.7736 23.975 26.2777C23.975 23.7818 26.1702 21.175 29.997 19.127C33.4051 17.3039 37.7014 16.0988 42.4037 15.6192C43.1693 15.54 43.9454 15.4819 44.73 15.4428C45.5051 15.4037 46.2897 15.3837 47.0797 15.3837C52.2346 15.3837 57.1135 16.2192 61.1613 17.7655C61.7862 18.0043 62.3901 18.2599 62.9727 18.5324C63.3798 18.7225 63.7774 18.9211 64.1623 19.127C67.9891 21.1751 70.1844 23.7818 70.1844 26.2777C70.1844 28.7735 67.9891 31.3792 64.1623 33.4273Z" fill="#828282"/>
<path d="M47.0798 12.2148C46.5471 12.2148 46.0186 12.2244 45.4937 12.2411C59.267 12.6801 70.1844 18.7962 70.1844 26.2777C70.1844 33.7593 59.267 39.8742 45.4937 40.3132C46.0186 40.3298 46.5471 40.3394 47.0798 40.3394C61.5919 40.3394 73.3567 34.0442 73.3567 26.2776C73.3567 18.511 61.5919 12.2148 47.0798 12.2148Z" fill="#828282"/>
<path d="M62.9727 18.5329C59.6523 24.2746 53.6293 33.2411 51.0777 37.0002C50.3005 37.0677 49.5127 37.1154 48.7175 37.1418C49.85 33.9075 51.6191 26.9247 45.7801 26.9247C40.1028 26.9247 34.9288 32.0623 32.6733 34.6628C32.0293 34.4082 31.4065 34.1347 30.8091 33.8432C35.3941 25.1134 40.2329 18.4517 42.4037 15.6198C43.1693 15.5406 43.9454 15.4825 44.73 15.4434C43.4209 18.7684 42.2768 24.0158 48.0926 24.0158C53.8831 24.0158 58.6827 20.2049 61.1613 17.766C61.7863 18.0047 62.39 18.2603 62.9727 18.5329Z" fill="#828282"/>
<path d="M61.1615 17.7666C60.7227 18.1983 60.2099 18.6734 59.6331 19.1624C56.7249 24.1075 52.1101 31.0628 49.3106 35.2178C49.1217 35.9326 48.9105 36.5918 48.7178 37.1422C49.513 37.1158 50.3008 37.0683 51.078 37.0007C53.6295 33.2415 59.6526 24.2751 62.9729 18.5334C62.3903 18.2608 61.7865 18.0052 61.1615 17.7666Z" fill="#828282"/>
</g>
</svg>
