<svg width="95" height="53" viewBox="0 0 95 53" fill="none" xmlns="http://www.w3.org/2000/svg">
<g opacity="0.4">
<path d="M47.0795 8.72461C32.5665 8.72461 20.8026 16.5829 20.8026 26.2768C20.8026 35.9706 32.5665 43.8289 47.0795 43.8289C61.5916 43.8289 73.3565 35.9706 73.3565 26.2768C73.3565 16.5829 61.5916 8.72461 47.0795 8.72461ZM60.2687 15.5975C61.0427 16.1695 61.0406 17.3104 60.2645 17.8814C59.206 18.6585 57.3407 19.5816 54.7606 20.2541C54.7109 20.0744 54.6591 19.8957 54.6041 19.7202C53.4419 15.9465 51.2891 13.1624 48.7185 12.3208C54.5164 12.5967 58.5113 14.2969 60.2687 15.5975ZM42.5623 24.7637C44.013 24.9286 45.5284 25.0164 47.0795 25.0164C48.6307 25.0164 50.145 24.9286 51.5958 24.7637C51.6275 25.2173 51.6444 25.6846 51.6444 26.1637C51.6444 32.3185 48.8962 36.4021 47.0795 36.4021C45.2618 36.4021 42.5136 32.3186 42.5136 26.1637C42.5136 25.6846 42.5305 25.2173 42.5623 24.7637ZM50.9222 20.9646C49.7326 21.1042 48.4499 21.1835 47.0795 21.1835C46.629 21.1835 46.1882 21.175 45.7578 21.1581C45.7536 21.1581 45.7504 21.1581 45.7472 21.1571C44.8685 21.1243 44.032 21.0577 43.2358 20.9646C44.1748 17.8158 45.8424 15.9242 47.0795 15.9242C48.3157 15.9242 49.9832 17.8158 50.9222 20.9646ZM33.8934 15.5847C35.2501 14.5887 37.9338 13.3516 41.747 12.7119C41.8114 12.7014 41.878 12.6898 41.9447 12.6792C43.0232 12.5058 44.1896 12.38 45.4405 12.3208C42.7494 13.2015 40.5172 16.2097 39.3984 20.2531C36.814 19.5785 34.9466 18.6512 33.8892 17.8688C33.1152 17.2956 33.1174 16.1547 33.8934 15.5847ZM48.6709 40.4602C48.5821 40.4654 48.4933 40.4686 48.4045 40.4718H48.4013C47.9635 40.4897 47.5225 40.4982 47.0795 40.4982C34.9457 40.4982 24.695 33.986 24.695 26.2768C24.695 23.3003 26.2219 20.5035 28.7956 18.1912C29.7103 20.7458 33.5371 22.9472 38.71 24.1177C38.6508 24.7859 38.6212 25.469 38.6212 26.1637C38.6212 33.9554 42.4079 40.272 47.0795 40.272C51.7502 40.272 55.5368 33.9554 55.5368 26.1637C55.5368 25.469 55.5072 24.7859 55.448 24.1177C60.6209 22.9472 64.4478 20.7458 65.3624 18.1912C67.9351 20.5037 69.4631 23.3003 69.4631 26.2768C69.4631 33.6465 60.0953 39.922 48.6709 40.4602ZM54.6042 19.7201C54.6518 19.8998 54.7035 20.0785 54.7607 20.254C54.7109 20.0743 54.6591 19.8956 54.6042 19.7201Z" fill="#828282"/>
<path d="M33.8893 17.8673C34.9468 18.6498 36.8142 19.5771 39.3985 20.2516C34.9193 20.0719 32.5224 18.7681 31.7646 18.0456C31.0068 17.3231 31.2705 16.1533 32.0466 15.5834C33.8061 14.2913 35.8974 13.5078 41.9448 12.6777C41.8781 12.6883 41.8115 12.6999 41.7471 12.7105C37.934 13.3502 35.2503 14.5873 33.8935 15.5833C33.1174 16.1534 33.1153 17.2943 33.8893 17.8673Z" fill="#828282"/>
<path d="M47.0804 8.72461C46.6371 8.72461 46.1965 8.7322 45.7585 8.74668C59.6565 9.20663 70.7137 16.879 70.7137 26.2768C70.7137 35.6746 59.6565 43.3469 45.7585 43.8069C46.1965 43.8213 46.6371 43.8289 47.0804 43.8289C61.5924 43.8289 73.3573 35.9706 73.3573 26.2768C73.3573 16.5829 61.5924 8.72461 47.0804 8.72461Z" fill="#828282"/>
<path d="M55.4483 24.1172C55.5075 24.7854 55.5371 25.4685 55.5371 26.1632C55.5371 33.9549 51.7504 40.2715 47.0798 40.2715C46.6304 40.2715 46.1884 40.2123 45.7581 40.0992C49.8006 39.0407 52.7983 35.3178 52.7983 28.2768C52.7983 28.2695 52.8935 26.1494 52.8935 26.1421C52.8925 24.9768 54.2988 24.3149 55.4483 24.1172Z" fill="#828282"/>
<path d="M54.7615 20.2535C54.6847 20.2831 54.5984 20.3073 54.505 20.3268C53.2983 20.5793 52.0765 19.9094 51.612 18.7676C50.2748 15.4813 47.7904 13.0892 45.4414 12.3201C46.6311 12.0283 47.6409 12.1456 48.7195 12.3201C51.2901 13.1618 53.443 15.9458 54.6051 19.7195C54.6526 19.8993 54.7045 20.078 54.7615 20.2535Z" fill="#828282"/>
</g>
</svg>
