<svg width="95" height="53" viewBox="0 0 95 53" fill="none" xmlns="http://www.w3.org/2000/svg">
<g opacity="0.4">
<path d="M47.0795 3.49023C34.4937 3.49023 24.2925 13.6925 24.2925 26.2773C24.2925 38.8621 34.4937 49.0643 47.0795 49.0643C59.6643 49.0643 69.8665 38.8621 69.8665 26.2773C69.8665 13.6925 59.6643 3.49023 47.0795 3.49023ZM47.0795 44.8249C36.8518 44.8249 28.5319 36.5049 28.5319 26.2773C28.5319 16.0496 36.8518 7.72965 47.0795 7.72965C57.3062 7.72965 65.6271 16.0496 65.6271 26.2773C65.6271 36.5049 57.3062 44.8249 47.0795 44.8249Z" fill="#828282"/>
<path d="M47.0795 3.49023C34.4937 3.49023 24.2925 13.6925 24.2925 26.2773C24.2925 38.8621 34.4937 49.0643 47.0795 49.0643C59.6643 49.0643 69.8665 38.8621 69.8665 26.2773C69.8665 13.6925 59.6643 3.49023 47.0795 3.49023ZM47.0795 44.8249C36.8518 44.8249 28.5319 36.5049 28.5319 26.2773C28.5319 16.0496 36.8518 7.72965 47.0795 7.72965C57.3062 7.72965 65.6271 16.0496 65.6271 26.2773C65.6271 36.5049 57.3062 44.8249 47.0795 44.8249Z" fill="#828282"/>
<path d="M47.0797 3.49023C46.6349 3.49023 46.1934 3.5044 45.7549 3.52955C57.7229 4.21583 67.2171 14.1373 67.2171 26.2773C67.2171 38.4172 57.7229 48.3387 45.7549 49.025C46.1934 49.0501 46.6349 49.0643 47.0797 49.0643C59.6645 49.0643 69.8667 38.8621 69.8667 26.2773C69.8667 13.6925 59.6645 3.49023 47.0797 3.49023Z" fill="#828282"/>
<path d="M73.3455 27.8702L72.7553 30.4076C72.7101 30.5985 72.5387 30.734 72.3406 30.734H36.633C36.4595 30.734 36.3148 30.6149 36.2758 30.4528C36.2686 30.425 36.2655 30.3963 36.2655 30.3665C36.2655 30.2659 36.3066 30.1736 36.3733 30.1079C36.3836 30.0966 36.3959 30.0863 36.4082 30.0771L41.5301 25.7376C41.6744 25.6152 41.5905 25.3793 41.4013 25.3757L21.2202 24.9859C20.9245 24.9808 20.7244 24.6852 20.8322 24.4121L21.9212 21.6592C21.9849 21.4991 22.1398 21.3934 22.3133 21.3913L51.4517 21.0752L56.9656 21.0156C57.1257 21.0156 57.2612 21.1172 57.3115 21.2589C57.3259 21.2969 57.3331 21.339 57.3331 21.3821C57.3331 21.4786 57.2961 21.5658 57.2356 21.6305L57.1996 21.6654C57.1986 21.6664 57.1976 21.6674 57.1965 21.6674L52.0396 26.576C51.9068 26.7023 51.9936 26.9262 52.1769 26.9299L72.94 27.3549C73.2089 27.3611 73.406 27.6105 73.3455 27.8702Z" fill="#828282"/>
<path d="M57.3109 21.2589L56.6406 21.5525L36.9372 30.1643L36.2752 30.4528C36.268 30.425 36.2649 30.3963 36.2649 30.3665C36.2649 30.2659 36.306 30.1736 36.3727 30.1079C36.3829 30.0966 36.3953 30.0863 36.4076 30.0771L41.5295 25.7373C41.6014 25.6767 41.6168 25.5874 41.5901 25.5125L51.451 21.0752L56.9649 21.0156C57.1251 21.0156 57.2606 21.1172 57.3109 21.2589Z" fill="#828282"/>
<path d="M57.3336 21.3878C57.3336 21.4843 57.2967 21.5716 57.2361 21.6362L57.2002 21.6711C57.1992 21.6721 57.1981 21.6732 57.1971 21.6732L52.0403 26.5816C51.9746 26.6442 51.9623 26.7305 51.9889 26.8023L45.7606 30.7397H36.6336C36.4601 30.7397 36.3154 30.6207 36.2764 30.4585L36.9384 30.1701L56.6418 21.5582L57.3121 21.2646C57.3264 21.3026 57.3336 21.3447 57.3336 21.3878Z" fill="#828282"/>
</g>
</svg>
