<svg width="95" height="53" viewBox="0 0 95 53" fill="none" xmlns="http://www.w3.org/2000/svg">
<g opacity="0.4">
<path d="M64.1187 17.0391C59.017 17.0391 54.8802 21.175 54.8802 26.277C54.8802 31.3791 59.017 35.515 64.1187 35.515C69.2205 35.515 73.3562 31.3791 73.3562 26.277C73.3562 21.175 69.2205 17.0391 64.1187 17.0391ZM64.1187 32.9245C60.4539 32.9245 57.4727 29.9421 57.4727 26.277C57.4727 22.6119 60.4539 19.6306 64.1187 19.6306C67.7836 19.6306 70.7648 22.6119 70.7648 26.277C70.7648 29.9421 67.7837 32.9245 64.1187 32.9245Z" fill="#828282"/>
<path d="M64.1176 17.0391C63.6777 17.0391 63.2453 17.0705 62.8219 17.13C67.3102 17.7601 71.5768 21.6149 71.5768 26.277C71.5768 30.9391 67.3101 34.794 62.8219 35.4241C63.2453 35.4835 63.6777 35.515 64.1176 35.515C69.2193 35.515 73.3561 31.3791 73.3561 26.277C73.3561 21.175 69.2193 17.0391 64.1176 17.0391Z" fill="#828282"/>
<path d="M52.8269 17.0391C47.7252 17.0391 43.5895 21.175 43.5895 26.277C43.5895 31.3791 47.7251 35.515 52.8269 35.515C57.9286 35.515 62.0653 31.3791 62.0653 26.277C62.0653 21.175 57.9285 17.0391 52.8269 17.0391ZM52.8269 32.9245C49.162 32.9245 46.1809 29.9421 46.1809 26.277C46.1809 22.6119 49.162 19.6306 52.8269 19.6306C56.4917 19.6306 59.4739 22.6119 59.4739 26.277C59.4739 29.9421 56.4917 32.9245 52.8269 32.9245Z" fill="#828282"/>
<path d="M52.8272 17.0391C52.3873 17.0391 51.9549 17.0705 51.5315 17.13C56.0197 17.7601 60.2863 21.6149 60.2863 26.277C60.2863 30.9391 56.0197 34.794 51.5315 35.4241C51.9549 35.4835 52.3873 35.515 52.8272 35.515C57.9288 35.515 62.0656 31.3791 62.0656 26.277C62.0656 21.175 57.9288 17.0391 52.8272 17.0391Z" fill="#828282"/>
<path d="M41.3318 17.0391C36.23 17.0391 32.0933 21.175 32.0933 26.277C32.0933 31.3791 36.23 35.515 41.3318 35.515C46.4335 35.515 50.5692 31.3791 50.5692 26.277C50.5692 21.175 46.4335 17.0391 41.3318 17.0391ZM41.3318 32.9245C37.6669 32.9245 34.6857 29.9421 34.6857 26.277C34.6857 22.6119 37.6669 19.6306 41.3318 19.6306C44.9966 19.6306 47.9778 22.6119 47.9778 26.277C47.9778 29.9421 44.9967 32.9245 41.3318 32.9245Z" fill="#828282"/>
<path d="M41.3306 17.0391C40.8908 17.0391 40.4583 17.0705 40.0349 17.13C44.5232 17.7601 48.7899 21.6149 48.7899 26.277C48.7899 30.9391 44.5231 34.794 40.0349 35.4241C40.4583 35.4835 40.8908 35.515 41.3306 35.515C46.4323 35.515 50.5691 31.3791 50.5691 26.277C50.5691 21.175 46.4323 17.0391 41.3306 17.0391Z" fill="#828282"/>
<path d="M30.0398 17.0391C24.9381 17.0391 20.8024 21.175 20.8024 26.277C20.8024 31.3791 24.9381 35.515 30.0398 35.515C35.1416 35.515 39.2783 31.3791 39.2783 26.277C39.2783 21.175 35.1416 17.0391 30.0398 17.0391ZM30.0398 32.9245C26.375 32.9245 23.3938 29.9421 23.3938 26.277C23.3938 22.6119 26.375 19.6306 30.0398 19.6306C33.7046 19.6306 36.687 22.6119 36.687 26.277C36.6869 29.9421 33.7046 32.9245 30.0398 32.9245Z" fill="#828282"/>
<path d="M30.0397 17.0391C29.5999 17.0391 29.1674 17.0705 28.744 17.13C33.2323 17.7601 37.499 21.6149 37.499 26.277C37.499 30.9391 33.2322 34.794 28.744 35.4241C29.1674 35.4836 29.5999 35.515 30.0397 35.515C35.1414 35.515 39.2782 31.3791 39.2782 26.277C39.2782 21.175 35.1414 17.0391 30.0397 17.0391Z" fill="#828282"/>
</g>
</svg>
