<svg width="95" height="53" viewBox="0 0 95 53" fill="none" xmlns="http://www.w3.org/2000/svg">
<g opacity="0.4" clip-path="url(#clip0_24_1072)">
<path d="M68.581 26.0727L53.7817 0.206315C53.709 0.079036 53.5728 0 53.4262 0H40.7345C40.588 0 40.4517 0.079036 40.3789 0.206315L25.5795 26.0727C25.5068 26.1989 25.5068 26.3549 25.5795 26.4812L40.3789 52.3475C40.3881 52.3629 40.3974 52.3783 40.4075 52.3917C40.4075 52.3927 40.4086 52.3927 40.4086 52.3927C40.4413 52.4358 40.4824 52.4707 40.5274 52.4974C40.5756 52.5261 40.6288 52.5436 40.6852 52.5497C40.7016 52.5528 40.7179 52.5538 40.7343 52.5538H53.4262C53.5727 52.5538 53.709 52.4748 53.7817 52.3475L68.581 26.4812C68.6538 26.3549 68.6538 26.1989 68.581 26.0727ZM39.6679 26.4709C39.6033 26.3498 39.6033 26.204 39.6679 26.0829L47.0803 12.2691L54.4928 26.0829C54.5573 26.204 54.5573 26.3498 54.4928 26.4709L47.0803 40.2848L39.6679 26.4709Z" fill="#828282"/>
<path d="M53.426 0H51.0272L66.0614 26.2769L51.0272 52.5538H53.426C53.5729 52.5538 53.7085 52.4751 53.7816 52.3474L68.5808 26.4811C68.6532 26.3546 68.6532 26.1992 68.5808 26.0728L53.7816 0.206418C53.7085 0.0787281 53.5729 0 53.426 0Z" fill="#828282"/>
<path d="M53.4187 0.453687L52.387 2.37724L48.3974 9.81279L47.0788 12.2691L39.6664 26.0829C39.6008 26.204 39.6008 26.3498 39.6664 26.4709L47.0788 40.2848L45.7603 42.7411L41.6355 50.4291V50.4301L40.7534 52.0735L40.5259 52.4974L40.5136 52.5189C40.4809 52.4994 40.4532 52.4728 40.4316 52.442C40.4275 52.4348 40.4234 52.4286 40.4193 52.4214L40.3773 52.3475L25.578 26.4812C25.5052 26.3549 25.5052 26.1989 25.578 26.0727L40.3773 0.206315C40.4501 0.079036 40.5863 0 40.7329 0H53.1481C53.3807 0 53.5293 0.248399 53.4187 0.453687Z" fill="#828282"/>
<path d="M53.4187 0.453687L52.387 2.37724L48.3974 9.81279L47.0788 12.2691L39.6664 26.0829C39.6008 26.204 39.6008 26.3498 39.6664 26.4709L47.0788 40.2848L45.7603 42.7411L41.6355 50.4291V50.4301L40.7534 52.0735L40.5259 52.4974L40.5136 52.5189C40.4809 52.4994 40.4532 52.4728 40.4316 52.442C40.4275 52.4348 40.4234 52.4286 40.4193 52.4214L40.3773 52.3475L25.578 26.4812C25.5052 26.3549 25.5052 26.1989 25.578 26.0727L40.3773 0.206315C40.4501 0.079036 40.5863 0 40.7329 0H53.1481C53.3807 0 53.5293 0.248399 53.4187 0.453687Z" fill="#828282"/>
<path d="M51.0265 0L37.0309 26.0825C36.9658 26.2039 36.9658 26.3499 37.0309 26.4713L45.7613 42.7414L47.0794 40.2846L39.6672 26.4713C39.602 26.3499 39.602 26.2039 39.6672 26.0825L53.4192 0.45379C53.5294 0.248604 53.3811 0 53.1486 0H51.0265Z" fill="#828282"/>
<path d="M57.1289 26.4706L43.1329 52.5535H40.6432C40.5971 52.5535 40.5531 52.5402 40.5151 52.5186L40.5275 52.4971L40.7549 52.0731L41.637 50.4298V50.4288L45.7618 42.7407L47.0804 40.2845L54.4928 26.4706C54.5574 26.3495 54.5574 26.2037 54.4928 26.0826L47.0804 12.2688L48.3989 9.8125L57.1289 26.0826C57.1945 26.2037 57.1945 26.3495 57.1289 26.4706Z" fill="#828282"/>
</g>
<defs>
<clipPath id="clip0_24_1072">
<rect width="94.159" height="52.5538" fill="white"/>
</clipPath>
</defs>
</svg>
