<svg width="95" height="53" viewBox="0 0 95 53" fill="none" xmlns="http://www.w3.org/2000/svg">
<g opacity="0.4">
<path d="M54.1631 4.00293H39.9957C29.3951 4.00293 20.8025 12.581 20.8025 23.1636V29.3897C20.8025 39.9724 29.3951 48.5505 39.9957 48.5505H54.1631C64.7637 48.5505 73.3563 39.9724 73.3563 29.3898V23.1637C73.3563 12.581 64.7637 4.00293 54.1631 4.00293ZM67.7657 31.7353C67.7657 39.224 61.6845 45.295 54.1831 45.295H39.9756C32.4743 45.295 26.393 39.2241 26.393 31.7353V20.8181C26.393 13.3295 32.4743 7.2585 39.9756 7.2585H54.1831C61.6845 7.2585 67.7657 13.3294 67.7657 20.8181V31.7353Z" fill="#828282"/>
<path d="M39.9744 7.25781H37.3308C29.8294 7.25781 23.7482 13.3287 23.7482 20.8174V31.7347C23.7482 39.2233 29.8294 45.2943 37.3308 45.2943H39.9744C32.473 45.2943 26.3918 39.2234 26.3918 31.7347V20.8174C26.3919 13.3287 32.473 7.25781 39.9744 7.25781Z" fill="#828282"/>
<path d="M54.1644 4.00293H51.5208C62.1214 4.00293 70.714 12.581 70.714 23.1636V29.3897C70.714 39.9724 62.1214 48.5505 51.5208 48.5505H54.1644C64.7649 48.5505 73.3576 39.9724 73.3576 29.3898V23.1637C73.3576 12.581 64.7649 4.00293 54.1644 4.00293Z" fill="#828282"/>
<path d="M69.0109 17.359C68.9623 19.0311 68.5891 20.756 67.4999 21.8571C67.0632 22.2994 66.4552 22.6731 65.7181 23.0045C62.549 24.4338 56.9997 25.1031 52.4771 27.3125C49.9305 28.5651 48.2113 32.6816 47.4794 34.7742C47.347 35.1527 46.8132 35.1527 46.6808 34.7742C45.9488 32.6816 44.2296 28.5651 41.683 27.3125C36.1094 24.5901 28.976 24.2058 26.6602 21.857C25.5711 20.7559 25.1979 19.0311 25.1492 17.3589C25.0971 15.6431 25.3755 13.9732 25.5674 13.0488C25.634 12.7279 26.0231 12.602 26.2659 12.8221C27.2645 13.727 29.7409 15.7003 34.2059 17.7009C39.8923 20.2636 45.5872 23.3285 46.8816 28.5231C46.9333 28.7305 47.2268 28.7305 47.2785 28.5231C48.5729 23.3286 54.2677 20.2636 59.9541 17.7009C62.0626 16.7562 63.727 15.8177 65.0023 14.9943C66.4295 14.0743 67.3689 13.2985 67.8957 12.8209C68.138 12.6013 68.5262 12.7278 68.5926 13.0479C68.7844 13.9722 69.063 15.6427 69.0109 17.359Z" fill="#828282"/>
<path d="M69.0112 17.3621C68.9626 19.0342 68.5894 20.7591 67.5002 21.8602C67.0635 22.3024 66.4555 22.6762 65.7184 23.0076C66.374 19.9315 65.8485 17.9617 65.6169 16.9208C65.4932 16.3698 65.2457 15.6445 65.0026 14.9975C66.4289 14.0781 67.368 13.3027 67.895 12.825C68.1375 12.6051 68.5266 12.7316 68.593 13.0518C68.7848 13.9763 69.0633 15.6462 69.0112 17.3621Z" fill="#828282"/>
<path d="M69.0096 17.359C68.0696 17.9543 67.0534 18.5149 65.9864 19.0416C62.977 20.5301 59.5657 21.7472 56.3416 22.6994C50.1854 24.5188 47.8903 29.0157 47.269 30.5564C47.1997 30.7282 46.9576 30.7282 46.8883 30.5564C46.267 29.0157 43.9719 24.5187 37.8157 22.6994C33.4496 21.4105 28.7388 19.6338 25.1477 17.3589C25.0956 15.6431 25.3741 13.9732 25.5659 13.0488C25.6325 12.7279 26.0217 12.602 26.2644 12.8221C27.263 13.727 29.7394 15.7003 34.2045 17.7009C39.8908 20.2636 45.5858 23.3285 46.8801 28.5231C46.9318 28.7306 47.2253 28.7306 47.277 28.5231C48.5715 23.3286 54.2663 20.2636 59.9527 17.7009C62.0612 16.7562 63.7256 15.8177 65.0008 14.9943C66.4281 14.0743 67.3675 13.2985 67.8942 12.8209C68.1365 12.6013 68.5247 12.7278 68.5911 13.0479C68.783 13.9722 69.0616 15.6427 69.0096 17.359Z" fill="#828282"/>
<path d="M69.0112 17.3621C68.0712 17.9574 67.055 18.518 65.9881 19.0447C65.9024 18.1158 65.7269 17.4138 65.6169 16.9208C65.4932 16.3698 65.2457 15.6445 65.0026 14.9975C66.4289 14.0781 67.368 13.3027 67.895 12.825C68.1375 12.6051 68.5266 12.7316 68.593 13.0518C68.7848 13.9763 69.0633 15.6462 69.0112 17.3621Z" fill="#828282"/>
</g>
</svg>
