<svg width="95" height="53" viewBox="0 0 95 53" fill="none" xmlns="http://www.w3.org/2000/svg">
<g opacity="0.4">
<path d="M63.6532 6.87695L60.5118 45.6778H54.8108C54.8108 45.6778 54.7393 41.9203 52.9953 39.0761C52.7098 38.6021 52.3424 38.2206 51.8937 37.9663C50.6291 37.2264 48.5791 36.9893 47.0798 36.9893C45.5806 36.9893 43.5306 37.2263 42.2659 37.9663C41.8173 38.2206 41.45 38.6022 41.1643 39.0761C39.4203 41.9203 39.3489 45.6778 39.3489 45.6778H33.6479L30.5066 6.87695H34.6679C36.5036 17.5252 37.9213 23.1557 40.3894 27.7804C40.9197 28.7747 41.8072 29.4683 42.8168 29.6534C44.1935 29.8962 45.5211 29.9338 47.0799 29.9338C48.6387 29.9338 49.9663 29.8962 51.3431 29.6534C52.3528 29.4683 53.2401 28.7747 53.7705 27.7804C56.2386 23.1557 57.6562 17.5252 59.492 6.87695C59.492 6.87695 63.6532 6.87695 63.6532 6.87695Z" fill="#828282"/>
<path d="M44.5801 36.9814C43.0809 36.9814 41.0308 37.2184 39.7662 37.9584C39.3175 38.2128 38.9502 38.5944 38.6646 39.0683C36.9206 41.9125 36.8491 45.67 36.8491 45.67H39.3491C39.3491 45.67 39.4206 41.9125 41.1646 39.0683C41.4501 38.5943 41.8175 38.2128 42.2662 37.9584C43.2039 37.4098 44.5734 37.138 45.8301 37.034C45.3921 36.9978 44.9676 36.9814 44.5801 36.9814Z" fill="#828282"/>
<path d="M40.315 29.6534C41.6917 29.8962 43.0193 29.9338 44.5782 29.9338C45.011 29.9338 45.4249 29.9302 45.8282 29.9208C44.7795 29.8964 43.8095 29.8287 42.815 29.6534C41.8053 29.4683 40.918 28.7747 40.3876 27.7803C37.9195 23.1557 36.5019 17.5252 34.6661 6.87695H32.166C34.0017 17.5252 35.4194 23.1557 37.8875 27.7803C38.4179 28.7747 39.3053 29.4683 40.315 29.6534Z" fill="#828282"/>
<path d="M61.1523 6.87695L58.011 45.6778H60.5109L63.6523 6.87695H61.1523Z" fill="#828282"/>
<path d="M59.7203 3.0791H34.6431C20.8295 3.0791 20.6393 7.40463 20.8369 12.6675L21.8974 40.876C22.0771 45.6528 25.6928 49.4743 29.9752 49.4743H64.1834C68.4657 49.4743 72.0815 45.6528 72.2612 40.876L73.3217 12.6675C73.5192 7.40463 73.3291 3.0791 59.7203 3.0791ZM69.2453 12.4841L68.1847 40.6926C68.0961 43.0726 66.3003 45.0096 64.1834 45.0096H29.9752C27.8583 45.0096 26.0625 43.0725 25.9738 40.6926L24.9132 12.4841C24.8593 11.0573 25.2893 9.74769 26.1216 8.79762C26.6234 8.22609 27.4906 7.54484 28.7751 7.54484H65.3833C66.6678 7.54484 67.535 8.22609 68.0367 8.79762C68.8692 9.74769 69.2991 11.0573 69.2453 12.4841Z" fill="#828282"/>
<path d="M28.7745 7.54395H26.3801C25.0956 7.54395 24.2283 8.22519 23.7266 8.79672C22.8943 9.74679 22.4643 11.0564 22.5182 12.4832L23.5787 40.6917C23.6674 43.0717 25.4632 45.0087 27.5801 45.0087H29.9745C27.8575 45.0087 26.0618 43.0716 25.9731 40.6917L24.9125 12.4832C24.8586 11.0564 25.2886 9.74679 26.1209 8.79672C26.6227 8.22519 27.49 7.54395 28.7745 7.54395Z" fill="#828282"/>
<path d="M59.7206 3.0791H57.3262C70.9348 3.0791 71.125 7.40463 70.9274 12.6675L69.8669 40.876C69.6874 45.6528 66.0716 49.4743 61.7892 49.4743H64.1836C68.4659 49.4743 72.0818 45.6528 72.2614 40.876L73.3219 12.6675C73.5194 7.40463 73.3293 3.0791 59.7206 3.0791Z" fill="#828282"/>
</g>
</svg>
