<svg width="95" height="53" viewBox="0 0 95 53" fill="none" xmlns="http://www.w3.org/2000/svg">
<g opacity="0.4" clip-path="url(#clip0_24_1015)">
<path d="M47.0797 0C32.5729 0 20.8027 11.763 20.8027 26.2728C20.8027 40.7908 32.5729 52.5538 47.0797 52.5538C61.5864 52.5538 73.3566 40.7908 73.3566 26.2728C73.3566 11.763 61.5864 0 47.0797 0ZM47.0797 48.8545C34.631 48.8545 24.5041 38.7256 24.5041 26.2759C24.5041 13.8252 34.631 3.69622 47.0797 3.69622C59.5273 3.69622 69.6552 13.8252 69.6552 26.2759C69.6552 38.7256 59.5273 48.8545 47.0797 48.8545Z" fill="#828282"/>
<path d="M47.0811 0C46.4588 0 45.842 0.0231976 45.2305 0.0657949C58.8743 1.01587 69.6567 12.3855 69.6567 26.2728C69.6567 40.1681 58.8742 51.538 45.2305 52.488C45.842 52.5306 46.4588 52.5538 47.0811 52.5538C61.5879 52.5538 73.3581 40.7908 73.3581 26.2728C73.3581 11.763 61.5879 0 47.0811 0Z" fill="#828282"/>
<path d="M66.9328 37.4233C66.9317 37.4253 66.9307 37.4275 66.9296 37.4295L66.9285 37.4316C66.9213 37.4441 66.9087 37.4525 66.8941 37.4578H66.893L66.663 37.3699L47.2973 30.0364C47.1568 29.9832 47.0017 29.9832 46.8612 30.0364L27.4985 37.3679L27.2642 37.4567C27.2507 37.4515 27.2392 37.4432 27.2318 37.4316L27.2308 37.4295C27.2287 37.4275 27.2276 37.4253 27.2276 37.4223C27.2193 37.4066 27.2182 37.3888 27.2234 37.3689L27.3929 37.2151L42.4587 23.6137C42.5536 23.528 42.6195 23.4148 42.6472 23.2899L46.9652 3.81654L46.9746 3.77579L47.0018 3.64923C47.0143 3.62624 47.0311 3.60848 47.0499 3.60006C47.0584 3.59483 47.0677 3.59277 47.0782 3.59277H47.0802C47.0886 3.59277 47.098 3.59483 47.1064 3.59903C47.1263 3.60848 47.1441 3.62726 47.1566 3.65344C47.1576 3.65344 47.1576 3.65446 47.1576 3.65549L47.1838 3.77363L47.1932 3.81756L51.5101 23.2899C51.5379 23.4148 51.6038 23.528 51.6987 23.6137L66.7634 37.2141C66.7644 37.2131 66.7644 37.2141 66.7654 37.2151L66.938 37.3709C66.938 37.372 66.938 37.372 66.938 37.372C66.9422 37.3909 66.9412 37.4086 66.9328 37.4233Z" fill="#828282"/>
<path d="M47.0792 3.59288V25.1687L27.5267 37.2382L27.2276 37.4223C27.2193 37.4066 27.2182 37.3888 27.2234 37.3689L27.3929 37.2151L42.4587 23.6137C42.5536 23.528 42.6195 23.4148 42.6472 23.2899L46.9652 3.81654L46.9746 3.77579L47.0018 3.64923C47.0143 3.62624 47.0311 3.60848 47.0499 3.60006C47.0584 3.59483 47.0677 3.59277 47.0782 3.59277L47.0792 3.59288Z" fill="#828282"/>
<path d="M66.9333 37.428L66.6342 37.2429L47.0808 25.1735V3.59766C47.0892 3.59766 47.0986 3.59971 47.107 3.60392C47.1269 3.61336 47.1447 3.63214 47.1572 3.65832C47.1582 3.65832 47.1582 3.65935 47.1582 3.66037C47.1582 3.66037 47.1592 3.66037 47.1592 3.6614L47.1843 3.77431L47.1947 3.82132L51.5127 23.2947C51.5404 23.4196 51.6063 23.5327 51.7012 23.6185L66.7659 37.2199L66.9385 37.3747C66.9374 37.3757 66.9385 37.3757 66.9385 37.3757C66.9385 37.3767 66.9385 37.3767 66.9385 37.3767C66.9428 37.3955 66.9418 37.4133 66.9333 37.428Z" fill="#828282"/>
</g>
<defs>
<clipPath id="clip0_24_1015">
<rect width="94.159" height="52.5538" fill="white"/>
</clipPath>
</defs>
</svg>
