<svg width="95" height="53" viewBox="0 0 95 53" fill="none" xmlns="http://www.w3.org/2000/svg">
<g opacity="0.4">
<path d="M47.079 2.45898C33.926 2.45898 23.2626 13.1213 23.2626 26.2754C23.2626 39.4284 33.926 50.0918 47.079 50.0918C60.233 50.0918 70.8954 39.4284 70.8954 26.2754C70.8955 13.1212 60.2331 2.45898 47.079 2.45898ZM47.079 44.7992C36.8484 44.7992 28.5551 36.5059 28.5551 26.2754C28.5551 16.0448 36.8485 7.75162 47.079 7.75162C57.3094 7.75162 65.6028 16.0451 65.6028 26.2754C65.6028 36.5059 57.3095 44.7992 47.079 44.7992Z" fill="#828282"/>
<path d="M45.756 7.7985C45.3188 7.76761 44.8779 7.75098 44.4328 7.75098C34.2023 7.75098 25.9089 16.0444 25.9089 26.2748C25.9089 36.5054 34.2023 44.7987 44.4328 44.7987C44.8779 44.7987 45.3188 44.782 45.756 44.7512C36.1432 44.0726 28.5552 36.0603 28.5552 26.2748C28.5553 16.4894 36.1432 8.47698 45.756 7.7985Z" fill="#828282"/>
<path d="M47.0789 2.45898C46.6348 2.45898 46.1939 2.47212 45.7559 2.49614C58.2943 3.18283 68.2493 13.5655 68.2493 26.2754C68.2493 38.9843 58.2944 49.368 45.756 50.0546C46.194 50.0786 46.635 50.0918 47.079 50.0918C60.2331 50.0918 70.8954 39.4284 70.8954 26.2754C70.8954 13.1212 60.2331 2.45898 47.0789 2.45898Z" fill="#828282"/>
<path d="M72.9451 33.3572H21.2135C20.9865 33.3572 20.8024 33.1731 20.8024 32.9461V19.6015C20.8024 19.3746 20.9864 19.1904 21.2135 19.1904H72.9452C73.1722 19.1904 73.3562 19.3745 73.3562 19.6015V32.9461C73.3561 33.1731 73.1722 33.3572 72.9451 33.3572Z" fill="#828282"/>
<path d="M72.9457 33.361H70.7131V19.1943H72.9457C73.1726 19.1943 73.3567 19.3784 73.3567 19.6054V32.9501C73.3567 33.1769 73.1727 33.361 72.9457 33.361Z" fill="#828282"/>
<path d="M30.6834 21.5674C30.2582 21.5674 29.9136 21.9128 29.9136 22.3389V27.8992L25.394 21.8753C25.1952 21.61 24.8491 21.5022 24.5349 21.6072C24.2208 21.7123 24.0089 22.007 24.0089 22.339V30.2092C24.0089 30.6354 24.3535 30.9807 24.7787 30.9807C25.204 30.9807 25.5486 30.6353 25.5486 30.2092V24.6489L30.0682 30.6727C30.2163 30.8703 30.4461 30.9807 30.6835 30.9807C30.7649 30.9807 30.8472 30.9677 30.9273 30.9408C31.2414 30.8357 31.4534 30.541 31.4534 30.2091V22.3389C31.4533 21.9128 31.1087 21.5674 30.6834 21.5674Z" fill="#454056"/>
<path d="M69.3806 21.5674C68.9553 21.5674 68.6107 21.9128 68.6107 22.3389V27.8992L64.0911 21.8753C63.8922 21.61 63.5461 21.5022 63.232 21.6072C62.9179 21.7123 62.7059 22.007 62.7059 22.339V30.2092C62.7059 30.6354 63.0505 30.9807 63.4758 30.9807C63.901 30.9807 64.2456 30.6353 64.2456 30.2092V24.6489L68.7652 30.6727C68.9133 30.8703 69.1431 30.9807 69.3806 30.9807C69.462 30.9807 69.5442 30.9677 69.6243 30.9408C69.9384 30.8357 70.1504 30.541 70.1504 30.2091V22.3389C70.1504 21.9128 69.8058 21.5674 69.3806 21.5674Z" fill="#454056"/>
<path d="M34.0794 21.5674C33.6541 21.5674 33.3096 21.9128 33.3096 22.3389V30.2091C33.3096 30.6353 33.6541 30.9806 34.0794 30.9806C34.5047 30.9806 34.8492 30.6352 34.8492 30.2091V22.3389C34.8492 21.9128 34.5047 21.5674 34.0794 21.5674Z" fill="#454056"/>
<path d="M39.4585 23.1113H43.3999C43.8251 23.1113 44.1697 22.7659 44.1697 22.3398C44.1697 21.9138 43.8251 21.5684 43.3999 21.5684H39.4585C37.9514 21.5684 36.7253 22.7971 36.7253 24.3074C36.7253 25.8178 37.9515 27.0465 39.4585 27.0465H41.4365C42.0945 27.0465 42.6298 27.583 42.6298 28.2425C42.6298 28.9021 42.0944 29.4385 41.4365 29.4385H37.4951C37.0698 29.4385 36.7252 29.7839 36.7252 30.2099C36.7252 30.6361 37.0698 30.9814 37.4951 30.9814H41.4365C42.9436 30.9814 44.1696 29.7528 44.1696 28.2425C44.1696 26.7322 42.9435 25.5035 41.4365 25.5035H39.4585C38.8004 25.5035 38.2651 24.9669 38.2651 24.3075C38.2651 23.6477 38.8004 23.1113 39.4585 23.1113Z" fill="#454056"/>
<path d="M48.15 23.1113H52.0914C52.5166 23.1113 52.8612 22.7659 52.8612 22.3398C52.8612 21.9138 52.5166 21.5684 52.0914 21.5684H48.15C46.6429 21.5684 45.4169 22.7971 45.4169 24.3074C45.4169 25.8178 46.643 27.0465 48.15 27.0465H50.128C50.786 27.0465 51.3213 27.583 51.3213 28.2425C51.3213 28.9021 50.7859 29.4385 50.128 29.4385H46.1866C45.7613 29.4385 45.4167 29.7839 45.4167 30.2099C45.4167 30.6361 45.7613 30.9814 46.1866 30.9814H50.128C51.6351 30.9814 52.8611 29.7528 52.8611 28.2425C52.8611 26.7322 51.635 25.5035 50.128 25.5035H48.15C47.4919 25.5035 46.9566 24.9669 46.9566 24.3075C46.9564 23.6477 47.4919 23.1113 48.15 23.1113Z" fill="#454056"/>
<path d="M57.8306 21.5674C55.7781 21.5674 54.1084 23.2408 54.1084 25.2976V30.2091C54.1084 30.6353 54.453 30.9806 54.8782 30.9806C55.3035 30.9806 55.6481 30.6352 55.6481 30.2091V27.0455H60.013V30.2091C60.013 30.6353 60.3576 30.9806 60.7828 30.9806C61.2081 30.9806 61.5527 30.6352 61.5527 30.2091V25.2976C61.5527 23.2407 59.8829 21.5674 57.8306 21.5674ZM55.6481 25.5025V25.2977C55.6481 24.0917 56.6271 23.1104 57.8306 23.1104C59.034 23.1104 60.0131 24.0916 60.0131 25.2977V25.5025H55.6481Z" fill="#454056"/>
</g>
</svg>
