<svg width="18" height="18" viewBox="0 0 18 18" fill="none" xmlns="http://www.w3.org/2000/svg">
<path d="M10.0391 17.9331H7.96091C7.75979 17.9331 7.58102 17.8661 7.42459 17.732C7.26817 17.5979 7.17878 17.4191 7.15644 17.1957L6.95532 15.9219C6.55308 15.8102 6.16202 15.6538 5.78214 15.4527L4.70951 16.2236C4.57543 16.3353 4.41901 16.3912 4.24024 16.3912C4.01677 16.3912 3.82683 16.313 3.6704 16.1566L2.19554 14.6817C2.06146 14.5476 1.98884 14.3744 1.97767 14.1622C1.96649 13.9499 2.01677 13.7655 2.1285 13.6091L2.89945 12.57C2.69834 12.1901 2.54191 11.799 2.43018 11.3968L1.12292 11.1957C0.9218 11.1733 0.754202 11.0839 0.620124 10.9275C0.486045 10.7711 0.419006 10.5923 0.419006 10.3912V8.31299C0.419006 8.11188 0.486045 7.9331 0.620124 7.77668C0.754202 7.62026 0.932973 7.53087 1.15644 7.50852L2.43018 7.30741C2.54191 6.90517 2.69834 6.51411 2.89945 6.13422L2.1285 5.0616C2.01677 4.92752 1.96649 4.75433 1.97767 4.54204C1.98884 4.32975 2.06146 4.15657 2.19554 4.02249L3.6704 2.54763C3.80448 2.41355 3.97767 2.34093 4.18996 2.32975C4.40225 2.31858 4.5866 2.36886 4.74303 2.48059L5.78214 3.25154C6.16202 3.05042 6.55308 2.894 6.95532 2.78227L7.15644 1.475C7.17878 1.34093 7.22348 1.22361 7.29051 1.12305C7.35755 1.02249 7.45253 0.938692 7.57543 0.871653C7.69834 0.804613 7.82683 0.771093 7.96091 0.771093H10.0391C10.2402 0.771093 10.419 0.838133 10.5754 0.97221C10.7319 1.10629 10.8212 1.28506 10.8436 1.50852L11.0447 2.78227C11.4469 2.894 11.838 3.05042 12.2179 3.25154L13.2905 2.48059C13.4246 2.36886 13.581 2.31299 13.7598 2.31299C13.9833 2.31299 14.1732 2.3912 14.3296 2.54763L15.8045 4.02249C15.9386 4.15657 16.0112 4.32975 16.0224 4.54204C16.0335 4.75433 15.9833 4.93869 15.8715 5.09512L15.1006 6.13422C15.3017 6.51411 15.4581 6.90517 15.5698 7.30741L16.8771 7.50852C17.0782 7.53087 17.2458 7.62026 17.3799 7.77668C17.514 7.9331 17.581 8.11188 17.581 8.31299V10.3912C17.581 10.5923 17.514 10.7711 17.3799 10.9275C17.2458 11.0839 17.0671 11.1733 16.8436 11.1957L15.5698 11.3968C15.4581 11.799 15.3017 12.1901 15.1006 12.57L15.8715 13.6091C15.9833 13.7655 16.0335 13.9499 16.0224 14.1622C16.0112 14.3744 15.9386 14.5476 15.8045 14.6817L14.3296 16.1566C14.1955 16.2906 14.0224 16.3633 13.8101 16.3744C13.5978 16.3856 13.4134 16.3242 13.257 16.1901L12.2179 15.4527C11.838 15.6538 11.4469 15.8102 11.0447 15.9219L10.8436 17.2292C10.8212 17.4303 10.7319 17.5979 10.5754 17.732C10.419 17.8661 10.2402 17.9331 10.0391 17.9331ZM5.78214 14.8493C5.82683 14.8493 5.87152 14.8605 5.91621 14.8828C6.34079 15.1286 6.79889 15.3186 7.29051 15.4527C7.40225 15.475 7.46929 15.542 7.49163 15.6538L7.72627 17.1286C7.74862 17.2851 7.82683 17.3633 7.96091 17.3633H10.0391C10.1732 17.3633 10.2514 17.2962 10.2738 17.1622L10.5084 15.6538C10.5307 15.542 10.5978 15.475 10.7095 15.4527C11.2011 15.3186 11.6592 15.1286 12.0838 14.8828C12.1955 14.8158 12.2961 14.8158 12.3855 14.8828L13.5922 15.7543C13.7263 15.8437 13.838 15.8437 13.9274 15.7543L15.4022 14.2795C15.4916 14.1901 15.4916 14.0895 15.4022 13.9778L14.5307 12.7376C14.4637 12.6482 14.4637 12.5476 14.5307 12.4359C14.7765 12.0113 14.9665 11.5532 15.1006 11.0616C15.1229 10.9499 15.19 10.8828 15.3017 10.8605L16.7765 10.6258C16.933 10.6035 17.0112 10.5253 17.0112 10.3912V8.31299C17.0112 8.17892 16.9441 8.1007 16.8101 8.07836L15.3017 7.84372C15.19 7.82137 15.1229 7.75433 15.1006 7.6426C14.9665 7.15098 14.7765 6.69288 14.5307 6.2683C14.4637 6.15657 14.4637 6.05601 14.5307 5.96662L15.4022 4.75992C15.4916 4.62584 15.4916 4.51411 15.4022 4.42472L13.9274 2.94986C13.838 2.86048 13.7374 2.86048 13.6257 2.94986L12.3855 3.82137C12.2961 3.88841 12.1955 3.88841 12.0838 3.82137C11.6592 3.57556 11.2011 3.38562 10.7095 3.25154C10.5978 3.22919 10.5307 3.16216 10.5084 3.05042L10.2738 1.57556C10.2514 1.41914 10.1732 1.34093 10.0391 1.34093H7.96091C7.82683 1.34093 7.74862 1.40796 7.72627 1.54204L7.49163 3.05042C7.46929 3.16216 7.40225 3.22919 7.29051 3.25154C6.79889 3.38562 6.34079 3.57556 5.91621 3.82137C5.80448 3.88841 5.70392 3.88841 5.61454 3.82137L4.40783 2.94986C4.27376 2.86048 4.16202 2.86048 4.07264 2.94986L2.59778 4.42472C2.50839 4.51411 2.50839 4.61467 2.59778 4.7264L3.46929 5.96662C3.53632 6.05601 3.53632 6.15657 3.46929 6.2683C3.22348 6.69288 3.03353 7.15098 2.89945 7.6426C2.87711 7.75433 2.81007 7.82137 2.69834 7.84372L1.22348 8.07836C1.06705 8.1007 0.988839 8.17892 0.988839 8.31299V10.3912C0.988839 10.5253 1.05588 10.6035 1.18996 10.6258L2.69834 10.8605C2.81007 10.8828 2.87711 10.9499 2.89945 11.0616C3.03353 11.5532 3.22348 12.0113 3.46929 12.4359C3.53632 12.5476 3.53632 12.6482 3.46929 12.7376L2.59778 13.9443C2.50839 14.0784 2.50839 14.1901 2.59778 14.2795L4.07264 15.7543C4.16202 15.8437 4.26258 15.8437 4.37431 15.7543L5.61454 14.8828C5.65923 14.8605 5.7151 14.8493 5.78214 14.8493ZM9.00001 12.7376C8.06146 12.7376 7.26258 12.408 6.60336 11.7487C5.94415 11.0895 5.61454 10.2906 5.61454 9.3521C5.61454 8.41355 5.94415 7.61467 6.60336 6.95545C7.26258 6.29623 8.06146 5.96662 9.00001 5.96662C9.60336 5.96662 10.1676 6.11746 10.6927 6.41914C11.2179 6.72081 11.6313 7.13422 11.933 7.65936C12.2346 8.1845 12.3855 8.74875 12.3855 9.3521C12.3855 9.95545 12.2346 10.5197 11.933 11.0448C11.6313 11.57 11.2179 11.9834 10.6927 12.2851C10.1676 12.5867 9.60336 12.7376 9.00001 12.7376ZM10.9944 7.35769C10.9944 7.35769 10.8576 7.22081 10.5838 6.94707C10.3101 6.67333 9.78214 6.53646 9.00001 6.53646C8.21789 6.53646 7.55308 6.8102 7.0056 7.35769C6.45811 7.90517 6.18437 8.56998 6.18437 9.3521C6.18437 10.1342 6.45811 10.799 7.0056 11.3465C7.55308 11.894 8.21789 12.1677 9.00001 12.1677C9.78214 12.1677 10.4469 11.894 10.9944 11.3465C11.5419 10.799 11.8157 10.1342 11.8157 9.3521C11.8157 8.56998 11.5419 7.90517 10.9944 7.35769Z" fill="#A0A0A0"/>
</svg>
