<svg width="18" height="18" viewBox="0 0 18 18" fill="none" xmlns="http://www.w3.org/2000/svg">
<path d="M15.067 15.9555C15.067 16.0895 15.0112 16.1566 14.8995 16.1566C14.7877 16.1566 14.7319 16.0895 14.7319 15.9555V1.50852C14.7319 1.44148 14.7207 1.38562 14.6983 1.34093C14.676 1.29623 14.6481 1.25713 14.6145 1.22361C14.581 1.19009 14.5363 1.16774 14.4805 1.15657C14.4246 1.1454 14.3743 1.13981 14.3296 1.13981L6.68716 1.10629C6.57543 1.10629 6.48046 1.1454 6.40224 1.22361C6.32403 1.30182 6.28492 1.38562 6.28492 1.475L6.25141 15.9555C6.25141 16.0672 6.19554 16.123 6.08381 16.123C5.97208 16.123 5.91621 16.0672 5.91621 15.9555V1.475C5.91621 1.27389 5.99442 1.10629 6.15085 0.97221C6.30727 0.838133 6.48604 0.771093 6.68716 0.771093H14.3296C14.5307 0.771093 14.7095 0.843719 14.8659 0.98897C15.0224 1.13422 15.1006 1.30741 15.1006 1.50852L15.067 15.9555ZM5.0447 17.9331C4.86593 17.9331 4.77654 17.8549 4.77654 17.6985V16.3242C4.77654 16.1677 4.83241 16.0393 4.94414 15.9387C5.05587 15.8381 5.18995 15.7879 5.34638 15.7879H6.08381C6.19554 15.7879 6.25141 15.8493 6.25141 15.9722C6.25141 16.0951 6.19554 16.1566 6.08381 16.1566H5.34638C5.2123 16.1566 5.14526 16.2124 5.14526 16.3242V17.5979L10.7095 17.5644C10.8212 17.5644 10.8771 17.6258 10.8771 17.7487C10.8771 17.8717 10.8212 17.9331 10.7095 17.9331H5.0447ZM15.9386 17.9331H10.2738C10.162 17.9331 10.1062 17.8717 10.1062 17.7487C10.1062 17.6258 10.162 17.5644 10.2738 17.5644L15.838 17.5979V16.3242C15.838 16.2124 15.771 16.1566 15.6369 16.1566H14.8995C14.7877 16.1566 14.7319 16.0951 14.7319 15.9722C14.7319 15.8493 14.7877 15.7879 14.8995 15.7879H15.6369C15.7933 15.7879 15.9274 15.8381 16.0391 15.9387C16.1508 16.0393 16.2067 16.1677 16.2067 16.3242V17.6985C16.2067 17.8549 16.1173 17.9331 15.9386 17.9331ZM13.6257 5.76551H7.49163C7.29051 5.76551 7.18995 5.66495 7.18995 5.46383V2.41355C7.18995 2.21243 7.29051 2.11188 7.49163 2.11188H13.6257C13.8268 2.11188 13.9274 2.21243 13.9274 2.41355V5.46383C13.9274 5.55322 13.8995 5.62584 13.8436 5.68171C13.7877 5.73757 13.7151 5.76551 13.6257 5.76551ZM7.52515 5.39679L13.5587 5.43031L13.5922 2.48059H7.52515V5.39679ZM3.80448 14.0784C3.49163 14.0784 3.24582 13.9946 3.06705 13.827C2.88828 13.6594 2.79889 13.3968 2.79889 13.0393V8.78227H3.16761C3.16761 11.4638 3.16761 12.8717 3.16761 13.0057C3.16761 13.2739 3.21789 13.4638 3.31844 13.5756C3.419 13.6873 3.58101 13.7432 3.80448 13.7432C4.02794 13.7432 4.19554 13.6873 4.30727 13.5756C4.39666 13.4862 4.44135 13.3744 4.44135 13.2404C4.44135 13.2404 4.44694 13.0281 4.45811 12.6035C4.46928 12.1789 4.48046 11.732 4.49163 11.2627C4.5028 10.7934 4.50839 10.4918 4.50839 10.3577C4.50839 10.1342 4.5866 9.94428 4.74303 9.78785C5.03353 9.54204 5.49163 9.45266 6.11733 9.5197C6.22906 9.54204 6.27375 9.60908 6.25141 9.72081C6.22906 9.83255 6.16202 9.87724 6.05029 9.85489C5.55867 9.8102 5.20113 9.87724 4.97766 10.056C4.91062 10.123 4.8771 10.2236 4.8771 10.3577C4.8771 10.827 4.84358 11.7879 4.77654 13.2404C4.77654 13.2404 4.77654 13.2683 4.77654 13.3242C4.77654 13.38 4.75978 13.4582 4.72627 13.5588C4.69275 13.6594 4.64247 13.7432 4.57543 13.8102C4.39666 13.989 4.13967 14.0784 3.80448 14.0784ZM3.73744 8.98338H2.2961C2.20671 8.98338 2.15085 8.92752 2.1285 8.81579L1.7933 6.00014C1.7933 5.95545 1.80448 5.90517 1.82682 5.84931C1.84917 5.79344 1.9218 5.70964 2.0447 5.59791C2.16761 5.48618 2.32962 5.41914 2.53073 5.39679C2.62012 5.37445 2.74303 5.36327 2.89945 5.36327C3.59219 5.36327 3.98325 5.53087 4.07263 5.86607C4.07263 5.88841 4.07263 5.91076 4.07263 5.9331L3.93856 8.81579C3.91621 8.92752 3.84917 8.98338 3.73744 8.98338ZM2.4637 8.61467H3.56984L3.70392 5.9331C3.61453 5.77668 3.34638 5.69847 2.89945 5.69847C2.72068 5.72081 2.62012 5.73199 2.59777 5.73199C2.30727 5.77668 2.16202 5.86607 2.16202 6.00014L2.4637 8.61467ZM3.03353 5.36327C3.03353 5.475 2.97208 5.53087 2.84917 5.53087C2.72627 5.53087 2.66481 5.475 2.66481 5.36327C2.66481 4.5588 3.00001 3.98897 3.6704 3.65378C3.98325 3.49735 4.30727 3.41914 4.64247 3.41914C4.7542 3.41914 4.81006 3.475 4.81006 3.58674C4.81006 3.69847 4.7542 3.75433 4.64247 3.75433C4.62012 3.75433 4.5866 3.75992 4.54191 3.77109C4.49722 3.78227 4.419 3.79903 4.30727 3.82137C4.19554 3.84372 4.08381 3.87165 3.97208 3.90517C3.86034 3.93869 3.74861 3.99456 3.63688 4.07277C3.52515 4.15098 3.42459 4.24595 3.3352 4.35769C3.24582 4.46942 3.17319 4.60908 3.11733 4.77668C3.06146 4.94428 3.03353 5.13981 3.03353 5.36327Z" fill="#A0A0A0"/>
</svg>
