<svg width="50" height="50" viewBox="0 0 50 50" fill="none" xmlns="http://www.w3.org/2000/svg">
<rect width="50" height="50" rx="25" fill="#FFF4DB"/>
<g clip-path="url(#clip0_24_828)">
<path d="M20.1406 36.2432C19.9531 36.1025 19.7188 35.9619 19.5313 35.8682C19.5781 35.4932 19.5313 35.0713 19.4375 34.6494C19.25 33.9463 18.875 33.29 18.3594 32.6807C17.8906 33.0557 17.6563 33.7119 17.75 34.415C17.4219 34.0869 17.0938 33.7588 16.8125 33.4307C17 33.1025 17.0938 32.6807 17.0938 32.2588C17.1406 31.5557 17 30.8525 16.6719 30.1494C16.0625 30.3838 15.6875 30.9932 15.5938 31.6963C15.3594 31.3213 15.1719 30.8994 14.9844 30.5244C15.2656 30.2432 15.5 29.8682 15.6406 29.4463C15.875 28.79 15.9219 28.0869 15.7813 27.3369C15.125 27.4307 14.5625 27.8994 14.2813 28.6025C14.1406 28.1338 14.0469 27.7119 14 27.2432C14.375 27.0557 14.7031 26.7275 14.9375 26.3525C15.3125 25.79 15.5938 25.0869 15.6406 24.3369C14.9375 24.2432 14.2344 24.6182 13.8125 25.2744C13.8125 24.8057 13.8594 24.29 13.9063 23.8213C14.3281 23.7275 14.75 23.4932 15.125 23.2119C15.6406 22.79 16.0625 22.1807 16.3438 21.4775C15.6875 21.1963 14.8906 21.3838 14.2813 21.9463C14.4219 21.4775 14.5625 20.9619 14.75 20.4932C15.2188 20.54 15.6875 20.3994 16.1094 20.2119C16.7188 19.9307 17.2813 19.4619 17.75 18.8057C17.1875 18.3369 16.3438 18.3369 15.5938 18.7588C15.875 18.29 16.1563 17.8682 16.4844 17.4463C16.9063 17.6338 17.4219 17.6338 17.9375 17.54C18.6406 17.3994 19.3438 17.1182 20 16.6025C19.5781 15.9932 18.7344 15.7588 17.8438 15.9932C18.5 15.3838 19.2031 14.8213 20.0469 14.3525C20.2813 14.2119 20.375 13.9307 20.2344 13.6963C20.0938 13.4619 19.7656 13.3682 19.5313 13.5088C18.6406 14.0244 17.8438 14.6338 17.1406 15.29C17.5156 14.3525 17.5625 13.5088 17.1406 12.8525C16.2969 13.415 15.6875 14.3525 15.5469 15.1494C15.4063 15.7588 15.5 16.2744 15.7813 16.6963C15.4063 17.165 15.0781 17.6807 14.7969 18.1494C14.8906 17.165 14.6563 16.3213 14.0938 15.8525C13.4375 16.7432 13.1563 17.7744 13.25 18.5713C13.2969 19.1807 13.5313 19.6494 13.9063 19.9775C13.6719 20.54 13.4844 21.0557 13.3438 21.6182C13.1563 20.6807 12.7344 19.9307 12.0313 19.6025C11.6563 20.6338 11.6563 21.665 11.9375 22.415C12.1719 22.9775 12.5 23.3525 12.9688 23.5869C12.875 24.1494 12.875 24.7119 12.875 25.2744C12.4531 24.4307 11.8438 23.8682 11.0938 23.7744C11 24.8525 11.2813 25.8369 11.75 26.4932C12.0781 26.9619 12.5469 27.2432 13.0156 27.3369C13.0625 27.8994 13.2031 28.415 13.2969 28.9307C12.6875 28.2744 11.9844 27.8994 11.2344 27.9932C11.4219 29.0713 11.9375 29.9619 12.5938 30.4307C13.0156 30.8057 13.5313 30.9463 13.9531 30.8994C14.1406 31.3682 14.375 31.8838 14.6094 32.3057C13.8125 31.9775 13.0625 31.79 12.4063 32.0713C12.875 33.0557 13.625 33.8057 14.375 34.1338C14.8906 34.3682 15.3594 34.3682 15.7813 34.2744C16.1094 34.6963 16.4375 35.0713 16.8125 35.4463C16.0156 35.2588 15.3125 35.3057 14.7969 35.7275C15.5469 36.5713 16.5313 37.0869 17.375 37.2275C17.8906 37.3213 18.3594 37.2275 18.7344 37.04C18.9219 37.1807 19.1563 37.3213 19.3438 37.4619C19.7188 37.6963 20.1875 37.5557 20.375 37.1807C20.5625 36.8525 20.4688 36.4307 20.1406 36.2432Z" fill="#FFB611"/>
<path d="M38.7969 28.9307C38.9375 28.415 39.0313 27.8525 39.0782 27.3369C39.5469 27.2432 39.9688 26.9619 40.3438 26.4932C40.8125 25.8369 41.0938 24.8525 41 23.7744C40.25 23.8682 39.6407 24.4775 39.2188 25.2744C39.2188 24.7119 39.1719 24.1494 39.125 23.5869C39.5469 23.3994 39.9219 22.9775 40.1563 22.415C40.4375 21.665 40.4844 20.6338 40.0625 19.6025C39.3594 19.9307 38.9375 20.6807 38.75 21.6182C38.6094 21.0557 38.4219 20.4932 38.1875 19.9775C38.5625 19.6494 38.7969 19.1807 38.8438 18.5713C38.9375 17.7744 38.6563 16.7432 38 15.8525C37.3907 16.3213 37.2032 17.2119 37.2969 18.1494C36.9219 17.6338 36.5938 17.165 36.2188 16.6963C36.5 16.3213 36.5938 15.7588 36.4532 15.1494C36.3125 14.3525 35.7032 13.415 34.7657 12.665C34.3438 13.2744 34.3907 14.165 34.7657 15.1025C34.0625 14.4463 33.2657 13.8369 32.375 13.3213C32.1407 13.1807 31.8125 13.2744 31.6719 13.5088C31.5313 13.7432 31.625 14.0244 31.8594 14.165C32.6563 14.6338 33.4063 15.1963 34.0625 15.8057C33.1719 15.5713 32.3282 15.8057 31.9063 16.415C32.5625 16.9307 33.2657 17.2119 33.9688 17.3525C34.4844 17.4463 35 17.4463 35.4219 17.2588C35.75 17.6807 36.0782 18.1494 36.3125 18.5713C35.5625 18.1494 34.7188 18.1494 34.1563 18.6182C34.625 19.2275 35.1875 19.7432 35.7969 20.0244C36.2657 20.2588 36.7344 20.3525 37.1563 20.3057C37.3438 20.7744 37.4844 21.2432 37.625 21.7588C37.0157 21.1963 36.2188 21.0088 35.5625 21.29C35.8438 21.9932 36.2657 22.6025 36.7813 23.0244C37.1563 23.3525 37.5782 23.54 38 23.6338C38.0469 24.1025 38.0938 24.6182 38.0938 25.0869C37.6719 24.4307 36.9688 24.0557 36.2657 24.1494C36.3594 24.8994 36.5938 25.6025 36.9688 26.165C37.2032 26.54 37.5313 26.8682 37.9063 27.0557C37.8125 27.5244 37.7188 27.9463 37.625 28.415C37.3438 27.7119 36.8282 27.1963 36.125 27.1494C35.9844 27.8994 36.0782 28.6494 36.2657 29.2588C36.4063 29.6807 36.5938 30.0557 36.9219 30.3369C36.7344 30.7588 36.5469 31.1338 36.3125 31.5088C36.2188 30.8057 35.8438 30.1963 35.2344 29.9619C34.9063 30.665 34.7657 31.3682 34.8125 32.0713C34.8125 32.4932 34.9063 32.915 35.0938 33.2432C34.8125 33.5713 34.4844 33.8994 34.1563 34.2275C34.25 33.5244 34.0625 32.8682 33.5469 32.4932C33.0313 33.1025 32.6563 33.7588 32.4688 34.4619C32.375 34.8838 32.3282 35.3057 32.375 35.6807C32.1875 35.8213 32 35.9619 31.7657 36.0557C31.4375 36.2432 31.3438 36.665 31.4844 36.9932C31.6719 37.3682 32.1407 37.5088 32.5157 37.2744C32.75 37.1338 32.9375 36.9932 33.125 36.8525C33.5 37.04 33.9688 37.1338 34.4844 37.04C35.3282 36.8994 36.3125 36.3838 37.0625 35.54C36.5469 35.1182 35.8438 35.0713 35.0469 35.2588C35.4219 34.8838 35.75 34.5088 36.0782 34.0869C36.5 34.1807 36.9688 34.1338 37.4844 33.9463C38.2344 33.6182 38.9844 32.915 39.4532 31.8838C38.7969 31.6025 38.0469 31.79 37.3438 32.2119C37.5782 31.7432 37.8125 31.2744 38 30.8057C38.4688 30.8057 38.9375 30.665 39.3594 30.3369C39.9688 29.8213 40.5313 28.9775 40.7188 27.8994C40.1094 27.8994 39.4063 28.3213 38.7969 28.9307Z" fill="#FFB611"/>
<path d="M31.7656 33.2432L30.7812 27.5713L34.9062 23.54C35.0469 23.3994 35.0938 23.2119 35.0469 23.0713C35 22.8838 34.8594 22.79 34.6719 22.7432L28.9531 21.8994L26.4219 16.7432C26.3281 16.6025 26.1875 16.4619 26 16.4619C25.8125 16.4619 25.6719 16.5557 25.5781 16.7432L23.0469 21.8994L17.3281 22.7432C17.1406 22.79 17 22.8838 16.9531 23.0713C16.9062 23.2588 16.9531 23.4463 17.0938 23.54L21.2188 27.5713L20.2344 33.2432C20.1875 33.4307 20.2813 33.6182 20.4219 33.7119C20.5625 33.8057 20.75 33.8525 20.9375 33.7588L26 31.04L31.1094 33.7119C31.1563 33.7588 31.25 33.7588 31.3438 33.7588C31.4375 33.7588 31.5312 33.7119 31.625 33.665C31.7188 33.5713 31.8125 33.4307 31.7656 33.2432Z" fill="#FFB611"/>
</g>
<defs>
<clipPath id="clip0_24_828">
<rect width="30" height="30" fill="white" transform="translate(11 10.1338)"/>
</clipPath>
</defs>
</svg>
