<svg width="15" height="15" viewBox="0 0 15 15" fill="none" xmlns="http://www.w3.org/2000/svg">
<path d="M3.75 11.2341C3.83044 12.0518 4.01223 12.6022 4.42307 13.0131C5.15997 13.75 6.346 13.75 8.71806 13.75C11.0901 13.75 12.2762 13.75 13.0131 13.0131C13.75 12.2762 13.75 11.0901 13.75 8.71806C13.75 6.346 13.75 5.15997 13.0131 4.42307C12.6022 4.01223 12.0518 3.83044 11.2341 3.75" stroke="white"/>
<path d="M1.25 6.25C1.25 3.89298 1.25 2.71447 1.98223 1.98223C2.71447 1.25 3.89298 1.25 6.25 1.25C8.607 1.25 9.78556 1.25 10.5177 1.98223C11.25 2.71447 11.25 3.89298 11.25 6.25C11.25 8.607 11.25 9.78556 10.5177 10.5177C9.78556 11.25 8.607 11.25 6.25 11.25C3.89298 11.25 2.71447 11.25 1.98223 10.5177C1.25 9.78556 1.25 8.607 1.25 6.25Z" stroke="white"/>
<path d="M1.25 6.94909C1.63689 6.8999 2.02803 6.87565 2.41982 6.87646C4.07728 6.84584 5.69415 7.29771 6.98194 8.15152C8.17625 8.9434 9.01544 10.0331 9.375 11.25" stroke="white" stroke-linejoin="round"/>
<path d="M8.125 4.375H8.13062" stroke="white" stroke-width="1.5" stroke-linecap="round" stroke-linejoin="round"/>
</svg>
