<svg width="18" height="18" viewBox="0 0 18 18" fill="none" xmlns="http://www.w3.org/2000/svg">
<path d="M12.9888 0.771093C14.2626 0.771093 15.3464 1.21802 16.2402 2.11188C17.1341 3.00573 17.581 4.08953 17.581 5.36327V15.6538C17.581 16.2795 17.3576 16.8158 16.9106 17.2627C16.4637 17.7096 15.9274 17.9331 15.3017 17.9331H15.2682C15.0671 17.9331 14.8659 17.8996 14.6648 17.8325L3.53632 16.2236C2.66482 16.2013 1.92739 15.8884 1.32403 15.2851C0.720682 14.6817 0.419006 13.9443 0.419006 13.0728C0.419006 12.0001 0.843587 11.151 1.69275 10.5253L8.89945 3.31858C9.27934 2.5588 9.838 1.94428 10.5754 1.475C11.3129 1.00573 12.1173 0.771093 12.9888 0.771093ZM12.9888 1.34093C12.2291 1.34093 11.5252 1.54763 10.8771 1.96104C10.2291 2.37444 9.73744 2.91634 9.40225 3.58674C9.40225 3.60908 9.40225 3.62026 9.40225 3.62026C9.13409 4.15657 9.00001 4.73757 9.00001 5.36327C9.00001 6.45824 9.39107 7.39679 10.1732 8.17892C10.9553 8.96104 11.8939 9.3521 12.9888 9.3521C13.4358 9.3521 13.8603 9.28506 14.2626 9.15098C14.6648 9.0169 15.0335 8.82696 15.3687 8.58115C15.7039 8.33534 15.9944 8.04484 16.2402 7.70964C16.486 7.37445 16.676 7.00573 16.8101 6.6035C16.9441 6.20126 17.0112 5.78785 17.0112 5.36327C17.0112 4.24595 16.6201 3.29623 15.838 2.51411C15.0559 1.73199 14.1062 1.34093 12.9888 1.34093ZM0.988839 13.0728C0.988839 13.7879 1.24024 14.3968 1.74303 14.8996C2.24582 15.4024 2.85476 15.6538 3.56984 15.6538C4.28493 15.6538 4.89387 15.4024 5.39666 14.8996C5.89945 14.3968 6.15085 13.7879 6.15085 13.0728C6.15085 12.3577 5.89945 11.7487 5.39666 11.246C4.89387 10.7432 4.28493 10.4918 3.56984 10.4918C2.98884 10.4918 2.47487 10.6594 2.02795 10.9946C2.0056 11.0169 1.99443 11.0281 1.99443 11.0281C1.32403 11.542 0.988839 12.2236 0.988839 13.0728ZM15.3017 17.3633C15.771 17.3633 16.1732 17.1957 16.5084 16.8605C16.8436 16.5253 17.0112 16.123 17.0112 15.6538C17.0112 15.1845 16.8436 14.7823 16.5084 14.4471C16.1732 14.1119 15.771 13.9443 15.3017 13.9443C14.8324 13.9443 14.4302 14.1119 14.095 14.4471C13.7598 14.7823 13.5922 15.1845 13.5922 15.6538C13.5922 15.9666 13.6648 16.2515 13.8101 16.5085C13.9553 16.7655 14.162 16.9722 14.4302 17.1286C14.6983 17.2851 14.9888 17.3633 15.3017 17.3633ZM17.0112 14.1454V7.54204C16.8101 7.89959 16.5698 8.22361 16.2905 8.51411C16.0112 8.80461 15.6983 9.05601 15.352 9.2683C15.0056 9.48059 14.6313 9.6426 14.2291 9.75433C13.8268 9.86607 13.4134 9.92193 12.9888 9.92193C11.7374 9.92193 10.6648 9.475 9.77096 8.58115C8.87711 7.68729 8.43018 6.61467 8.43018 5.36327C8.43018 5.07277 8.45253 4.79344 8.49722 4.52528L3.06705 9.95545C3.22348 9.93311 3.39107 9.92193 3.56984 9.92193C4.44135 9.92193 5.18437 10.2292 5.79889 10.8437C6.41342 11.4582 6.72068 12.2013 6.72068 13.0728C6.72068 13.475 6.64806 13.8605 6.50281 14.2292C6.35755 14.5979 6.15644 14.9219 5.89945 15.2013C5.64247 15.4806 5.34638 15.7096 5.01119 15.8884L13.5587 17.1286C13.1788 16.7041 12.9888 16.2124 12.9888 15.6538C12.9888 15.0281 13.2179 14.4862 13.676 14.0281C14.1341 13.57 14.676 13.3409 15.3017 13.3409C15.9721 13.3409 16.5419 13.6091 17.0112 14.1454ZM15 15.637C15 15.637 15 15.5895 15 15.4946C15 15.3996 15.095 15.3521 15.2849 15.3521C15.4749 15.3521 15.5698 15.4471 15.5698 15.637C15.5698 15.827 15.4749 15.9219 15.2849 15.9219C15.095 15.9219 15 15.827 15 15.637ZM13.2905 3.33534C13.2905 3.33534 13.2905 3.38282 13.2905 3.4778C13.2905 3.57277 13.1955 3.62026 13.0056 3.62026C12.8157 3.62026 12.7207 3.52528 12.7207 3.33534C12.7207 3.1454 12.8157 3.05042 13.0056 3.05042C13.1955 3.05042 13.2905 3.1454 13.2905 3.33534ZM12.7207 7.35769C12.7207 7.35769 12.7207 7.3102 12.7207 7.21523C12.7207 7.12026 12.8157 7.07277 13.0056 7.07277C13.1955 7.07277 13.2905 7.16774 13.2905 7.35769C13.2905 7.54763 13.1955 7.6426 13.0056 7.6426C12.8157 7.6426 12.7207 7.54763 12.7207 7.35769ZM4.59219 12.0504C4.59219 12.0504 4.66202 12.1203 4.80169 12.2599C4.94135 12.3996 5.01119 12.6705 5.01119 13.0728C5.01119 13.475 4.87152 13.8158 4.59219 14.0951C4.31286 14.3744 3.97208 14.5141 3.56984 14.5141C3.30169 14.5141 3.05588 14.4471 2.83241 14.313C2.60895 14.1789 2.43577 14.0057 2.31286 13.7934C2.18996 13.5812 2.1285 13.3409 2.1285 13.0728C2.1285 12.6705 2.26817 12.3298 2.5475 12.0504C2.82683 11.7711 3.16761 11.6314 3.56984 11.6314C3.97208 11.6314 4.31286 11.7711 4.59219 12.0504ZM2.69834 13.0728C2.69834 13.2292 2.73744 13.3744 2.81565 13.5085C2.89387 13.6426 3.00001 13.7487 3.13409 13.827C3.26817 13.9052 3.41342 13.9443 3.56984 13.9443C3.81565 13.9443 4.01677 13.8605 4.1732 13.6929C4.32962 13.5253 4.40783 13.3186 4.40783 13.0728C4.40783 12.827 4.32962 12.6203 4.1732 12.4527C4.01677 12.2851 3.81565 12.2013 3.56984 12.2013C3.32403 12.2013 3.11733 12.2851 2.94973 12.4527C2.78214 12.6203 2.69834 12.827 2.69834 13.0728ZM15.3017 5.34651C15.3017 5.34651 15.3017 5.394 15.3017 5.48897C15.3017 5.58394 15.2067 5.63143 15.0168 5.63143C14.8268 5.63143 14.7319 5.53646 14.7319 5.34651C14.7319 5.15657 14.8268 5.0616 15.0168 5.0616C15.2067 5.0616 15.3017 5.15657 15.3017 5.34651ZM11.2793 5.34651C11.2793 5.34651 11.2793 5.394 11.2793 5.48897C11.2793 5.58394 11.1844 5.63143 10.9944 5.63143C10.8045 5.63143 10.7095 5.53646 10.7095 5.34651C10.7095 5.15657 10.8045 5.0616 10.9944 5.0616C11.1844 5.0616 11.2793 5.15657 11.2793 5.34651ZM11.8492 3.90517C11.8492 3.90517 11.8492 3.95266 11.8492 4.04763C11.8492 4.1426 11.7542 4.19009 11.5643 4.19009C11.3743 4.19009 11.2793 4.09512 11.2793 3.90517C11.2793 3.71523 11.3743 3.62026 11.5643 3.62026C11.7542 3.62026 11.8492 3.71523 11.8492 3.90517ZM14.162 6.78785C14.162 6.78785 14.162 6.74037 14.162 6.6454C14.162 6.55042 14.257 6.50294 14.4469 6.50294C14.6369 6.50294 14.7319 6.59791 14.7319 6.78785C14.7319 6.9778 14.6369 7.07277 14.4469 7.07277C14.257 7.07277 14.162 6.9778 14.162 6.78785ZM14.7319 3.90517C14.7319 3.90517 14.7319 3.95266 14.7319 4.04763C14.7319 4.1426 14.6369 4.19009 14.4469 4.19009C14.257 4.19009 14.162 4.09512 14.162 3.90517C14.162 3.71523 14.257 3.62026 14.4469 3.62026C14.6369 3.62026 14.7319 3.71523 14.7319 3.90517ZM11.2793 6.78785C11.2793 6.78785 11.2793 6.74037 11.2793 6.6454C11.2793 6.55042 11.3743 6.50294 11.5643 6.50294C11.7542 6.50294 11.8492 6.59791 11.8492 6.78785C11.8492 6.9778 11.7542 7.07277 11.5643 7.07277C11.3743 7.07277 11.2793 6.9778 11.2793 6.78785ZM15.4358 7.77668C15.4358 7.77668 15.2682 7.94428 14.933 8.27947C14.5978 8.61467 13.9553 8.78227 13.0056 8.78227C12.0559 8.78227 11.2458 8.44707 10.5754 7.77668C9.90504 7.10629 9.56985 6.29623 9.56985 5.34651C9.56985 4.39679 9.90504 3.58674 10.5754 2.91634C11.2458 2.24595 12.0559 1.91076 13.0056 1.91076C13.9553 1.91076 14.7654 2.24595 15.4358 2.91634C16.1062 3.58674 16.4414 4.39679 16.4414 5.34651C16.4414 6.29623 16.1062 7.10629 15.4358 7.77668ZM15.0335 3.31858C15.0335 3.31858 14.8939 3.17892 14.6145 2.89958C14.3352 2.62026 13.7989 2.48059 13.0056 2.48059C12.2123 2.48059 11.5363 2.75992 10.9777 3.31858C10.419 3.87724 10.1397 4.55322 10.1397 5.34651C10.1397 6.13981 10.419 6.81579 10.9777 7.37445C11.5363 7.9331 12.2123 8.21243 13.0056 8.21243C13.7989 8.21243 14.4749 7.9331 15.0335 7.37445C15.5922 6.81579 15.8715 6.13981 15.8715 5.34651C15.8715 4.55322 15.5922 3.87724 15.0335 3.31858ZM12.9888 6.50294C12.676 6.50294 12.4078 6.39121 12.1844 6.16774C11.9609 5.94428 11.8492 5.67054 11.8492 5.34651C11.8492 5.02249 11.9609 4.74875 12.1844 4.52528C12.4078 4.30182 12.6816 4.19009 13.0056 4.19009C13.3296 4.19009 13.6034 4.30182 13.8268 4.52528C14.0503 4.74875 14.162 5.02808 14.162 5.36327C14.162 5.49735 14.1285 5.63702 14.0615 5.78227C13.9944 5.92752 13.9106 6.05042 13.8101 6.15098C13.7095 6.25154 13.5866 6.33534 13.4414 6.40238C13.2961 6.46942 13.1453 6.50294 12.9888 6.50294ZM13.4246 4.92752C13.4246 4.92752 13.3967 4.89958 13.3408 4.84372C13.2849 4.78785 13.1732 4.75992 13.0056 4.75992C12.838 4.75992 12.6983 4.81579 12.5866 4.92752C12.4749 5.03925 12.419 5.17892 12.419 5.34651C12.419 5.51411 12.4749 5.65378 12.5866 5.76551C12.6983 5.87724 12.838 5.9331 13.0056 5.9331C13.1732 5.9331 13.3129 5.87724 13.4246 5.76551C13.5363 5.65378 13.5922 5.51411 13.5922 5.34651C13.5922 5.17892 13.5363 5.03925 13.4246 4.92752Z" fill="#A0A0A0"/>
</svg>
