<svg width="18" height="18" viewBox="0 0 18 18" fill="none" xmlns="http://www.w3.org/2000/svg">
<path d="M11.7151 7.80994C11.8715 7.7429 11.9833 7.76524 12.0503 7.87697C12.1397 7.98871 12.162 8.10044 12.1173 8.21217L11.2793 9.58647C11.2346 9.67586 11.1844 9.77083 11.1285 9.87139C11.0726 9.97195 11.0168 10.0725 10.9609 10.1731C10.905 10.2736 10.8548 10.3742 10.8101 10.4747C10.7654 10.5753 10.7151 10.6759 10.6592 10.7764C10.6034 10.877 10.5531 10.9719 10.5084 11.0613C10.3967 11.2848 10.3184 11.4524 10.2738 11.5641C10.0056 12.1004 9.58102 12.3686 9.00001 12.3686C8.84359 12.3686 8.73186 12.3574 8.66482 12.3351C8.48605 12.2904 8.32403 12.2178 8.17878 12.1172C8.03353 12.0166 7.91063 11.8937 7.81007 11.7485C7.70951 11.6032 7.63688 11.4412 7.59219 11.2624C7.5475 11.039 7.5475 10.8267 7.59219 10.6256C7.63688 10.4245 7.72627 10.2345 7.86035 10.0557C7.99443 9.87697 8.16202 9.7429 8.36314 9.65351C8.5866 9.51943 8.7542 9.44122 8.86593 9.41887C9.44694 9.12837 9.93856 8.87139 10.3408 8.64792L11.7151 7.80994ZM10.8101 9.25128L11.0447 8.88256L10.6425 9.1172C10.4414 9.25128 9.92739 9.51943 9.10057 9.92167C9.07823 9.94401 9.0056 9.97753 8.88269 10.0222C8.75979 10.0669 8.67599 10.1116 8.6313 10.1563C8.22906 10.3351 8.07264 10.6591 8.16202 11.1284C8.22906 11.4859 8.44135 11.6982 8.79889 11.7652C9.26817 11.8546 9.59219 11.6982 9.77096 11.296C9.90504 11.0278 9.98325 10.8714 10.0056 10.8267C10.2514 10.2457 10.5196 9.72055 10.8101 9.25128ZM16.9777 7.7429C17.3799 8.77083 17.581 9.83228 17.581 10.9273C17.581 12.9384 16.9665 14.715 15.7374 16.2569C15.6704 16.3239 15.5922 16.3574 15.5028 16.3574H2.49722C2.40783 16.3574 2.32962 16.3239 2.26258 16.2569C1.03353 14.715 0.419006 12.9384 0.419006 10.9273C0.419006 8.58088 1.24582 6.56971 2.89945 4.89373C2.89945 4.89373 2.91063 4.88256 2.93297 4.86021C2.95532 4.83787 2.96649 4.8267 2.96649 4.8267C3.77096 4.04457 4.68716 3.44122 5.7151 3.01664C5.73744 2.99429 5.7542 2.97753 5.76538 2.96636C5.77655 2.95519 5.79331 2.9496 5.81565 2.9496C6.84359 2.54737 7.90504 2.34625 9.00001 2.34625C11.3464 2.34625 13.3576 3.17306 15.0335 4.8267C15.0335 4.8267 15.0447 4.83787 15.0671 4.86021C15.0894 4.88256 15.1006 4.89373 15.1006 4.89373C15.8827 5.6982 16.486 6.6144 16.9106 7.64234C16.933 7.66468 16.9497 7.68144 16.9609 7.69262C16.9721 7.70379 16.9777 7.72055 16.9777 7.7429ZM15.3687 15.7876C15.7263 15.3183 16.0279 14.8267 16.2738 14.3127L15.4693 13.944C15.2905 13.877 15.2458 13.7541 15.3352 13.5753C15.4022 13.4189 15.5252 13.3742 15.7039 13.4412L16.4749 13.7764C16.7877 12.9496 16.9665 12.0893 17.0112 11.1954H15C14.8212 11.1954 14.7319 11.1004 14.7319 10.9105C14.7319 10.7206 14.8212 10.6256 15 10.6256H17.0112C16.9665 9.77642 16.7989 8.96077 16.5084 8.17865L15.7374 8.48033C15.7151 8.48033 15.6927 8.48591 15.6704 8.49709C15.6481 8.50826 15.6369 8.51385 15.6369 8.51385C15.5028 8.51385 15.4134 8.45798 15.3687 8.34625C15.3017 8.16748 15.3576 8.04457 15.5363 7.97753L16.3073 7.67586C15.9497 6.84904 15.4693 6.11161 14.8659 5.46357L14.2626 6.06692C14.1955 6.11161 14.1285 6.13396 14.0615 6.13396C13.9944 6.13396 13.9274 6.11161 13.8603 6.06692C13.7263 5.93284 13.7263 5.79876 13.8603 5.66468L14.4637 5.06133C13.838 4.48033 13.1453 4.01105 12.3855 3.65351L12.0168 4.45798C11.9944 4.56971 11.9162 4.62558 11.7821 4.62558C11.7151 4.62558 11.6704 4.6144 11.6481 4.59206C11.4916 4.52502 11.4469 4.40211 11.514 4.22334L11.8492 3.45239C11.0224 3.13954 10.1732 2.96077 9.30169 2.91608V4.92725C9.30169 5.10602 9.20113 5.19541 9.00001 5.19541C8.79889 5.19541 8.69834 5.10602 8.69834 4.92725V2.91608C7.87152 2.96077 7.05588 3.12837 6.25141 3.41887L6.55308 4.18982C6.64247 4.36859 6.59778 4.4915 6.41901 4.55854C6.37431 4.55854 6.34079 4.55854 6.31845 4.55854C6.16202 4.55854 6.07264 4.50267 6.05029 4.39094L5.74862 3.61999C4.9218 3.97753 4.18437 4.45798 3.53632 5.06133L4.13968 5.66468C4.27376 5.79876 4.27376 5.93284 4.13968 6.06692C4.07264 6.11161 4.0056 6.13396 3.93856 6.13396C3.87152 6.13396 3.80448 6.11161 3.73744 6.06692L3.13409 5.46357C2.57543 6.08926 2.10616 6.782 1.72627 7.54178L2.53074 7.87697C2.70951 7.94401 2.7542 8.07809 2.66482 8.27921C2.62012 8.39094 2.54191 8.44681 2.43018 8.44681C2.36314 8.44681 2.31845 8.43563 2.2961 8.41329L1.52515 8.07809C1.2123 8.90491 1.03353 9.75407 0.988839 10.6256H3.00001C3.17878 10.6256 3.26817 10.7206 3.26817 10.9105C3.26817 11.1004 3.17878 11.1954 3.00001 11.1954H0.988839C1.03353 12.0669 1.20113 12.8937 1.49163 13.6759L2.26258 13.3407C2.44135 13.2736 2.56426 13.3295 2.6313 13.5083C2.69834 13.687 2.64247 13.8099 2.4637 13.877L1.69275 14.1787C1.93856 14.7597 2.26258 15.296 2.66482 15.7876H15.3687Z" fill="#A0A0A0"/>
</svg>
