<svg width="21" height="21" viewBox="0 0 21 21" fill="none" xmlns="http://www.w3.org/2000/svg">
<path fill-rule="evenodd" clip-rule="evenodd" d="M6.7831 2.37399C6.79322 2.38074 6.80339 2.38752 6.81358 2.39431L15.7507 8.35239C16.0093 8.52475 16.2491 8.68457 16.4332 8.83308C16.6254 8.98806 16.8519 9.20298 16.9823 9.51739C17.1547 9.93296 17.1547 10.4 16.9823 10.8156C16.8519 11.13 16.6254 11.3449 16.4332 11.4999C16.2491 11.6484 16.0093 11.8082 15.7507 11.9805L6.78312 17.9589C6.46704 18.1697 6.18281 18.3592 5.94164 18.4899C5.70029 18.6207 5.36902 18.7702 4.98237 18.7471C4.4878 18.7176 4.03093 18.473 3.73203 18.0779C3.49834 17.769 3.43894 17.4105 3.4139 17.1371C3.38887 16.8639 3.38889 16.5224 3.38892 16.1425L3.38892 4.22714C3.38892 4.21488 3.38892 4.20267 3.38892 4.1905C3.38889 3.81061 3.38887 3.46901 3.4139 3.19585C3.43894 2.92248 3.49834 2.56394 3.73203 2.25504C4.03093 1.85991 4.4878 1.6154 4.98237 1.58587C5.36902 1.56279 5.70029 1.71225 5.94164 1.84304C6.18281 1.97374 6.46702 2.16324 6.7831 2.37399Z" fill="white"/>
</svg>
