<svg width="50" height="50" viewBox="0 0 50 50" fill="none" xmlns="http://www.w3.org/2000/svg">
<rect width="50" height="50" rx="25" fill="#FFF4DB"/>
<g clip-path="url(#clip0_24_807)">
<path d="M21.6672 32.6081C21.1315 32.6081 20.6328 32.3679 20.2989 31.9492L19.1269 30.4795L18.0957 29.9829L15.4034 35.398C15.2684 35.6695 15.2836 35.9916 15.4436 36.2492C15.6032 36.5063 15.8844 36.6626 16.1869 36.6626H16.1888L18.6862 36.6569L20.1891 38.6514C20.3553 38.872 20.6146 38.9999 20.8878 38.9998C20.9145 38.9998 20.9415 38.9986 20.9684 38.9961C21.2704 38.9682 21.5364 38.7859 21.6714 38.5144L24.4029 33.0204L23.5469 32.6081H21.6672Z" fill="#FFB611"/>
<path d="M36.5965 35.398L33.9042 29.9829L32.873 30.4795L31.7009 31.9493C31.3671 32.3679 30.8684 32.6081 30.3327 32.6081H28.4529L27.5969 33.0204L30.3285 38.5144C30.4635 38.7859 30.7295 38.9682 31.0314 38.9961C31.0584 38.9986 31.0853 38.9998 31.1121 38.9998C31.3851 38.9998 31.6446 38.872 31.8108 38.6514L33.3136 36.6569L35.811 36.6626H35.813C36.1154 36.6626 36.3966 36.5063 36.5562 36.2492C36.7162 35.9916 36.7315 35.6695 36.5965 35.398Z" fill="#FFB611"/>
<path d="M30.3328 31.7333C30.599 31.7333 30.8509 31.6121 31.0169 31.4039L32.3134 29.778L34.187 28.8758C34.427 28.7602 34.6012 28.5417 34.6605 28.2821L35.1232 26.2547L36.4198 24.6288C36.5858 24.4206 36.648 24.1482 36.5887 23.8886L36.126 21.8612L36.5887 19.8338C36.648 19.5741 36.5858 19.3017 36.4198 19.0935L35.1232 17.4677L34.6605 15.4402C34.6012 15.1806 34.427 14.9622 34.187 14.8466L32.3134 13.9443L31.0169 12.3185C30.8508 12.1103 30.599 11.989 30.3328 11.989H28.2532L26.3796 11.0866C26.1396 10.9711 25.8602 10.9711 25.6202 11.0866L23.7466 11.9889H21.6671C21.4008 11.9889 21.149 12.1102 20.983 12.3184L19.6864 13.9442L17.8128 14.8465C17.5729 14.9621 17.3987 15.1805 17.3394 15.4401L16.8766 17.4676L15.5801 19.0934C15.414 19.3016 15.3518 19.574 15.4111 19.8337L15.8738 21.8611L15.4111 23.8885C15.3519 24.1481 15.414 24.4205 15.5801 24.6287L16.8766 26.2546L17.3394 28.282C17.3986 28.5416 17.5729 28.7601 17.8128 28.8756L19.6864 29.7779L20.983 31.4038C21.149 31.612 21.4008 31.7332 21.6671 31.7332H23.7466L25.6202 32.6355C25.7402 32.6933 25.8701 32.7221 25.9999 32.7221C26.1297 32.7221 26.2596 32.6933 26.3795 32.6355L28.2531 31.7332H30.3327L30.3328 31.7333ZM25.9999 29.5174C21.7783 29.5174 18.3437 26.0828 18.3437 21.8612C18.3437 17.6395 21.7783 14.2049 25.9999 14.2049C30.2216 14.2049 33.6562 17.6395 33.6562 21.8612C33.6562 26.0828 30.2216 29.5174 25.9999 29.5174Z" fill="#FFB611"/>
<path d="M26 15.0801C22.2608 15.0801 19.2188 18.1221 19.2188 21.8613C19.2188 25.6005 22.2608 28.6426 26 28.6426C29.7392 28.6426 32.7812 25.6005 32.7812 21.8613C32.7812 18.1221 29.7392 15.0801 26 15.0801ZM26.1812 23.8689C26.0113 24.0388 25.7873 24.1252 25.5623 24.1252C25.3697 24.1252 25.1765 24.062 25.0159 23.9335L22.8284 22.1835L23.9216 20.817L25.4975 22.0778L28.0063 19.569L29.2437 20.8065L26.1812 23.869V23.8689Z" fill="#FFB611"/>
</g>
<defs>
<clipPath id="clip0_24_807">
<rect width="28" height="28" fill="white" transform="translate(12 11)"/>
</clipPath>
</defs>
</svg>
