<svg width="18" height="18" viewBox="0 0 18 18" fill="none" xmlns="http://www.w3.org/2000/svg">
<path d="M8.69834 7.20658C7.93856 6.62558 7.55867 5.8658 7.55867 4.92725C7.55867 4.39094 7.69834 3.89373 7.97767 3.43563C8.257 2.97753 8.65364 2.62558 9.16761 2.37977C9.23465 2.33507 9.32403 2.33507 9.43577 2.37977C9.52515 2.46915 9.56985 2.55854 9.56985 2.64792V4.92725H10.7095V2.64792C10.7095 2.53619 10.7542 2.45239 10.8436 2.39653C10.933 2.34066 11.0224 2.33507 11.1117 2.37977C11.6034 2.62558 11.9888 2.97753 12.2682 3.43563C12.5475 3.89373 12.6872 4.39094 12.6872 4.92725C12.6872 5.8658 12.3073 6.62558 11.5475 7.20658V10.6591C11.5475 11.039 11.4134 11.3686 11.1453 11.6479C10.8771 11.9273 10.5419 12.0669 10.1397 12.0669C9.73744 12.0669 9.39666 11.9273 9.11733 11.6479C8.838 11.3686 8.69834 11.039 8.69834 10.6591V7.20658ZM9.00001 3.15072C8.41901 3.61999 8.1285 4.21217 8.1285 4.92725C8.1285 5.75407 8.47487 6.39094 9.16761 6.83787C9.23465 6.90491 9.26817 6.98312 9.26817 7.0725V10.6591C9.26817 10.8826 9.35197 11.0781 9.51957 11.2457C9.68716 11.4133 9.89387 11.4971 10.1397 11.4971C10.3855 11.4971 10.5866 11.4133 10.743 11.2457C10.8995 11.0781 10.9777 10.8826 10.9777 10.6591V7.0725C10.9777 7.00547 11.0224 6.92725 11.1117 6.83787C11.7821 6.36859 12.1173 5.73172 12.1173 4.92725C12.1173 4.21217 11.838 3.61999 11.2793 3.15072V5.22893C11.2793 5.4077 11.1788 5.49709 10.9777 5.49709H9.26817C9.0894 5.49709 9.00001 5.4077 9.00001 5.22893V3.15072ZM16.2402 10.0557C16.486 10.0557 16.7095 10.1228 16.9106 10.2569C17.1117 10.3909 17.2738 10.5641 17.3967 10.7764C17.5196 10.9887 17.581 11.2178 17.581 11.4636V13.4747C17.5587 13.877 17.4078 14.2178 17.1285 14.4971C16.8492 14.7764 16.5196 14.9161 16.1397 14.9161H15.5363C15.4693 15.3407 15.2738 15.687 14.9497 15.9552C14.6257 16.2233 14.257 16.3574 13.8436 16.3574C13.4302 16.3574 13.0615 16.2233 12.7374 15.9552C12.4134 15.687 12.2179 15.3407 12.1509 14.9161H6.38549C6.31845 15.3407 6.1285 15.687 5.81565 15.9552C5.50281 16.2233 5.13409 16.3574 4.70951 16.3574C4.28493 16.3574 3.91063 16.2233 3.5866 15.9552C3.26258 15.687 3.06705 15.3407 3.00001 14.9161H1.86035C1.45811 14.9161 1.11733 14.782 0.838001 14.5138C0.558671 14.2457 0.419006 13.9105 0.419006 13.5083V12.201C0.419006 11.8435 0.541911 11.5306 0.787721 11.2624C1.03353 10.9943 1.32403 10.8379 1.65923 10.7932L3.40225 10.5585C4.54191 10.4245 5.50281 9.92167 6.28493 9.05016L6.68716 8.58088C7.0447 8.1563 7.40225 7.88815 7.75979 7.77642C7.93856 7.68703 8.06146 7.7429 8.1285 7.94401C8.19554 8.10044 8.13968 8.22334 7.96091 8.31273C7.69275 8.42446 7.41342 8.64792 7.12292 8.98312L6.68716 9.48591C5.838 10.4468 4.76538 11.0055 3.46929 11.1619L1.72627 11.3965C1.52515 11.3965 1.35197 11.4803 1.20672 11.6479C1.06146 11.8155 0.988839 11.9999 0.988839 12.201V13.5083C0.988839 13.7541 1.07264 13.9552 1.24024 14.1116C1.40783 14.268 1.61454 14.3462 1.86035 14.3462H3.00001C3.11174 13.7652 3.44694 13.3407 4.0056 13.0725C4.02795 13.0725 4.03912 13.0725 4.03912 13.0725C4.06146 13.0502 4.08381 13.039 4.10616 13.039H4.13968C4.16202 13.0166 4.1732 13.0055 4.1732 13.0055H4.20672C4.22906 13.0055 4.25141 12.9943 4.27376 12.9719C4.2961 12.9719 4.31845 12.9719 4.34079 12.9719H4.37431C4.39666 12.9719 4.41901 12.9608 4.44135 12.9384C4.4637 12.9384 4.48605 12.9384 4.50839 12.9384C4.53074 12.9384 4.54191 12.9384 4.54191 12.9384C4.56426 12.9384 4.5866 12.9384 4.60895 12.9384C4.65364 12.9384 4.68716 12.9384 4.70951 12.9384C4.73186 12.9384 4.7542 12.9384 4.77655 12.9384C4.77655 12.9384 4.78772 12.9384 4.81007 12.9384C4.83241 12.9384 4.85476 12.9384 4.87711 12.9384C4.9218 12.9384 4.94415 12.9384 4.94415 12.9384C4.94415 12.9384 4.95532 12.9384 4.97767 12.9384C5.00001 12.9608 5.02236 12.9719 5.0447 12.9719C5.06705 12.9719 5.0894 12.9719 5.11174 12.9719H5.14526C5.16761 12.9943 5.18996 13.0055 5.2123 13.0055C5.23465 13.0055 5.257 13.0111 5.27934 13.0222C5.30169 13.0334 5.32403 13.0502 5.34638 13.0725C5.36873 13.0725 5.3799 13.0725 5.3799 13.0725C5.3799 13.0725 5.39107 13.0725 5.41342 13.0725C5.97208 13.3407 6.2961 13.7652 6.38549 14.3462H12.1509C12.2626 13.7652 12.5866 13.3407 13.1229 13.0725C13.1453 13.0725 13.162 13.0725 13.1732 13.0725C13.1844 13.0725 13.19 13.0725 13.19 13.0725C13.2123 13.0502 13.2346 13.039 13.257 13.039C13.2793 13.0166 13.3017 13.0055 13.324 13.0055C13.3464 13.0055 13.3687 12.9943 13.3911 12.9719H13.4246C13.4469 12.9719 13.4693 12.9719 13.4916 12.9719C13.514 12.9719 13.5363 12.9608 13.5587 12.9384C13.5587 12.9384 13.5698 12.9384 13.5922 12.9384C13.6145 12.9384 13.6369 12.9384 13.6592 12.9384C13.6816 12.9384 13.7039 12.9384 13.7263 12.9384C13.7263 12.9384 13.7374 12.9384 13.7598 12.9384C13.7821 12.9384 13.8101 12.9384 13.8436 12.9384C13.8771 12.9384 13.905 12.9384 13.9274 12.9384C13.9274 12.9384 13.9386 12.9384 13.9609 12.9384C13.9833 12.9384 13.9944 12.9384 13.9944 12.9384C14.0168 12.9384 14.0279 12.9384 14.0279 12.9384C14.0503 12.9384 14.0726 12.9384 14.095 12.9384C14.095 12.9384 14.1062 12.9384 14.1285 12.9384C14.1509 12.9608 14.162 12.9719 14.162 12.9719H14.1955C14.2179 12.9719 14.2402 12.9719 14.2626 12.9719C14.2849 12.9943 14.3073 13.0055 14.3296 13.0055H14.3631C14.3855 13.0055 14.4078 13.0111 14.4302 13.0222C14.4525 13.0334 14.4749 13.0502 14.4972 13.0725C14.4972 13.0725 14.5028 13.0725 14.514 13.0725C14.5252 13.0725 14.5307 13.0725 14.5307 13.0725C15.0894 13.3407 15.4246 13.7652 15.5363 14.3462H16.1397C16.3631 14.3462 16.5587 14.268 16.7263 14.1116C16.8939 13.9552 16.9777 13.7541 16.9777 13.5083V11.4971C16.9777 11.2736 16.8995 11.0781 16.743 10.9105C16.5866 10.7429 16.3967 10.6591 16.1732 10.6591C15.2123 10.5921 14.4972 10.1787 14.0279 9.41887L13.9609 9.2848C13.581 8.68144 13.0559 8.36859 12.3855 8.34625C12.1844 8.34625 12.095 8.23452 12.1173 8.01105C12.1173 7.80994 12.2291 7.73172 12.4525 7.77642C13.3464 7.82111 14.0168 8.21217 14.4637 8.9496L14.5643 9.1172C14.9218 9.67586 15.4805 9.98871 16.2402 10.0557ZM3.90504 15.4524C3.90504 15.4524 3.96091 15.5083 4.07264 15.62C4.18437 15.7317 4.39666 15.7876 4.70951 15.7876C5.02236 15.7876 5.29051 15.6759 5.51398 15.4524C5.73744 15.2289 5.84917 14.9608 5.84917 14.6479C5.84917 14.3351 5.73744 14.0669 5.51398 13.8435C5.29051 13.62 5.02236 13.5083 4.70951 13.5083C4.39666 13.5083 4.1285 13.62 3.90504 13.8435C3.68158 14.0669 3.56984 14.3351 3.56984 14.6479C3.56984 14.9608 3.68158 15.2289 3.90504 15.4524ZM13.8268 15.7876C14.0503 15.7876 14.2458 15.7373 14.4134 15.6368C14.581 15.5362 14.7151 15.3965 14.8157 15.2178C14.9162 15.039 14.9665 14.849 14.9665 14.6479C14.9665 14.3351 14.8548 14.0669 14.6313 13.8435C14.4078 13.62 14.1397 13.5083 13.8268 13.5083C13.514 13.5083 13.2458 13.62 13.0224 13.8435C12.7989 14.0669 12.6872 14.3351 12.6872 14.6479C12.6872 14.9608 12.7989 15.2289 13.0224 15.4524C13.2458 15.6759 13.514 15.7876 13.8268 15.7876Z" fill="#A0A0A0"/>
</svg>
