<svg width="50" height="50" viewBox="0 0 50 50" fill="none" xmlns="http://www.w3.org/2000/svg">
<rect width="50" height="50" rx="25" fill="#FFF4DB"/>
<path d="M33.4376 38.1875C33.1976 38.1875 32.9576 38.0956 32.7747 37.9128L30.8997 36.0378C30.6316 35.7697 30.551 35.3666 30.6963 35.0159C30.8416 34.6653 31.1838 34.4375 31.5626 34.4375H38.1251C38.6426 34.4375 39.0626 34.8566 39.0626 35.375C39.0626 35.8934 38.6426 36.3125 38.1251 36.3125H33.8257L34.1004 36.5872C34.4669 36.9537 34.4669 37.5463 34.1004 37.9128C33.9176 38.0956 33.6776 38.1875 33.4376 38.1875Z" fill="#FFB611"/>
<path d="M38.125 32.5627H31.5625C31.045 32.5627 30.625 32.1437 30.625 31.6252C30.625 31.1068 31.045 30.6877 31.5625 30.6877H35.8619L35.5872 30.413C35.2206 30.0465 35.2206 29.454 35.5872 29.0874C35.9537 28.7209 36.5463 28.7209 36.9128 29.0874L38.7878 30.9624C39.0559 31.2305 39.1366 31.6337 38.9912 31.9843C38.8459 32.3349 38.5037 32.5627 38.125 32.5627Z" fill="#FFB611"/>
<path d="M28.9638 34.2997C29.0894 33.9969 29.2666 33.7297 29.4775 33.4953C29.0303 32.9975 28.75 32.3459 28.75 31.625C28.75 30.0744 30.0119 28.8125 31.5625 28.8125H33.5969C33.7347 28.4216 33.9597 28.0634 34.2616 27.7616C34.7922 27.2309 35.4991 26.9375 36.25 26.9375C36.9513 26.9375 37.6084 27.2019 38.125 27.6678V20.375C38.125 17.7866 36.0259 15.6875 33.4375 15.6875H15.625C13.0366 15.6875 10.9375 17.7866 10.9375 20.375V29.75C10.9375 32.3384 13.0366 34.4375 15.625 34.4375H28.9188C28.9347 34.3916 28.945 34.3447 28.9638 34.2997ZM32.5 18.5H33.9062C34.6816 18.5 35.3125 19.1309 35.3125 19.9062V21.3125C35.3125 21.83 34.8925 22.25 34.375 22.25C33.8575 22.25 33.4375 21.83 33.4375 21.3125V20.375H32.5C31.9825 20.375 31.5625 19.955 31.5625 19.4375C31.5625 18.92 31.9825 18.5 32.5 18.5ZM16.5625 31.625H15.1562C14.3809 31.625 13.75 30.9941 13.75 30.2188V28.8125C13.75 28.2941 14.17 27.875 14.6875 27.875C15.205 27.875 15.625 28.2941 15.625 28.8125V29.75H16.5625C17.08 29.75 17.5 30.1691 17.5 30.6875C17.5 31.2059 17.08 31.625 16.5625 31.625ZM16.5625 20.375H15.625V21.3125C15.625 21.83 15.205 22.25 14.6875 22.25C14.17 22.25 13.75 21.83 13.75 21.3125V19.9062C13.75 19.1309 14.3809 18.5 15.1562 18.5H16.5625C17.08 18.5 17.5 18.92 17.5 19.4375C17.5 19.955 17.08 20.375 16.5625 20.375ZM24.5312 28.8125C22.4603 28.8125 20.7812 27.1334 20.7812 25.0625C20.7812 22.9916 22.4603 21.3125 24.5312 21.3125C26.6022 21.3125 28.2812 22.9916 28.2812 25.0625C28.2812 27.1334 26.6022 28.8125 24.5312 28.8125Z" fill="#FFB611"/>
</svg>
