<svg width="18" height="18" viewBox="0 0 18 18" fill="none" xmlns="http://www.w3.org/2000/svg">
<path fill-rule="evenodd" clip-rule="evenodd" d="M9 3.0001C5.68629 3.0001 3 5.68639 3 9.0001C3 12.3138 5.68629 15.0001 9 15.0001C12.3137 15.0001 15 12.3138 15 9.0001C15 5.68639 12.3137 3.0001 9 3.0001ZM1.5 9.0001C1.5 4.85796 4.85786 1.5001 9 1.5001C13.1421 1.5001 16.5 4.85796 16.5 9.0001C16.5 13.1422 13.1421 16.5001 9 16.5001C4.85786 16.5001 1.5 13.1422 1.5 9.0001Z" fill="white"/>
<path fill-rule="evenodd" clip-rule="evenodd" d="M1.95 6.7501C1.95 6.33589 2.28579 6.0001 2.7 6.0001H15.3C15.7142 6.0001 16.05 6.33589 16.05 6.7501C16.05 7.16431 15.7142 7.5001 15.3 7.5001H2.7C2.28579 7.5001 1.95 7.16431 1.95 6.7501Z" fill="white"/>
<path fill-rule="evenodd" clip-rule="evenodd" d="M1.95 11.2501C1.95 10.8359 2.28579 10.5001 2.7 10.5001H15.3C15.7142 10.5001 16.05 10.8359 16.05 11.2501C16.05 11.6643 15.7142 12.0001 15.3 12.0001H2.7C2.28579 12.0001 1.95 11.6643 1.95 11.2501Z" fill="white"/>
<path fill-rule="evenodd" clip-rule="evenodd" d="M9.02206 1.61383C9.37346 1.83312 9.48056 2.29576 9.26127 2.64716C8.0721 4.55277 7.44165 6.75389 7.44165 9.0001C7.44165 11.2463 8.0721 13.4474 9.26127 15.353C9.48056 15.7044 9.37346 16.1671 9.02206 16.3864C8.67065 16.6057 8.20802 16.4986 7.98873 16.1472C6.65091 14.0034 5.94165 11.5271 5.94165 9.0001C5.94165 6.47311 6.65091 3.99685 7.98873 1.85304C8.20802 1.50164 8.67065 1.39454 9.02206 1.61383Z" fill="white"/>
<path fill-rule="evenodd" clip-rule="evenodd" d="M8.97794 1.61383C9.32935 1.39454 9.79198 1.50164 10.0113 1.85304C11.3491 3.99685 12.0583 6.47311 12.0583 9.0001C12.0583 11.5271 11.3491 14.0034 10.0113 16.1472C9.79198 16.4986 9.32935 16.6057 8.97794 16.3864C8.62654 16.1671 8.51944 15.7044 8.73873 15.353C9.9279 13.4474 10.5583 11.2463 10.5583 9.0001C10.5583 6.75389 9.9279 4.55277 8.73873 2.64716C8.51944 2.29576 8.62654 1.83312 8.97794 1.61383Z" fill="white"/>
</svg>
