<svg width="175" height="54" viewBox="0 0 175 54" fill="none" xmlns="http://www.w3.org/2000/svg">
<path d="M49.2678 18.832C48.3345 18.832 47.5691 18.5613 46.9718 18.02C46.3931 17.4787 46.1038 16.732 46.1038 15.78C46.1038 14.8467 46.3651 14.1 46.8878 13.54C47.4291 12.9613 48.2225 12.672 49.2678 12.672H61.3358C62.3811 12.672 63.1651 12.9613 63.6878 13.54C64.2291 14.1 64.4998 14.8467 64.4998 15.78C64.4998 16.732 64.2011 17.4787 63.6038 18.02C63.0251 18.5613 62.2691 18.832 61.3358 18.832C60.7011 18.832 60.1878 18.7667 59.7958 18.636C59.4225 18.4867 59.1145 18.3187 58.8718 18.132C58.6291 17.9267 58.3958 17.7587 58.1718 17.628C57.9478 17.4787 57.6678 17.404 57.3318 17.404L57.0798 17.908C57.1545 18.076 57.2851 18.3187 57.4718 18.636C57.6585 18.9347 57.8358 19.3733 58.0038 19.952C58.1718 20.512 58.2558 21.2773 58.2558 22.248V30.34C58.2558 31.1053 57.9665 31.74 57.3878 32.244C56.8278 32.748 56.1371 33 55.3158 33C54.4758 33 53.7665 32.748 53.1878 32.244C52.6278 31.74 52.3478 31.1053 52.3478 30.34V22.248C52.3478 21.2773 52.4318 20.512 52.5998 19.952C52.7678 19.3733 52.9451 18.9347 53.1318 18.636C53.3371 18.3187 53.4771 18.076 53.5518 17.908L53.2718 17.404C52.9358 17.404 52.6558 17.4787 52.4318 17.628C52.2078 17.7587 51.9745 17.9267 51.7318 18.132C51.4891 18.3187 51.1811 18.4867 50.8078 18.636C50.4345 18.7667 49.9211 18.832 49.2678 18.832ZM66.0311 33C65.1537 33 64.4724 32.748 63.9871 32.244C63.5017 31.74 63.2591 31.1053 63.2591 30.34V21.156C63.2591 20.3533 63.5017 19.6907 63.9871 19.168C64.4724 18.6267 65.1537 18.356 66.0311 18.356C66.9084 18.356 67.5804 18.6267 68.0471 19.168C68.5137 19.6907 68.7471 20.3347 68.7471 21.1V21.688H69.2791C69.3537 20.6987 69.7271 19.8867 70.3991 19.252C71.0711 18.6173 71.8644 18.3 72.7791 18.3C73.6937 18.3 74.4124 18.58 74.9351 19.14C75.4764 19.7 75.7471 20.4467 75.7471 21.38C75.7471 22.2573 75.4951 22.9853 74.9911 23.564C74.4871 24.1427 73.8431 24.432 73.0591 24.432C72.4057 24.432 71.8551 24.2827 71.4071 23.984C70.9777 23.6667 70.6604 23.3027 70.4551 22.892C69.8577 22.8173 69.4191 22.8827 69.1391 23.088C68.8777 23.2747 68.7471 23.6573 68.7471 24.236V30.34C68.7471 31.1053 68.5137 31.74 68.0471 32.244C67.5804 32.748 66.9084 33 66.0311 33ZM82.3669 33C81.0602 33 79.9962 32.5053 79.1749 31.516C78.3535 30.5267 77.9335 29.136 77.9149 27.344L77.8869 20.876C77.8869 20.0733 78.1295 19.448 78.6149 19C79.1189 18.5333 79.8002 18.3 80.6589 18.3C81.4802 18.3 82.1429 18.5333 82.6469 19C83.1509 19.448 83.4029 20.0733 83.4029 20.876V26.728C83.4029 28.128 83.9535 28.828 85.0549 28.828C85.5962 28.828 85.9602 28.632 86.1469 28.24C86.3335 27.8293 86.4269 27.3067 86.4269 26.672V20.876C86.4269 20.148 86.6789 19.5413 87.1829 19.056C87.6869 18.552 88.3402 18.3 89.1429 18.3C89.9829 18.3 90.6269 18.552 91.0749 19.056C91.5415 19.5413 91.7749 20.148 91.7749 20.876V30.06C91.7749 30.956 91.5695 31.6747 91.1589 32.216C90.7669 32.7387 90.1229 33 89.2269 33C88.3495 33 87.6589 32.7387 87.1549 32.216C86.6695 31.6747 86.4269 30.956 86.4269 30.06V29.584H85.9229C85.9229 30.6667 85.5962 31.5067 84.9429 32.104C84.3082 32.7013 83.4495 33 82.3669 33ZM94.2347 25.72C94.2347 24.2453 94.524 22.948 95.1027 21.828C95.7 20.708 96.54 19.8307 97.6227 19.196C98.724 18.5613 100.031 18.244 101.543 18.244C102.719 18.244 103.773 18.4587 104.707 18.888C105.659 19.3173 106.405 19.896 106.947 20.624C107.488 21.3333 107.759 22.1173 107.759 22.976C107.759 23.872 107.497 24.5067 106.975 24.88C106.452 25.2533 105.677 25.44 104.651 25.44H98.7707C98.7707 25.9253 98.9574 26.3267 99.3307 26.644C99.7227 26.9613 100.376 27.12 101.291 27.12C101.757 27.12 102.187 27.0733 102.579 26.98C102.989 26.8867 103.4 26.8027 103.811 26.728C104.24 26.6347 104.716 26.588 105.239 26.588C105.985 26.588 106.601 26.8587 107.087 27.4C107.572 27.9227 107.815 28.6507 107.815 29.584C107.815 30.6853 107.245 31.544 106.107 32.16C104.987 32.776 103.512 33.084 101.683 33.084C100.395 33.084 99.1814 32.832 98.0427 32.328C96.9227 31.824 96.008 31.0307 95.2987 29.948C94.5894 28.8467 94.2347 27.4373 94.2347 25.72ZM103.307 24.516C103.587 24.516 103.68 24.3853 103.587 24.124C103.512 23.8627 103.288 23.592 102.915 23.312C102.541 23.032 102 22.892 101.291 22.892C100.469 22.892 99.8534 23.0693 99.4427 23.424C99.0507 23.7787 98.8547 24.1427 98.8547 24.516H103.307ZM130.132 33C129.199 33 128.462 32.72 127.92 32.16C127.379 31.5813 127.09 30.8347 127.052 29.92C126.978 28.3333 126.576 27.2133 125.848 26.56C125.139 25.888 124.187 25.552 122.992 25.552H122.432V30.032C122.432 31.0027 122.171 31.74 121.648 32.244C121.126 32.748 120.435 33 119.576 33C118.662 33 117.943 32.748 117.42 32.244C116.898 31.74 116.636 31.0027 116.636 30.032V26.084C116.636 24.1053 116.926 22.6027 117.504 21.576C118.102 20.5493 118.858 19.812 119.772 19.364L119.632 18.832H119.184C118.326 18.832 117.644 18.5613 117.14 18.02C116.655 17.46 116.394 16.704 116.356 15.752C116.338 14.8187 116.59 14.0627 117.112 13.484C117.635 12.9053 118.326 12.616 119.184 12.616H126.324C128.322 12.616 129.936 13.1013 131.168 14.072C132.4 15.0427 133.016 16.592 133.016 18.72C133.016 19.8213 132.83 20.7453 132.456 21.492C132.083 22.22 131.607 22.78 131.028 23.172C130.45 23.564 129.843 23.7973 129.208 23.872V24.236C130.366 24.516 131.318 25.132 132.064 26.084C132.83 27.036 133.212 28.3147 133.212 29.92C133.212 30.9467 132.932 31.7213 132.372 32.244C131.831 32.748 131.084 33 130.132 33ZM122.292 21.268C122.292 21.6787 122.367 21.9493 122.516 22.08C122.666 22.2107 122.946 22.276 123.356 22.276H125.988C126.772 22.276 127.342 22.0987 127.696 21.744C128.051 21.3893 128.228 20.8947 128.228 20.26C128.228 19.6067 128.051 19.1027 127.696 18.748C127.342 18.3933 126.772 18.216 125.988 18.216H123.356C122.946 18.216 122.666 18.272 122.516 18.384C122.367 18.496 122.292 18.7667 122.292 19.196V21.268ZM135.356 15.108C135.356 14.3053 135.599 13.6613 136.084 13.176C136.588 12.672 137.279 12.42 138.156 12.42C139.09 12.42 139.78 12.6627 140.228 13.148C140.695 13.6333 140.928 14.2773 140.928 15.08C140.928 15.864 140.695 16.4987 140.228 16.984C139.78 17.4507 139.09 17.684 138.156 17.684C137.242 17.684 136.542 17.4507 136.056 16.984C135.59 16.4987 135.356 15.8733 135.356 15.108ZM138.156 33C137.279 33 136.626 32.7573 136.196 32.272C135.767 31.7867 135.552 31.18 135.552 30.452V20.876C135.552 20.0733 135.767 19.4387 136.196 18.972C136.626 18.5053 137.279 18.272 138.156 18.272C139.034 18.272 139.687 18.5053 140.116 18.972C140.564 19.4387 140.788 20.0547 140.788 20.82V30.452C140.788 31.18 140.555 31.7867 140.088 32.272C139.64 32.7573 138.996 33 138.156 33ZM148.436 33C145.038 33 143.34 30.4987 143.34 25.496C143.34 23.3307 143.76 21.604 144.6 20.316C145.44 19.0093 146.7 18.356 148.38 18.356C149.294 18.356 150.032 18.5427 150.592 18.916C151.17 19.2893 151.618 19.8027 151.936 20.456C152.272 21.0907 152.514 21.828 152.664 22.668L152.748 22.64V14.156C152.748 13.3907 152.972 12.7467 153.42 12.224C153.886 11.6827 154.558 11.412 155.436 11.412C156.294 11.412 156.929 11.6827 157.34 12.224C157.769 12.7467 157.984 13.4093 157.984 14.212V26.812C157.984 27.4467 158.03 28.0347 158.124 28.576C158.236 29.0987 158.32 29.6213 158.376 30.144C158.432 30.8533 158.282 31.4693 157.928 31.992C157.592 32.496 156.985 32.8227 156.108 32.972C154.969 33.1587 154.12 32.9627 153.56 32.384C153.018 31.8053 152.748 30.9467 152.748 29.808V28.772H152.216C152.216 30.1347 151.87 31.18 151.18 31.908C150.508 32.636 149.593 33 148.436 33ZM148.016 25.244C148.016 25.8227 148.193 26.252 148.548 26.532C148.902 26.812 149.537 26.952 150.452 26.952C151.385 26.952 152.029 26.812 152.384 26.532C152.738 26.252 152.916 25.8227 152.916 25.244C152.916 24.6467 152.738 24.2173 152.384 23.956C152.048 23.676 151.413 23.536 150.48 23.536C149.546 23.536 148.902 23.676 148.548 23.956C148.193 24.2173 148.016 24.6467 148.016 25.244ZM160.729 25.72C160.729 24.2453 161.019 22.948 161.597 21.828C162.195 20.708 163.035 19.8307 164.117 19.196C165.219 18.5613 166.525 18.244 168.037 18.244C169.213 18.244 170.268 18.4587 171.201 18.888C172.153 19.3173 172.9 19.896 173.441 20.624C173.983 21.3333 174.253 22.1173 174.253 22.976C174.253 23.872 173.992 24.5067 173.469 24.88C172.947 25.2533 172.172 25.44 171.145 25.44H165.265C165.265 25.9253 165.452 26.3267 165.825 26.644C166.217 26.9613 166.871 27.12 167.785 27.12C168.252 27.12 168.681 27.0733 169.073 26.98C169.484 26.8867 169.895 26.8027 170.305 26.728C170.735 26.6347 171.211 26.588 171.733 26.588C172.48 26.588 173.096 26.8587 173.581 27.4C174.067 27.9227 174.309 28.6507 174.309 29.584C174.309 30.6853 173.74 31.544 172.601 32.16C171.481 32.776 170.007 33.084 168.177 33.084C166.889 33.084 165.676 32.832 164.537 32.328C163.417 31.824 162.503 31.0307 161.793 29.948C161.084 28.8467 160.729 27.4373 160.729 25.72ZM169.801 24.516C170.081 24.516 170.175 24.3853 170.081 24.124C170.007 23.8627 169.783 23.592 169.409 23.312C169.036 23.032 168.495 22.892 167.785 22.892C166.964 22.892 166.348 23.0693 165.937 23.424C165.545 23.7787 165.349 24.1427 165.349 24.516H169.801Z" fill="#FFB611"/>
<path d="M48.8218 44.0215C48.7551 44.0215 48.6985 44.0015 48.6518 43.9615C48.6118 43.9148 48.5918 43.8582 48.5918 43.7915V41.4315L46.1818 37.3515C46.1751 37.3315 46.1685 37.3115 46.1618 37.2915C46.1551 37.2715 46.1518 37.2482 46.1518 37.2215C46.1518 37.1682 46.1718 37.1215 46.2118 37.0815C46.2518 37.0415 46.2985 37.0215 46.3518 37.0215H46.8718C46.9318 37.0215 46.9851 37.0382 47.0318 37.0715C47.0785 37.0982 47.1118 37.1382 47.1318 37.1915L49.0818 40.4315L51.0318 37.1915C51.0651 37.1382 51.1018 37.0982 51.1418 37.0715C51.1885 37.0382 51.2418 37.0215 51.3018 37.0215H51.8118C51.8718 37.0215 51.9218 37.0415 51.9618 37.0815C52.0018 37.1215 52.0218 37.1682 52.0218 37.2215C52.0218 37.2482 52.0185 37.2715 52.0118 37.2915C52.0051 37.3115 51.9951 37.3315 51.9818 37.3515L49.5818 41.4315V43.7915C49.5818 43.8582 49.5585 43.9148 49.5118 43.9615C49.4718 44.0015 49.4151 44.0215 49.3418 44.0215H48.8218ZM54.5566 44.1215C54.0499 44.1215 53.6266 44.0248 53.2866 43.8315C52.9466 43.6382 52.6866 43.3715 52.5066 43.0315C52.3266 42.6848 52.2266 42.2915 52.2066 41.8515C52.1999 41.7382 52.1966 41.5948 52.1966 41.4215C52.1966 41.2415 52.1999 41.0982 52.2066 40.9915C52.2266 40.5448 52.3266 40.1515 52.5066 39.8115C52.6932 39.4715 52.9566 39.2048 53.2966 39.0115C53.6366 38.8182 54.0566 38.7215 54.5566 38.7215C55.0566 38.7215 55.4766 38.8182 55.8166 39.0115C56.1566 39.2048 56.4166 39.4715 56.5966 39.8115C56.7832 40.1515 56.8866 40.5448 56.9066 40.9915C56.9132 41.0982 56.9166 41.2415 56.9166 41.4215C56.9166 41.5948 56.9132 41.7382 56.9066 41.8515C56.8866 42.2915 56.7866 42.6848 56.6066 43.0315C56.4266 43.3715 56.1666 43.6382 55.8266 43.8315C55.4866 44.0248 55.0632 44.1215 54.5566 44.1215ZM54.5566 43.3515C54.9699 43.3515 55.2999 43.2215 55.5466 42.9615C55.7932 42.6948 55.9266 42.3082 55.9466 41.8015C55.9532 41.7015 55.9566 41.5748 55.9566 41.4215C55.9566 41.2682 55.9532 41.1415 55.9466 41.0415C55.9266 40.5348 55.7932 40.1515 55.5466 39.8915C55.2999 39.6248 54.9699 39.4915 54.5566 39.4915C54.1432 39.4915 53.8099 39.6248 53.5566 39.8915C53.3099 40.1515 53.1799 40.5348 53.1666 41.0415C53.1599 41.1415 53.1566 41.2682 53.1566 41.4215C53.1566 41.5748 53.1599 41.7015 53.1666 41.8015C53.1799 42.3082 53.3099 42.6948 53.5566 42.9615C53.8099 43.2215 54.1432 43.3515 54.5566 43.3515ZM60.3088 44.1215C59.8821 44.1215 59.5188 44.0282 59.2188 43.8415C58.9254 43.6482 58.7021 43.3815 58.5488 43.0415C58.3954 42.7015 58.3188 42.3115 58.3188 41.8715V39.0515C58.3188 38.9848 58.3388 38.9315 58.3788 38.8915C58.4254 38.8448 58.4821 38.8215 58.5488 38.8215H59.0488C59.1154 38.8215 59.1688 38.8448 59.2088 38.8915C59.2554 38.9315 59.2788 38.9848 59.2788 39.0515V41.8215C59.2788 42.8148 59.7121 43.3115 60.5788 43.3115C60.9921 43.3115 61.3221 43.1815 61.5688 42.9215C61.8221 42.6548 61.9488 42.2882 61.9488 41.8215V39.0515C61.9488 38.9848 61.9688 38.9315 62.0088 38.8915C62.0554 38.8448 62.1121 38.8215 62.1788 38.8215H62.6688C62.7421 38.8215 62.7988 38.8448 62.8388 38.8915C62.8788 38.9315 62.8988 38.9848 62.8988 39.0515V43.7915C62.8988 43.8582 62.8788 43.9148 62.8388 43.9615C62.7988 44.0015 62.7421 44.0215 62.6688 44.0215H62.2088C62.1421 44.0215 62.0854 44.0015 62.0388 43.9615C61.9988 43.9148 61.9788 43.8582 61.9788 43.7915V43.3515C61.7988 43.5848 61.5788 43.7715 61.3188 43.9115C61.0654 44.0515 60.7288 44.1215 60.3088 44.1215ZM64.8144 44.0215C64.7477 44.0215 64.6911 44.0015 64.6444 43.9615C64.6044 43.9148 64.5844 43.8582 64.5844 43.7915V39.0615C64.5844 38.9948 64.6044 38.9382 64.6444 38.8915C64.6911 38.8448 64.7477 38.8215 64.8144 38.8215H65.2744C65.3411 38.8215 65.3977 38.8448 65.4444 38.8915C65.4911 38.9382 65.5144 38.9948 65.5144 39.0615V39.5015C65.6477 39.2748 65.8311 39.1048 66.0644 38.9915C66.2977 38.8782 66.5777 38.8215 66.9044 38.8215H67.3044C67.3711 38.8215 67.4244 38.8448 67.4644 38.8915C67.5044 38.9315 67.5244 38.9848 67.5244 39.0515V39.4615C67.5244 39.5282 67.5044 39.5815 67.4644 39.6215C67.4244 39.6615 67.3711 39.6815 67.3044 39.6815H66.7044C66.3444 39.6815 66.0611 39.7882 65.8544 40.0015C65.6477 40.2082 65.5444 40.4915 65.5444 40.8515V43.7915C65.5444 43.8582 65.5211 43.9148 65.4744 43.9615C65.4277 44.0015 65.3711 44.0215 65.3044 44.0215H64.8144ZM73.21 44.1215C72.87 44.1215 72.5467 44.0815 72.24 44.0015C71.94 43.9148 71.67 43.7848 71.43 43.6115C71.1967 43.4315 71.01 43.2082 70.87 42.9415C70.73 42.6748 70.6533 42.3615 70.64 42.0015C70.64 41.9415 70.66 41.8915 70.7 41.8515C70.74 41.8048 70.7933 41.7815 70.86 41.7815H71.4C71.4733 41.7815 71.53 41.8048 71.57 41.8515C71.6167 41.8915 71.6467 41.9448 71.66 42.0115C71.6867 42.3115 71.7733 42.5548 71.92 42.7415C72.0667 42.9215 72.2533 43.0548 72.48 43.1415C72.7067 43.2282 72.9567 43.2715 73.23 43.2715C73.7367 43.2715 74.1233 43.1048 74.39 42.7715C74.6567 42.4382 74.79 41.9948 74.79 41.4415V37.8915H71.24C71.1733 37.8915 71.1167 37.8715 71.07 37.8315C71.03 37.7848 71.01 37.7282 71.01 37.6615V37.2515C71.01 37.1848 71.03 37.1315 71.07 37.0915C71.1167 37.0448 71.1733 37.0215 71.24 37.0215H75.55C75.6233 37.0215 75.68 37.0448 75.72 37.0915C75.7667 37.1315 75.79 37.1882 75.79 37.2615V41.4615C75.79 42.0015 75.6867 42.4715 75.48 42.8715C75.2733 43.2715 74.98 43.5815 74.6 43.8015C74.22 44.0148 73.7567 44.1215 73.21 44.1215ZM79.6679 44.1215C79.1612 44.1215 78.7379 44.0248 78.3979 43.8315C78.0579 43.6382 77.7979 43.3715 77.6179 43.0315C77.4379 42.6848 77.3379 42.2915 77.3179 41.8515C77.3112 41.7382 77.3079 41.5948 77.3079 41.4215C77.3079 41.2415 77.3112 41.0982 77.3179 40.9915C77.3379 40.5448 77.4379 40.1515 77.6179 39.8115C77.8046 39.4715 78.0679 39.2048 78.4079 39.0115C78.7479 38.8182 79.1679 38.7215 79.6679 38.7215C80.1679 38.7215 80.5879 38.8182 80.9279 39.0115C81.2679 39.2048 81.5279 39.4715 81.7079 39.8115C81.8946 40.1515 81.9979 40.5448 82.0179 40.9915C82.0246 41.0982 82.0279 41.2415 82.0279 41.4215C82.0279 41.5948 82.0246 41.7382 82.0179 41.8515C81.9979 42.2915 81.8979 42.6848 81.7179 43.0315C81.5379 43.3715 81.2779 43.6382 80.9379 43.8315C80.5979 44.0248 80.1746 44.1215 79.6679 44.1215ZM79.6679 43.3515C80.0812 43.3515 80.4112 43.2215 80.6579 42.9615C80.9046 42.6948 81.0379 42.3082 81.0579 41.8015C81.0646 41.7015 81.0679 41.5748 81.0679 41.4215C81.0679 41.2682 81.0646 41.1415 81.0579 41.0415C81.0379 40.5348 80.9046 40.1515 80.6579 39.8915C80.4112 39.6248 80.0812 39.4915 79.6679 39.4915C79.2546 39.4915 78.9212 39.6248 78.6679 39.8915C78.4212 40.1515 78.2912 40.5348 78.2779 41.0415C78.2712 41.1415 78.2679 41.2682 78.2679 41.4215C78.2679 41.5748 78.2712 41.7015 78.2779 41.8015C78.2912 42.3082 78.4212 42.6948 78.6679 42.9615C78.9212 43.2215 79.2546 43.3515 79.6679 43.3515ZM85.4201 44.1215C84.9934 44.1215 84.6301 44.0282 84.3301 43.8415C84.0368 43.6482 83.8134 43.3815 83.6601 43.0415C83.5068 42.7015 83.4301 42.3115 83.4301 41.8715V39.0515C83.4301 38.9848 83.4501 38.9315 83.4901 38.8915C83.5368 38.8448 83.5934 38.8215 83.6601 38.8215H84.1601C84.2268 38.8215 84.2801 38.8448 84.3201 38.8915C84.3668 38.9315 84.3901 38.9848 84.3901 39.0515V41.8215C84.3901 42.8148 84.8234 43.3115 85.6901 43.3115C86.1034 43.3115 86.4334 43.1815 86.6801 42.9215C86.9334 42.6548 87.0601 42.2882 87.0601 41.8215V39.0515C87.0601 38.9848 87.0801 38.9315 87.1201 38.8915C87.1668 38.8448 87.2234 38.8215 87.2901 38.8215H87.7801C87.8534 38.8215 87.9101 38.8448 87.9501 38.8915C87.9901 38.9315 88.0101 38.9848 88.0101 39.0515V43.7915C88.0101 43.8582 87.9901 43.9148 87.9501 43.9615C87.9101 44.0015 87.8534 44.0215 87.7801 44.0215H87.3201C87.2534 44.0215 87.1968 44.0015 87.1501 43.9615C87.1101 43.9148 87.0901 43.8582 87.0901 43.7915V43.3515C86.9101 43.5848 86.6901 43.7715 86.4301 43.9115C86.1768 44.0515 85.8401 44.1215 85.4201 44.1215ZM89.9257 44.0215C89.859 44.0215 89.8024 44.0015 89.7557 43.9615C89.7157 43.9148 89.6957 43.8582 89.6957 43.7915V39.0615C89.6957 38.9948 89.7157 38.9382 89.7557 38.8915C89.8024 38.8448 89.859 38.8215 89.9257 38.8215H90.3857C90.4524 38.8215 90.509 38.8448 90.5557 38.8915C90.6024 38.9382 90.6257 38.9948 90.6257 39.0615V39.5015C90.759 39.2748 90.9424 39.1048 91.1757 38.9915C91.409 38.8782 91.689 38.8215 92.0157 38.8215H92.4157C92.4824 38.8215 92.5357 38.8448 92.5757 38.8915C92.6157 38.9315 92.6357 38.9848 92.6357 39.0515V39.4615C92.6357 39.5282 92.6157 39.5815 92.5757 39.6215C92.5357 39.6615 92.4824 39.6815 92.4157 39.6815H91.8157C91.4557 39.6815 91.1724 39.7882 90.9657 40.0015C90.759 40.2082 90.6557 40.4915 90.6557 40.8515V43.7915C90.6557 43.8582 90.6324 43.9148 90.5857 43.9615C90.539 44.0015 90.4824 44.0215 90.4157 44.0215H89.9257ZM93.9245 44.0215C93.8579 44.0215 93.8012 44.0015 93.7545 43.9615C93.7145 43.9148 93.6945 43.8582 93.6945 43.7915V39.0515C93.6945 38.9848 93.7145 38.9315 93.7545 38.8915C93.8012 38.8448 93.8579 38.8215 93.9245 38.8215H94.3945C94.4612 38.8215 94.5145 38.8448 94.5545 38.8915C94.6012 38.9315 94.6245 38.9848 94.6245 39.0515V39.4915C94.7979 39.2648 95.0145 39.0815 95.2745 38.9415C95.5412 38.7948 95.8812 38.7215 96.2945 38.7215C96.7279 38.7215 97.0945 38.8182 97.3945 39.0115C97.7012 39.1982 97.9312 39.4615 98.0845 39.8015C98.2379 40.1348 98.3145 40.5248 98.3145 40.9715V43.7915C98.3145 43.8582 98.2945 43.9148 98.2545 43.9615C98.2145 44.0015 98.1612 44.0215 98.0945 44.0215H97.5945C97.5279 44.0215 97.4712 44.0015 97.4245 43.9615C97.3845 43.9148 97.3645 43.8582 97.3645 43.7915V41.0215C97.3645 40.5548 97.2512 40.1915 97.0245 39.9315C96.7979 39.6648 96.4645 39.5315 96.0245 39.5315C95.6112 39.5315 95.2779 39.6648 95.0245 39.9315C94.7779 40.1915 94.6545 40.5548 94.6545 41.0215V43.7915C94.6545 43.8582 94.6312 43.9148 94.5845 43.9615C94.5445 44.0015 94.4912 44.0215 94.4245 44.0215H93.9245ZM102.029 44.1215C101.342 44.1215 100.796 43.9115 100.389 43.4915C99.9823 43.0648 99.759 42.4848 99.719 41.7515C99.7123 41.6648 99.709 41.5548 99.709 41.4215C99.709 41.2815 99.7123 41.1682 99.719 41.0815C99.7457 40.6082 99.8557 40.1948 100.049 39.8415C100.242 39.4815 100.506 39.2048 100.839 39.0115C101.179 38.8182 101.576 38.7215 102.029 38.7215C102.536 38.7215 102.959 38.8282 103.299 39.0415C103.646 39.2548 103.909 39.5582 104.089 39.9515C104.269 40.3448 104.359 40.8048 104.359 41.3315V41.5015C104.359 41.5748 104.336 41.6315 104.289 41.6715C104.249 41.7115 104.196 41.7315 104.129 41.7315H100.669C100.669 41.7382 100.669 41.7515 100.669 41.7715C100.669 41.7915 100.669 41.8082 100.669 41.8215C100.682 42.0948 100.742 42.3515 100.849 42.5915C100.956 42.8248 101.109 43.0148 101.309 43.1615C101.509 43.3082 101.749 43.3815 102.029 43.3815C102.269 43.3815 102.469 43.3448 102.629 43.2715C102.789 43.1982 102.919 43.1182 103.019 43.0315C103.119 42.9382 103.186 42.8682 103.219 42.8215C103.279 42.7348 103.326 42.6848 103.359 42.6715C103.392 42.6515 103.446 42.6415 103.519 42.6415H103.999C104.066 42.6415 104.119 42.6615 104.159 42.7015C104.206 42.7348 104.226 42.7848 104.219 42.8515C104.212 42.9515 104.159 43.0748 104.059 43.2215C103.959 43.3615 103.816 43.5015 103.629 43.6415C103.442 43.7815 103.216 43.8982 102.949 43.9915C102.682 44.0782 102.376 44.1215 102.029 44.1215ZM100.669 41.0415H103.409V41.0115C103.409 40.7115 103.352 40.4448 103.239 40.2115C103.132 39.9782 102.976 39.7948 102.769 39.6615C102.562 39.5215 102.316 39.4515 102.029 39.4515C101.742 39.4515 101.496 39.5215 101.289 39.6615C101.089 39.7948 100.936 39.9782 100.829 40.2115C100.722 40.4448 100.669 40.7115 100.669 41.0115V41.0415ZM106.469 45.9215C106.416 45.9215 106.369 45.9015 106.329 45.8615C106.289 45.8215 106.269 45.7748 106.269 45.7215C106.269 45.6948 106.273 45.6682 106.279 45.6415C106.286 45.6148 106.299 45.5815 106.319 45.5415L107.089 43.7115L105.179 39.2015C105.146 39.1215 105.129 39.0648 105.129 39.0315C105.129 38.9715 105.149 38.9215 105.189 38.8815C105.229 38.8415 105.279 38.8215 105.339 38.8215H105.829C105.896 38.8215 105.949 38.8382 105.989 38.8715C106.029 38.9048 106.056 38.9448 106.069 38.9915L107.589 42.6315L109.149 38.9915C109.169 38.9448 109.196 38.9048 109.229 38.8715C109.269 38.8382 109.326 38.8215 109.399 38.8215H109.869C109.929 38.8215 109.979 38.8415 110.019 38.8815C110.059 38.9215 110.079 38.9682 110.079 39.0215C110.079 39.0548 110.063 39.1148 110.029 39.2015L107.189 45.7515C107.169 45.7982 107.139 45.8382 107.099 45.8715C107.066 45.9048 107.013 45.9215 106.939 45.9215H106.469ZM110.631 44.7715C110.577 44.7715 110.534 44.7515 110.501 44.7115C110.474 44.6715 110.464 44.6215 110.471 44.5615L110.701 43.1315C110.714 43.0515 110.741 42.9848 110.781 42.9315C110.827 42.8715 110.894 42.8415 110.981 42.8415H111.651C111.697 42.8415 111.734 42.8582 111.761 42.8915C111.794 42.9248 111.811 42.9648 111.811 43.0115C111.811 43.0648 111.797 43.1182 111.771 43.1715L111.251 44.5415C111.224 44.6082 111.187 44.6615 111.141 44.7015C111.101 44.7482 111.041 44.7715 110.961 44.7715H110.631ZM118.682 44.1215C118.116 44.1215 117.629 44.0248 117.222 43.8315C116.816 43.6315 116.502 43.3282 116.282 42.9215C116.062 42.5082 115.939 41.9915 115.912 41.3715C115.906 41.0782 115.902 40.7982 115.902 40.5315C115.902 40.2582 115.906 39.9748 115.912 39.6815C115.939 39.0682 116.066 38.5582 116.292 38.1515C116.526 37.7382 116.846 37.4315 117.252 37.2315C117.666 37.0248 118.142 36.9215 118.682 36.9215C119.229 36.9215 119.706 37.0248 120.112 37.2315C120.526 37.4315 120.849 37.7382 121.082 38.1515C121.316 38.5582 121.442 39.0682 121.462 39.6815C121.476 39.9748 121.482 40.2582 121.482 40.5315C121.482 40.7982 121.476 41.0782 121.462 41.3715C121.442 41.9915 121.319 42.5082 121.092 42.9215C120.872 43.3282 120.559 43.6315 120.152 43.8315C119.746 44.0248 119.256 44.1215 118.682 44.1215ZM118.682 43.2715C119.196 43.2715 119.612 43.1182 119.932 42.8115C120.259 42.5048 120.436 42.0082 120.462 41.3215C120.476 41.0215 120.482 40.7548 120.482 40.5215C120.482 40.2815 120.476 40.0148 120.462 39.7215C120.449 39.2615 120.362 38.8882 120.202 38.6015C120.049 38.3148 119.842 38.1048 119.582 37.9715C119.322 37.8382 119.022 37.7715 118.682 37.7715C118.356 37.7715 118.062 37.8382 117.802 37.9715C117.542 38.1048 117.332 38.3148 117.172 38.6015C117.019 38.8882 116.932 39.2615 116.912 39.7215C116.906 40.0148 116.902 40.2815 116.902 40.5215C116.902 40.7548 116.906 41.0215 116.912 41.3215C116.939 42.0082 117.116 42.5048 117.442 42.8115C117.769 43.1182 118.182 43.2715 118.682 43.2715ZM124.95 44.1215C124.523 44.1215 124.16 44.0282 123.86 43.8415C123.566 43.6482 123.343 43.3815 123.19 43.0415C123.036 42.7015 122.96 42.3115 122.96 41.8715V39.0515C122.96 38.9848 122.98 38.9315 123.02 38.8915C123.066 38.8448 123.123 38.8215 123.19 38.8215H123.69C123.756 38.8215 123.81 38.8448 123.85 38.8915C123.896 38.9315 123.92 38.9848 123.92 39.0515V41.8215C123.92 42.8148 124.353 43.3115 125.22 43.3115C125.633 43.3115 125.963 43.1815 126.21 42.9215C126.463 42.6548 126.59 42.2882 126.59 41.8215V39.0515C126.59 38.9848 126.61 38.9315 126.65 38.8915C126.696 38.8448 126.753 38.8215 126.82 38.8215H127.31C127.383 38.8215 127.44 38.8448 127.48 38.8915C127.52 38.9315 127.54 38.9848 127.54 39.0515V43.7915C127.54 43.8582 127.52 43.9148 127.48 43.9615C127.44 44.0015 127.383 44.0215 127.31 44.0215H126.85C126.783 44.0215 126.726 44.0015 126.68 43.9615C126.64 43.9148 126.62 43.8582 126.62 43.7915V43.3515C126.44 43.5848 126.22 43.7715 125.96 43.9115C125.706 44.0515 125.37 44.1215 124.95 44.1215ZM129.455 44.0215C129.389 44.0215 129.332 44.0015 129.285 43.9615C129.245 43.9148 129.225 43.8582 129.225 43.7915V39.0615C129.225 38.9948 129.245 38.9382 129.285 38.8915C129.332 38.8448 129.389 38.8215 129.455 38.8215H129.915C129.982 38.8215 130.039 38.8448 130.085 38.8915C130.132 38.9382 130.155 38.9948 130.155 39.0615V39.5015C130.289 39.2748 130.472 39.1048 130.705 38.9915C130.939 38.8782 131.219 38.8215 131.545 38.8215H131.945C132.012 38.8215 132.065 38.8448 132.105 38.8915C132.145 38.9315 132.165 38.9848 132.165 39.0515V39.4615C132.165 39.5282 132.145 39.5815 132.105 39.6215C132.065 39.6615 132.012 39.6815 131.945 39.6815H131.345C130.985 39.6815 130.702 39.7882 130.495 40.0015C130.289 40.2082 130.185 40.4915 130.185 40.8515V43.7915C130.185 43.8582 130.162 43.9148 130.115 43.9615C130.069 44.0015 130.012 44.0215 129.945 44.0215H129.455ZM136.001 44.0215C135.928 44.0215 135.871 44.0015 135.831 43.9615C135.791 43.9148 135.771 43.8582 135.771 43.7915V37.2615C135.771 37.1882 135.791 37.1315 135.831 37.0915C135.871 37.0448 135.928 37.0215 136.001 37.0215H138.541C139.034 37.0215 139.461 37.1015 139.821 37.2615C140.188 37.4215 140.471 37.6615 140.671 37.9815C140.871 38.2948 140.971 38.6882 140.971 39.1615C140.971 39.6348 140.871 40.0282 140.671 40.3415C140.471 40.6548 140.188 40.8915 139.821 41.0515C139.461 41.2115 139.034 41.2915 138.541 41.2915H136.771V43.7915C136.771 43.8582 136.748 43.9148 136.701 43.9615C136.661 44.0015 136.604 44.0215 136.531 44.0215H136.001ZM136.761 40.4515H138.491C138.984 40.4515 139.354 40.3415 139.601 40.1215C139.848 39.9015 139.971 39.5815 139.971 39.1615C139.971 38.7482 139.851 38.4282 139.611 38.2015C139.371 37.9748 138.998 37.8615 138.491 37.8615H136.761V40.4515ZM142.487 44.0215C142.42 44.0215 142.364 44.0015 142.317 43.9615C142.277 43.9148 142.257 43.8582 142.257 43.7915V39.0615C142.257 38.9948 142.277 38.9382 142.317 38.8915C142.364 38.8448 142.42 38.8215 142.487 38.8215H142.947C143.014 38.8215 143.07 38.8448 143.117 38.8915C143.164 38.9382 143.187 38.9948 143.187 39.0615V39.5015C143.32 39.2748 143.504 39.1048 143.737 38.9915C143.97 38.8782 144.25 38.8215 144.577 38.8215H144.977C145.044 38.8215 145.097 38.8448 145.137 38.8915C145.177 38.9315 145.197 38.9848 145.197 39.0515V39.4615C145.197 39.5282 145.177 39.5815 145.137 39.6215C145.097 39.6615 145.044 39.6815 144.977 39.6815H144.377C144.017 39.6815 143.734 39.7882 143.527 40.0015C143.32 40.2082 143.217 40.4915 143.217 40.8515V43.7915C143.217 43.8582 143.194 43.9148 143.147 43.9615C143.1 44.0015 143.044 44.0215 142.977 44.0215H142.487ZM148.288 44.1215C147.782 44.1215 147.358 44.0248 147.018 43.8315C146.678 43.6382 146.418 43.3715 146.238 43.0315C146.058 42.6848 145.958 42.2915 145.938 41.8515C145.932 41.7382 145.928 41.5948 145.928 41.4215C145.928 41.2415 145.932 41.0982 145.938 40.9915C145.958 40.5448 146.058 40.1515 146.238 39.8115C146.425 39.4715 146.688 39.2048 147.028 39.0115C147.368 38.8182 147.788 38.7215 148.288 38.7215C148.788 38.7215 149.208 38.8182 149.548 39.0115C149.888 39.2048 150.148 39.4715 150.328 39.8115C150.515 40.1515 150.618 40.5448 150.638 40.9915C150.645 41.0982 150.648 41.2415 150.648 41.4215C150.648 41.5948 150.645 41.7382 150.638 41.8515C150.618 42.2915 150.518 42.6848 150.338 43.0315C150.158 43.3715 149.898 43.6382 149.558 43.8315C149.218 44.0248 148.795 44.1215 148.288 44.1215ZM148.288 43.3515C148.702 43.3515 149.032 43.2215 149.278 42.9615C149.525 42.6948 149.658 42.3082 149.678 41.8015C149.685 41.7015 149.688 41.5748 149.688 41.4215C149.688 41.2682 149.685 41.1415 149.678 41.0415C149.658 40.5348 149.525 40.1515 149.278 39.8915C149.032 39.6248 148.702 39.4915 148.288 39.4915C147.875 39.4915 147.542 39.6248 147.288 39.8915C147.042 40.1515 146.912 40.5348 146.898 41.0415C146.892 41.1415 146.888 41.2682 146.888 41.4215C146.888 41.5748 146.892 41.7015 146.898 41.8015C146.912 42.3082 147.042 42.6948 147.288 42.9615C147.542 43.2215 147.875 43.3515 148.288 43.3515ZM152.33 44.0215C152.264 44.0215 152.207 44.0015 152.16 43.9615C152.12 43.9148 152.1 43.8582 152.1 43.7915V39.0515C152.1 38.9848 152.12 38.9315 152.16 38.8915C152.207 38.8448 152.264 38.8215 152.33 38.8215H152.78C152.847 38.8215 152.9 38.8448 152.94 38.8915C152.987 38.9315 153.01 38.9848 153.01 39.0515V39.4015C153.164 39.1948 153.357 39.0315 153.59 38.9115C153.824 38.7848 154.104 38.7215 154.43 38.7215C155.184 38.7148 155.717 39.0215 156.03 39.6415C156.184 39.3615 156.407 39.1382 156.7 38.9715C156.994 38.8048 157.327 38.7215 157.7 38.7215C158.047 38.7215 158.36 38.8015 158.64 38.9615C158.927 39.1215 159.15 39.3648 159.31 39.6915C159.477 40.0115 159.56 40.4148 159.56 40.9015V43.7915C159.56 43.8582 159.537 43.9148 159.49 43.9615C159.45 44.0015 159.397 44.0215 159.33 44.0215H158.86C158.794 44.0215 158.737 44.0015 158.69 43.9615C158.65 43.9148 158.63 43.8582 158.63 43.7915V40.9915C158.63 40.6182 158.577 40.3248 158.47 40.1115C158.364 39.8982 158.22 39.7482 158.04 39.6615C157.86 39.5748 157.664 39.5315 157.45 39.5315C157.277 39.5315 157.1 39.5748 156.92 39.6615C156.74 39.7482 156.59 39.8982 156.47 40.1115C156.357 40.3248 156.3 40.6182 156.3 40.9915V43.7915C156.3 43.8582 156.277 43.9148 156.23 43.9615C156.19 44.0015 156.137 44.0215 156.07 44.0215H155.6C155.534 44.0215 155.477 44.0015 155.43 43.9615C155.39 43.9148 155.37 43.8582 155.37 43.7915V40.9915C155.37 40.6182 155.314 40.3248 155.2 40.1115C155.087 39.8982 154.94 39.7482 154.76 39.6615C154.58 39.5748 154.39 39.5315 154.19 39.5315C154.017 39.5315 153.84 39.5748 153.66 39.6615C153.48 39.7482 153.33 39.8982 153.21 40.1115C153.097 40.3248 153.04 40.6148 153.04 40.9815V43.7915C153.04 43.8582 153.017 43.9148 152.97 43.9615C152.93 44.0015 152.877 44.0215 152.81 44.0215H152.33ZM161.417 44.0215C161.35 44.0215 161.294 44.0015 161.247 43.9615C161.207 43.9148 161.187 43.8582 161.187 43.7915V39.0515C161.187 38.9848 161.207 38.9315 161.247 38.8915C161.294 38.8448 161.35 38.8215 161.417 38.8215H161.897C161.964 38.8215 162.017 38.8448 162.057 38.8915C162.097 38.9315 162.117 38.9848 162.117 39.0515V43.7915C162.117 43.8582 162.097 43.9148 162.057 43.9615C162.017 44.0015 161.964 44.0215 161.897 44.0215H161.417ZM161.337 37.8515C161.27 37.8515 161.214 37.8315 161.167 37.7915C161.127 37.7448 161.107 37.6882 161.107 37.6215V37.0815C161.107 37.0148 161.127 36.9615 161.167 36.9215C161.214 36.8748 161.27 36.8515 161.337 36.8515H161.967C162.034 36.8515 162.087 36.8748 162.127 36.9215C162.174 36.9615 162.197 37.0148 162.197 37.0815V37.6215C162.197 37.6882 162.174 37.7448 162.127 37.7915C162.087 37.8315 162.034 37.8515 161.967 37.8515H161.337ZM165.609 44.1215C165.236 44.1215 164.916 44.0748 164.649 43.9815C164.382 43.8882 164.166 43.7748 163.999 43.6415C163.832 43.5082 163.706 43.3748 163.619 43.2415C163.539 43.1082 163.496 43.0015 163.489 42.9215C163.482 42.8482 163.506 42.7915 163.559 42.7515C163.612 42.7115 163.666 42.6915 163.719 42.6915H164.159C164.199 42.6915 164.229 42.6982 164.249 42.7115C164.276 42.7182 164.309 42.7448 164.349 42.7915C164.436 42.8848 164.532 42.9782 164.639 43.0715C164.746 43.1648 164.876 43.2415 165.029 43.3015C165.189 43.3615 165.386 43.3915 165.619 43.3915C165.959 43.3915 166.239 43.3282 166.459 43.2015C166.679 43.0682 166.789 42.8748 166.789 42.6215C166.789 42.4548 166.742 42.3215 166.649 42.2215C166.562 42.1215 166.402 42.0315 166.169 41.9515C165.942 41.8715 165.629 41.7882 165.229 41.7015C164.829 41.6082 164.512 41.4948 164.279 41.3615C164.046 41.2215 163.879 41.0582 163.779 40.8715C163.679 40.6782 163.629 40.4615 163.629 40.2215C163.629 39.9748 163.702 39.7382 163.849 39.5115C163.996 39.2782 164.209 39.0882 164.489 38.9415C164.776 38.7948 165.132 38.7215 165.559 38.7215C165.906 38.7215 166.202 38.7648 166.449 38.8515C166.696 38.9382 166.899 39.0482 167.059 39.1815C167.219 39.3082 167.339 39.4348 167.419 39.5615C167.499 39.6882 167.542 39.7948 167.549 39.8815C167.556 39.9482 167.536 40.0048 167.489 40.0515C167.442 40.0915 167.389 40.1115 167.329 40.1115H166.909C166.862 40.1115 166.822 40.1015 166.789 40.0815C166.762 40.0615 166.736 40.0382 166.709 40.0115C166.642 39.9248 166.562 39.8382 166.469 39.7515C166.382 39.6648 166.266 39.5948 166.119 39.5415C165.979 39.4815 165.792 39.4515 165.559 39.4515C165.226 39.4515 164.976 39.5215 164.809 39.6615C164.642 39.8015 164.559 39.9782 164.559 40.1915C164.559 40.3182 164.596 40.4315 164.669 40.5315C164.742 40.6315 164.882 40.7215 165.089 40.8015C165.296 40.8815 165.602 40.9682 166.009 41.0615C166.449 41.1482 166.796 41.2648 167.049 41.4115C167.302 41.5582 167.482 41.7282 167.589 41.9215C167.696 42.1148 167.749 42.3382 167.749 42.5915C167.749 42.8715 167.666 43.1282 167.499 43.3615C167.339 43.5948 167.099 43.7815 166.779 43.9215C166.466 44.0548 166.076 44.1215 165.609 44.1215ZM171.177 44.1215C170.49 44.1215 169.943 43.9115 169.537 43.4915C169.13 43.0648 168.907 42.4848 168.867 41.7515C168.86 41.6648 168.857 41.5548 168.857 41.4215C168.857 41.2815 168.86 41.1682 168.867 41.0815C168.893 40.6082 169.003 40.1948 169.197 39.8415C169.39 39.4815 169.653 39.2048 169.987 39.0115C170.327 38.8182 170.723 38.7215 171.177 38.7215C171.683 38.7215 172.107 38.8282 172.447 39.0415C172.793 39.2548 173.057 39.5582 173.237 39.9515C173.417 40.3448 173.507 40.8048 173.507 41.3315V41.5015C173.507 41.5748 173.483 41.6315 173.437 41.6715C173.397 41.7115 173.343 41.7315 173.277 41.7315H169.817C169.817 41.7382 169.817 41.7515 169.817 41.7715C169.817 41.7915 169.817 41.8082 169.817 41.8215C169.83 42.0948 169.89 42.3515 169.997 42.5915C170.103 42.8248 170.257 43.0148 170.457 43.1615C170.657 43.3082 170.897 43.3815 171.177 43.3815C171.417 43.3815 171.617 43.3448 171.777 43.2715C171.937 43.1982 172.067 43.1182 172.167 43.0315C172.267 42.9382 172.333 42.8682 172.367 42.8215C172.427 42.7348 172.473 42.6848 172.507 42.6715C172.54 42.6515 172.593 42.6415 172.667 42.6415H173.147C173.213 42.6415 173.267 42.6615 173.307 42.7015C173.353 42.7348 173.373 42.7848 173.367 42.8515C173.36 42.9515 173.307 43.0748 173.207 43.2215C173.107 43.3615 172.963 43.5015 172.777 43.6415C172.59 43.7815 172.363 43.8982 172.097 43.9915C171.83 44.0782 171.523 44.1215 171.177 44.1215ZM169.817 41.0415H172.557V41.0115C172.557 40.7115 172.5 40.4448 172.387 40.2115C172.28 39.9782 172.123 39.7948 171.917 39.6615C171.71 39.5215 171.463 39.4515 171.177 39.4515C170.89 39.4515 170.643 39.5215 170.437 39.6615C170.237 39.7948 170.083 39.9782 169.977 40.2115C169.87 40.4448 169.817 40.7115 169.817 41.0115V41.0415Z" fill="black"/>
<g clip-path="url(#clip0_24_16)">
<path fill-rule="evenodd" clip-rule="evenodd" d="M43.2906 3.57227C12.6143 23.5612 35.7787 42.4172 55.5193 53.1047H44.6997C36.1168 47.2791 27.5078 39.866 24.5449 32.1002C20.9804 22.7594 24.8004 11.9002 43.2906 3.57227Z" fill="#FFB611"/>
<path fill-rule="evenodd" clip-rule="evenodd" d="M38.5965 4.28076C38.5965 4.28076 14.7177 14.304 22.4548 32.1227C22.4548 32.1227 24.8848 41.9921 41.9087 53.1047H3.20791C-5.93753 29.8197 4.05117 9.8224 38.5965 4.28076Z" fill="black"/>
<path d="M16.0816 44.0546C16.8607 45.7852 17.8234 47.5711 19.0084 49.4151H15.8473C14.9587 47.9247 14.2005 46.4743 13.5668 45.0658L16.0816 44.0546ZM13.5321 34.8177C13.703 36.6127 14.0844 38.4959 14.706 40.46L12.1844 41.4739C11.5281 39.4439 11.1154 37.504 10.9232 35.6612L13.5321 34.8177ZM14.4145 25.7538C13.8806 27.5419 13.5313 29.4624 13.4441 31.512L10.8037 32.3655C10.8699 30.2167 11.2197 28.2118 11.7784 26.3539L14.4145 25.7538ZM17.1135 19.7297C16.4586 20.8092 15.8543 21.9646 15.3333 23.1966L12.7055 23.7947C13.2841 22.4444 13.9705 21.1876 14.7194 20.0189L17.1135 19.7297ZM21.2077 14.3989C20.341 15.3153 19.4638 16.3427 18.6254 17.4778L16.3272 17.7554C17.2224 16.6124 18.1633 15.5776 19.0997 14.6534L21.2077 14.3989ZM27.8412 8.91112C27.8185 8.92617 26.0037 9.99169 23.6702 12.0325L21.78 12.2609C24.5875 9.98883 26.838 8.83501 26.8647 8.81738L27.8412 8.91112Z" fill="white"/>
</g>
<defs>
<clipPath id="clip0_24_16">
<rect width="55.5195" height="49.5325" fill="white" transform="translate(0 3.57227)"/>
</clipPath>
</defs>
</svg>
