<svg width="18" height="18" viewBox="0 0 18 18" fill="none" xmlns="http://www.w3.org/2000/svg">
<path fill-rule="evenodd" clip-rule="evenodd" d="M3.74996 4.5C3.33574 4.5 2.99996 4.83579 2.99996 5.25V12.75C2.99996 13.1642 3.33574 13.5 3.74996 13.5H14.25C14.6642 13.5 15 13.1642 15 12.75V5.25C15 4.83579 14.6642 4.5 14.25 4.5H3.74996ZM1.49996 5.25C1.49996 4.00736 2.50732 3 3.74996 3H14.25C15.4926 3 16.5 4.00736 16.5 5.25V12.75C16.5 13.9926 15.4926 15 14.25 15H3.74996C2.50732 15 1.49996 13.9926 1.49996 12.75V5.25Z" fill="#FFB611"/>
<path fill-rule="evenodd" clip-rule="evenodd" d="M1.62592 4.83395C1.85568 4.4893 2.32134 4.39617 2.66598 4.62593L8.99996 8.84858L15.3339 4.62593C15.6786 4.39617 16.1442 4.4893 16.374 4.83395C16.6038 5.17859 16.5106 5.64425 16.166 5.87401L9.41598 10.374C9.16406 10.542 8.83586 10.542 8.58393 10.374L1.83393 5.87401C1.48929 5.64425 1.39616 5.17859 1.62592 4.83395Z" fill="#FFB611"/>
</svg>
