<svg width="15" height="19" viewBox="0 0 15 19" fill="none" xmlns="http://www.w3.org/2000/svg">
<path d="M13.0583 13.4609C13.0583 13.5782 13.0319 13.6985 12.9791 13.8216C12.9263 13.9448 12.8588 14.0475 12.7767 14.1296L11.4041 15.5022C11.3102 15.5961 11.2046 15.6665 11.0873 15.7134C10.97 15.7603 10.8468 15.7838 10.7178 15.7838C10.5887 15.7838 10.4655 15.7603 10.3482 15.7134C10.2309 15.6665 10.1253 15.5961 10.0314 15.5022L7.07502 12.5458L4.11859 15.5022C4.03647 15.5961 3.93382 15.6665 3.81063 15.7134C3.68745 15.7603 3.56133 15.7838 3.43228 15.7838C3.31496 15.7838 3.19471 15.7603 3.07153 15.7134C2.94834 15.6665 2.84569 15.5961 2.76357 15.5022L1.39094 14.1296C1.29708 14.0475 1.22669 13.9448 1.17977 13.8216C1.13284 13.6985 1.10938 13.5782 1.10938 13.4609C1.10938 13.3318 1.13284 13.2057 1.17977 13.0825C1.22669 12.9593 1.29708 12.8567 1.39094 12.7746L4.34737 9.81815L1.39094 6.86172C1.29708 6.76787 1.22669 6.66228 1.17977 6.54496C1.13284 6.42764 1.10938 6.30446 1.10938 6.17541C1.10938 6.04636 1.13284 5.92317 1.17977 5.80585C1.22669 5.68854 1.29708 5.58295 1.39094 5.48909L2.76357 4.11647C2.84569 4.03435 2.94834 3.96689 3.07153 3.91409C3.19471 3.8613 3.31496 3.8349 3.43228 3.8349C3.56133 3.8349 3.68745 3.8613 3.81063 3.91409C3.93382 3.96689 4.03647 4.03435 4.11859 4.11647L7.07502 7.07289L10.0314 4.11647C10.1253 4.03435 10.2309 3.96689 10.3482 3.91409C10.4655 3.8613 10.5887 3.8349 10.7178 3.8349C10.8468 3.8349 10.97 3.8613 11.0873 3.91409C11.2046 3.96689 11.3102 4.03435 11.4041 4.11647L12.7767 5.48909C12.8588 5.58295 12.9263 5.68854 12.9791 5.80585C13.0319 5.92317 13.0583 6.04636 13.0583 6.17541C13.0583 6.30446 13.0319 6.42764 12.9791 6.54496C12.9263 6.66228 12.8588 6.76787 12.7767 6.86172L9.82027 9.81815L12.7767 12.7746C12.8588 12.8567 12.9263 12.9593 12.9791 13.0825C13.0319 13.2057 13.0583 13.3318 13.0583 13.4609Z" fill="#FF4545"/>
</svg>
