<svg width="16" height="12" viewBox="0 0 16 12" fill="none" xmlns="http://www.w3.org/2000/svg">
<path d="M15.5916 2.34083C15.5916 2.45815 15.5682 2.5784 15.5212 2.70159C15.4743 2.82477 15.4039 2.92743 15.3101 3.00955L6.65196 11.6677C6.56984 11.7615 6.46718 11.8319 6.344 11.8788C6.22081 11.9258 6.10056 11.9492 5.98324 11.9492C5.85419 11.9492 5.72808 11.9258 5.60489 11.8788C5.48171 11.8319 5.37905 11.7615 5.29693 11.6677L0.281564 6.65229C0.18771 6.57017 0.117318 6.46751 0.0703911 6.34433C0.0234637 6.22114 0 6.09503 0 5.96598C0 5.84866 0.0234637 5.72841 0.0703911 5.60522C0.117318 5.48204 0.18771 5.37938 0.281564 5.29726L1.65419 3.92463C1.74805 3.83078 1.85363 3.76039 1.97095 3.71346C2.08827 3.66653 2.21145 3.64307 2.3405 3.64307C2.45782 3.64307 2.57807 3.66653 2.70126 3.71346C2.82444 3.76039 2.93296 3.83078 3.02682 3.92463L5.98324 6.88106L12.5648 0.281895C12.6587 0.18804 12.7672 0.117649 12.8904 0.0707216C13.0136 0.0237942 13.1338 0.000329971 13.2511 0.000329971C13.3802 0.000329971 13.5034 0.0237942 13.6207 0.0707216C13.738 0.117649 13.8436 0.18804 13.9374 0.281895L15.3101 1.65452C15.4039 1.73664 15.4743 1.8393 15.5212 1.96248C15.5682 2.08567 15.5916 2.21178 15.5916 2.34083Z" fill="#1FC055"/>
</svg>
