<svg width="20" height="20" viewBox="0 0 20 20" fill="none" xmlns="http://www.w3.org/2000/svg">
<path fill-rule="evenodd" clip-rule="evenodd" d="M2.74104 3.86729C2.86493 3.54567 3.17402 3.3335 3.51868 3.3335H11.852C12.1105 3.3335 12.3544 3.45347 12.5122 3.65826L15.9657 8.14119H16.4816C17.2042 8.14119 17.8904 8.43954 18.3914 8.95974C18.8913 9.47888 19.1668 10.1765 19.1668 10.8976V14.7438C19.1668 14.9648 19.079 15.1767 18.9228 15.333C18.7665 15.4893 18.5545 15.5771 18.3335 15.5771L17.1892 15.5771C16.8483 16.6781 15.8494 17.5002 14.6298 17.5002C13.4101 17.5002 12.4113 16.6781 12.0704 15.5771H7.92996C7.58902 16.6781 6.59018 17.5002 5.37052 17.5002C4.15087 17.5002 3.15203 16.6781 2.81109 15.5771L1.66683 15.5771C1.44582 15.5771 1.23385 15.4893 1.07757 15.333C0.921294 15.1767 0.833496 14.9648 0.833496 14.7438V8.97452C0.833496 8.8721 0.852376 8.77056 0.88919 8.67499L2.74104 3.86729ZM2.81109 13.9104C3.15203 12.8094 4.15087 11.9873 5.37052 11.9873C6.59018 11.9873 7.58902 12.8094 7.92996 13.9104H12.0704C12.4113 12.8094 13.4101 11.9873 14.6298 11.9873C15.8494 11.9873 16.8483 12.8094 17.1892 13.9104H17.5002V10.8976C17.5002 10.5986 17.3855 10.318 17.1908 10.1158C16.9972 9.91472 16.7414 9.80786 16.4816 9.80786H2.50016V13.9104H2.81109ZM2.88083 8.14119H9.16683V5.00016H4.09071L2.88083 8.14119ZM10.8335 5.00016V8.14119H13.8618L11.4421 5.00016H10.8335ZM5.37052 13.654C4.83737 13.654 4.35201 14.112 4.35201 14.7438C4.35201 15.3755 4.83737 15.8335 5.37052 15.8335C5.90367 15.8335 6.38904 15.3755 6.38904 14.7438C6.38904 14.112 5.90367 13.654 5.37052 13.654ZM14.6298 13.654C14.0966 13.654 13.6113 14.112 13.6113 14.7438C13.6113 15.3755 14.0966 15.8335 14.6298 15.8335C15.1629 15.8335 15.6483 15.3755 15.6483 14.7438C15.6483 14.112 15.1629 13.654 14.6298 13.654Z" fill="#FFB611"/>
</svg>
