<svg width="12" height="12" viewBox="0 0 12 12" fill="none" xmlns="http://www.w3.org/2000/svg">
<g clip-path="url(#clip0_81_561)">
<path d="M4.39922 5.6C4.29255 5.6 4.19922 5.56 4.11922 5.48C4.03922 5.4 3.99922 5.30667 3.99922 5.2V4C3.97255 3.84 4.03255 3.71333 4.17922 3.62C4.32589 3.52667 4.47255 3.52667 4.61922 3.62C4.76589 3.71333 4.82589 3.84 4.79922 4V5.2C4.79922 5.30667 4.75922 5.4 4.67922 5.48C4.59922 5.56 4.50589 5.6 4.39922 5.6ZM5.99922 5.6C5.89255 5.6 5.79922 5.56 5.71922 5.48C5.63922 5.4 5.59922 5.30667 5.59922 5.2V3.6C5.59922 3.49333 5.63922 3.40667 5.71922 3.34C5.79922 3.27333 5.89255 3.24 5.99922 3.24C6.10589 3.24 6.19922 3.27333 6.27922 3.34C6.35922 3.40667 6.39922 3.49333 6.39922 3.6V5.2C6.39922 5.30667 6.35922 5.4 6.27922 5.48C6.19922 5.56 6.10589 5.6 5.99922 5.6ZM7.59922 5.6C7.49255 5.6 7.39922 5.56 7.31922 5.48C7.23922 5.4 7.19922 5.30667 7.19922 5.2V2.8C7.17255 2.64 7.23255 2.51333 7.37922 2.42C7.52589 2.32667 7.67255 2.32667 7.81922 2.42C7.96589 2.51333 8.02589 2.64 7.99922 2.8V5.2C7.99922 5.30667 7.95922 5.4 7.87922 5.48C7.79922 5.56 7.70589 5.6 7.59922 5.6ZM9.19922 12H2.79922C2.34589 12 1.96589 11.8467 1.65922 11.54C1.35255 11.2333 1.19922 10.8533 1.19922 10.4V3.16C1.19922 2.86667 1.25922 2.58 1.37922 2.3C1.49922 2.02 1.67922 1.78667 1.91922 1.6L3.31922 0.48C3.66589 0.16 4.07922 0 4.55922 0H9.19922C9.65255 0 10.0326 0.153334 10.3392 0.46C10.6459 0.766667 10.7992 1.14667 10.7992 1.6V10.4C10.7992 10.8533 10.6459 11.2333 10.3392 11.54C10.0326 11.8467 9.65255 12 9.19922 12ZM4.55922 0.8C4.29255 0.8 4.05255 0.893333 3.83922 1.08L2.43922 2.24C2.14589 2.48 1.99922 2.78667 1.99922 3.16V10.4C1.99922 10.6133 2.07922 10.8 2.23922 10.96C2.39922 11.12 2.58589 11.2 2.79922 11.2H9.19922C9.41255 11.2 9.59922 11.12 9.75922 10.96C9.91922 10.8 9.99922 10.6133 9.99922 10.4V1.6C9.99922 1.38667 9.91922 1.2 9.75922 1.04C9.59922 0.88 9.41255 0.8 9.19922 0.8H4.55922ZM8.39922 9.6H3.59922C3.43922 9.62667 3.31255 9.56667 3.21922 9.42C3.12589 9.27333 3.12589 9.12667 3.21922 8.98C3.31255 8.83333 3.43922 8.77333 3.59922 8.8H8.39922C8.55922 8.77333 8.68589 8.83333 8.77922 8.98C8.87255 9.12667 8.87255 9.27333 8.77922 9.42C8.68589 9.56667 8.55922 9.62667 8.39922 9.6ZM8.39922 7.6H3.59922C3.49255 7.6 3.40589 7.56 3.33922 7.48C3.27255 7.4 3.23922 7.30667 3.23922 7.2C3.23922 7.09333 3.27255 7 3.33922 6.92C3.40589 6.84 3.49255 6.8 3.59922 6.8H8.39922C8.55922 6.77333 8.68589 6.83333 8.77922 6.98C8.87255 7.12667 8.87255 7.27333 8.77922 7.42C8.68589 7.56667 8.55922 7.62667 8.39922 7.6Z" fill="#050B20"/>
</g>
<defs>
<clipPath id="clip0_81_561">
<rect width="12" height="12" fill="white" transform="matrix(1 0 0 -1 0 12)"/>
</clipPath>
</defs>
</svg>
