<svg width="48" height="48" viewBox="0 0 48 48" fill="none" xmlns="http://www.w3.org/2000/svg">
<rect width="48" height="48" rx="6" fill="#FFF3EC"/>
<path fill-rule="evenodd" clip-rule="evenodd" d="M16.4846 16.2899C16.1984 16.5764 15.936 16.9278 15.7664 17.2338C15.5533 17.6078 15.396 18.0179 15.3011 18.4443L15.2518 18.7019C14.474 22.6479 15.4618 26.1779 18.7224 29.4153C20.8618 31.5394 22.4841 32.4123 24.7054 32.731C25.0654 32.7826 25.4414 32.8214 25.8887 32.8545L26.8085 32.9104C27.3218 32.937 28.177 32.9796 28.469 32.9962C28.8535 33.0181 29.3622 32.9446 30.0459 32.7844L30.1495 32.7541C30.7463 32.5432 31.2913 32.2012 31.7476 31.7444C33.4175 30.0727 33.4175 27.3623 31.7476 25.6906L31.5988 25.5486C29.9846 24.0787 27.5161 24.0653 25.8868 25.5155L25.6937 25.6903L24.6613 26.7238C24.4351 26.9503 24.0788 26.981 23.8173 26.7965C23.2731 26.4128 21.8274 24.9978 21.4745 24.5155C21.2827 24.2534 21.3105 23.8903 21.5401 23.6606L22.4497 22.7506L22.5275 22.6873L22.643 22.5802C22.6638 22.5602 22.685 22.5393 22.7061 22.5183C24.4241 20.7984 24.4241 18.0098 22.7061 16.2899C20.9881 14.57 18.2026 14.57 16.4846 16.2899ZM17.88 17.6869C18.8274 16.7386 20.3633 16.7386 21.3106 17.6869C22.2579 18.6353 22.2579 20.1729 21.3106 21.1213C21.252 21.1799 21.1909 21.2352 21.1276 21.287L20.145 22.2632C19.2266 23.1823 19.1151 24.6345 19.8825 25.6831C20.3628 26.3394 21.9626 27.9052 22.6807 28.4116L22.8192 28.503C23.8499 29.1374 25.1911 28.9874 26.0568 28.1208L27.0112 27.1651L27.0243 27.1584L27.1162 27.0684C28.0169 26.1869 29.4602 26.1947 30.3521 27.0877C31.2513 27.9878 31.2513 29.4472 30.3521 30.3473L30.1987 30.4879C30.0402 30.6207 29.8665 30.7301 29.6814 30.8147L29.5321 30.8748L29.2784 30.9307L29.0105 30.9809C28.809 31.0146 28.663 31.0284 28.5811 31.0237L26.5773 30.9196L26.0464 30.8851L25.5859 30.8464C25.3701 30.8256 25.1735 30.8023 24.9854 30.7753C23.2071 30.5202 21.9643 29.8515 20.1122 28.0125C17.4208 25.3404 16.5867 22.5763 17.1366 19.3627L17.1941 19.0502C17.2462 18.7303 17.3428 18.4546 17.4863 18.2025C17.5737 18.045 17.7257 17.8414 17.88 17.6869Z" fill="#FFB611"/>
</svg>
