<svg width="48" height="48" viewBox="0 0 48 48" fill="none" xmlns="http://www.w3.org/2000/svg">
<rect width="48" height="48" rx="6" fill="#FFF3EC"/>
<path fill-rule="evenodd" clip-rule="evenodd" d="M17 16C15.3431 16 14 17.3431 14 19V29C14 30.6569 15.3431 32 17 32H31C32.6569 32 34 30.6569 34 29V19C34 17.3431 32.6569 16 31 16H17ZM16.8255 18.0152C16.8822 18.0052 16.9405 18 17 18H31C31.0595 18 31.1178 18.0052 31.1745 18.0152L24 22.7982L16.8255 18.0152ZM16 19.8685V29C16 29.5523 16.4477 30 17 30H31C31.5523 30 32 29.5523 32 29V19.8685L24.5547 24.8321C24.2188 25.056 23.7812 25.056 23.4453 24.8321L16 19.8685Z" fill="#FFB611"/>
</svg>
