<svg width="18" height="19" viewBox="0 0 18 19" fill="none" xmlns="http://www.w3.org/2000/svg">
<path d="M15.0025 15.8868C15.0025 16.0203 14.9469 16.087 14.8356 16.087C14.7244 16.087 14.6687 16.0203 14.6687 15.8868V1.50177C14.6687 1.43502 14.6576 1.37939 14.6354 1.33489C14.6131 1.29039 14.5853 1.25145 14.5519 1.21808C14.5185 1.1847 14.474 1.16245 14.4184 1.15133C14.3628 1.1402 14.3127 1.13464 14.2682 1.13464L6.65852 1.10126C6.54727 1.10126 6.45271 1.1402 6.37483 1.21808C6.29695 1.29595 6.25801 1.37939 6.25801 1.4684L6.22464 15.8868C6.22464 15.998 6.16901 16.0537 6.05776 16.0537C5.94651 16.0537 5.89088 15.998 5.89088 15.8868V1.4684C5.89088 1.26814 5.96876 1.10126 6.12451 0.967756C6.28026 0.834253 6.45827 0.767502 6.65852 0.767502H14.2682C14.4685 0.767502 14.6465 0.839817 14.8022 0.984446C14.958 1.12907 15.0359 1.30152 15.0359 1.50177L15.0025 15.8868ZM5.02311 17.856C4.8451 17.856 4.7561 17.7781 4.7561 17.6223V16.2539C4.7561 16.0982 4.81173 15.9702 4.92298 15.8701C5.03423 15.77 5.16773 15.7199 5.32349 15.7199H6.05776C6.16901 15.7199 6.22464 15.7811 6.22464 15.9035C6.22464 16.0258 6.16901 16.087 6.05776 16.087H5.32349C5.18999 16.087 5.12323 16.1427 5.12323 16.2539V17.5222L10.6636 17.4888C10.7749 17.4888 10.8305 17.55 10.8305 17.6724C10.8305 17.7948 10.7749 17.856 10.6636 17.856H5.02311ZM15.8703 17.856H10.2297C10.1185 17.856 10.0629 17.7948 10.0629 17.6724C10.0629 17.55 10.1185 17.4888 10.2297 17.4888L15.7701 17.5222V16.2539C15.7701 16.1427 15.7034 16.087 15.5699 16.087H14.8356C14.7244 16.087 14.6687 16.0258 14.6687 15.9035C14.6687 15.7811 14.7244 15.7199 14.8356 15.7199H15.5699C15.7256 15.7199 15.8591 15.77 15.9704 15.8701C16.0817 15.9702 16.1373 16.0982 16.1373 16.2539V17.6223C16.1373 17.7781 16.0483 17.856 15.8703 17.856ZM13.5673 5.74051H7.45955C7.25929 5.74051 7.15916 5.64038 7.15916 5.44013V2.40292C7.15916 2.20267 7.25929 2.10254 7.45955 2.10254H13.5673C13.7676 2.10254 13.8677 2.20267 13.8677 2.40292V5.44013C13.8677 5.52913 13.8399 5.60144 13.7843 5.65707C13.7287 5.7127 13.6563 5.74051 13.5673 5.74051ZM7.49292 5.37337L13.5006 5.40675L13.534 2.46967H7.49292V5.37337ZM3.7882 14.0177C3.47669 14.0177 3.23193 13.9343 3.05393 13.7674C2.87592 13.6005 2.78692 13.3391 2.78692 12.9831V8.74434H3.15406C3.15406 11.4144 3.15406 12.8162 3.15406 12.9497C3.15406 13.2167 3.20412 13.4058 3.30425 13.5171C3.40438 13.6283 3.56569 13.684 3.7882 13.684C4.0107 13.684 4.17758 13.6283 4.28884 13.5171C4.37784 13.4281 4.42234 13.3168 4.42234 13.1833C4.42234 13.1833 4.4279 12.972 4.43903 12.5492C4.45015 12.1264 4.46128 11.6814 4.4724 11.2142C4.48353 10.7469 4.48909 10.4465 4.48909 10.313C4.48909 10.0905 4.56697 9.90137 4.72272 9.74562C5.01198 9.50086 5.46812 9.41186 6.09113 9.47861C6.20239 9.50086 6.24689 9.56761 6.22464 9.67886C6.20239 9.79012 6.13564 9.83462 6.02438 9.81237C5.53487 9.76787 5.17886 9.83462 4.95635 10.0126C4.8896 10.0794 4.85623 10.1795 4.85623 10.313C4.85623 10.7803 4.82285 11.737 4.7561 13.1833C4.7561 13.1833 4.7561 13.2111 4.7561 13.2668C4.7561 13.3224 4.73941 13.4003 4.70603 13.5004C4.67266 13.6005 4.6226 13.684 4.55584 13.7507C4.37784 13.9287 4.12196 14.0177 3.7882 14.0177ZM3.72145 8.94459H2.28628C2.19728 8.94459 2.14165 8.88897 2.1194 8.77772L1.78564 5.97414C1.78564 5.92964 1.79677 5.87958 1.81902 5.82395C1.84127 5.76832 1.91359 5.68488 2.03596 5.57363C2.15834 5.46238 2.31966 5.39563 2.51991 5.37337C2.60892 5.35112 2.73129 5.34 2.88705 5.34C3.57682 5.34 3.9662 5.50688 4.0552 5.84064C4.0552 5.86289 4.0552 5.88514 4.0552 5.90739L3.9217 8.77772C3.89945 8.88897 3.8327 8.94459 3.72145 8.94459ZM2.45316 8.57746H3.55457L3.68807 5.90739C3.59907 5.75163 3.33206 5.67376 2.88705 5.67376C2.70904 5.69601 2.60892 5.70713 2.58667 5.70713C2.29741 5.75163 2.15278 5.84064 2.15278 5.97414L2.45316 8.57746ZM3.02055 5.34C3.02055 5.45125 2.95936 5.50688 2.83698 5.50688C2.71461 5.50688 2.65342 5.45125 2.65342 5.34C2.65342 4.53898 2.98718 3.97159 3.65469 3.63783C3.9662 3.48207 4.28884 3.4042 4.6226 3.4042C4.73385 3.4042 4.78947 3.45982 4.78947 3.57108C4.78947 3.68233 4.73385 3.73796 4.6226 3.73796C4.60034 3.73796 4.56697 3.74352 4.52247 3.75464C4.47797 3.76577 4.40009 3.78246 4.28884 3.80471C4.17758 3.82696 4.06633 3.85477 3.95508 3.88815C3.84382 3.92152 3.73257 3.97715 3.62132 4.05503C3.51007 4.1329 3.40994 4.22747 3.32094 4.33872C3.23193 4.44998 3.15962 4.58904 3.10399 4.75592C3.04837 4.9228 3.02055 5.11749 3.02055 5.34Z" fill="#A0A0A0"/>
<path d="M14.8356 16.087C14.9469 16.087 15.0025 16.0203 15.0025 15.8868L15.0359 1.50177C15.0359 1.30152 14.958 1.12907 14.8022 0.984445C14.6465 0.839816 14.4685 0.767502 14.2682 0.767502H6.65852C6.45827 0.767502 6.28026 0.834254 6.12451 0.967757C5.96876 1.10126 5.89088 1.26814 5.89088 1.4684V15.8868C5.89088 15.998 5.94651 16.0537 6.05776 16.0537C6.16901 16.0537 6.22464 15.998 6.22464 15.8868L6.25801 1.4684C6.25801 1.37939 6.29695 1.29595 6.37483 1.21808C6.45271 1.1402 6.54727 1.10126 6.65852 1.10126L14.2682 1.13464C14.3127 1.13464 14.3628 1.1402 14.4184 1.15132C14.474 1.16245 14.5185 1.1847 14.5519 1.21808C14.5853 1.25145 14.6131 1.29039 14.6354 1.33489C14.6576 1.37939 14.6687 1.43502 14.6687 1.50177V15.8868C14.6687 16.0203 14.7244 16.087 14.8356 16.087ZM14.8356 16.087H15.5699C15.7034 16.087 15.7701 16.1427 15.7701 16.2539V17.5222L10.2297 17.4888C10.1185 17.4888 10.0629 17.55 10.0629 17.6724C10.0629 17.7948 10.1185 17.856 10.2297 17.856H15.8703C16.0483 17.856 16.1373 17.7781 16.1373 17.6223V16.2539C16.1373 16.0982 16.0817 15.9702 15.9704 15.8701C15.8591 15.77 15.7256 15.7199 15.5699 15.7199H14.8356C14.7244 15.7199 14.6687 15.7811 14.6687 15.9035C14.6687 16.0258 14.7244 16.087 14.8356 16.087ZM5.02311 17.856C4.8451 17.856 4.7561 17.7781 4.7561 17.6223V16.2539C4.7561 16.0982 4.81173 15.9702 4.92298 15.8701C5.03423 15.77 5.16773 15.7199 5.32349 15.7199H6.05776C6.16901 15.7199 6.22464 15.7811 6.22464 15.9035C6.22464 16.0258 6.16901 16.087 6.05776 16.087H5.32349C5.18999 16.087 5.12323 16.1427 5.12323 16.2539V17.5222L10.6636 17.4888C10.7749 17.4888 10.8305 17.55 10.8305 17.6724C10.8305 17.7948 10.7749 17.856 10.6636 17.856H5.02311ZM13.5673 5.74051H7.45955C7.25929 5.74051 7.15916 5.64038 7.15916 5.44013V2.40292C7.15916 2.20267 7.25929 2.10254 7.45955 2.10254H13.5673C13.7676 2.10254 13.8677 2.20267 13.8677 2.40292V5.44013C13.8677 5.52913 13.8399 5.60144 13.7843 5.65707C13.7287 5.7127 13.6563 5.74051 13.5673 5.74051ZM7.49292 5.37337L13.5006 5.40675L13.534 2.46967H7.49292V5.37337ZM3.7882 14.0177C3.47669 14.0177 3.23193 13.9343 3.05393 13.7674C2.87592 13.6005 2.78692 13.3391 2.78692 12.9831V8.74434H3.15406C3.15406 11.4144 3.15406 12.8162 3.15406 12.9497C3.15406 13.2167 3.20412 13.4058 3.30425 13.5171C3.40438 13.6283 3.56569 13.684 3.7882 13.684C4.0107 13.684 4.17758 13.6283 4.28884 13.5171C4.37784 13.4281 4.42234 13.3168 4.42234 13.1833C4.42234 13.1833 4.4279 12.972 4.43903 12.5492C4.45015 12.1264 4.46128 11.6814 4.4724 11.2142C4.48353 10.7469 4.48909 10.4465 4.48909 10.313C4.48909 10.0905 4.56697 9.90137 4.72272 9.74562C5.01198 9.50086 5.46812 9.41186 6.09113 9.47861C6.20239 9.50086 6.24689 9.56761 6.22464 9.67886C6.20239 9.79012 6.13564 9.83462 6.02438 9.81237C5.53487 9.76787 5.17886 9.83462 4.95635 10.0126C4.8896 10.0794 4.85623 10.1795 4.85623 10.313C4.85623 10.7803 4.82285 11.737 4.7561 13.1833C4.7561 13.1833 4.7561 13.2111 4.7561 13.2668C4.7561 13.3224 4.73941 13.4003 4.70603 13.5004C4.67266 13.6005 4.6226 13.684 4.55584 13.7507C4.37784 13.9287 4.12196 14.0177 3.7882 14.0177ZM3.72145 8.94459H2.28628C2.19728 8.94459 2.14165 8.88897 2.1194 8.77772L1.78564 5.97414C1.78564 5.92964 1.79677 5.87958 1.81902 5.82395C1.84127 5.76832 1.91359 5.68488 2.03596 5.57363C2.15834 5.46238 2.31966 5.39563 2.51991 5.37337C2.60892 5.35112 2.73129 5.34 2.88705 5.34C3.57682 5.34 3.9662 5.50688 4.0552 5.84064C4.0552 5.86289 4.0552 5.88514 4.0552 5.90739L3.9217 8.77772C3.89945 8.88897 3.8327 8.94459 3.72145 8.94459ZM2.45316 8.57746H3.55457L3.68807 5.90739C3.59907 5.75163 3.33206 5.67376 2.88705 5.67376C2.70904 5.69601 2.60892 5.70713 2.58667 5.70713C2.29741 5.75163 2.15278 5.84064 2.15278 5.97414L2.45316 8.57746ZM3.02055 5.34C3.02055 5.45125 2.95936 5.50688 2.83699 5.50688C2.71461 5.50688 2.65342 5.45125 2.65342 5.34C2.65342 4.53898 2.98718 3.97159 3.65469 3.63783C3.9662 3.48207 4.28884 3.4042 4.6226 3.4042C4.73385 3.4042 4.78947 3.45982 4.78947 3.57108C4.78947 3.68233 4.73385 3.73796 4.6226 3.73796C4.60034 3.73796 4.56697 3.74352 4.52247 3.75464C4.47797 3.76577 4.40009 3.78246 4.28884 3.80471C4.17758 3.82696 4.06633 3.85477 3.95508 3.88815C3.84382 3.92152 3.73257 3.97715 3.62132 4.05503C3.51007 4.1329 3.40994 4.22747 3.32094 4.33872C3.23193 4.44997 3.15962 4.58904 3.10399 4.75592C3.04837 4.9228 3.02055 5.11749 3.02055 5.34Z" stroke="#FFB611" stroke-width="0.5"/>
</svg>
