<svg width="19" height="19" viewBox="0 0 19 19" fill="none" xmlns="http://www.w3.org/2000/svg">
<path d="M11.8779 7.91886C12.0365 7.85089 12.1498 7.87355 12.2178 7.98683C12.3084 8.10012 12.331 8.2134 12.2857 8.32669L11.4361 9.72009C11.3908 9.81072 11.3398 9.90701 11.2832 10.009C11.2265 10.1109 11.1699 10.2129 11.1132 10.3148C11.0566 10.4168 11.0056 10.5188 10.9603 10.6207C10.915 10.7227 10.864 10.8246 10.8074 10.9266C10.7507 11.0285 10.6997 11.1248 10.6544 11.2155C10.5411 11.442 10.4618 11.612 10.4165 11.7252C10.1447 12.269 9.71417 12.5409 9.12509 12.5409C8.96649 12.5409 8.8532 12.5296 8.78523 12.5069C8.60398 12.4616 8.43971 12.388 8.29244 12.286C8.14517 12.184 8.02056 12.0594 7.9186 11.9122C7.81665 11.7649 7.74301 11.6006 7.6977 11.4194C7.65238 11.1928 7.65238 10.9776 7.6977 10.7736C7.74301 10.5697 7.83364 10.3771 7.96958 10.1959C8.10552 10.0146 8.27545 9.87869 8.47936 9.78806C8.70593 9.65212 8.87586 9.57282 8.98914 9.55017C9.57823 9.25562 10.0767 8.99507 10.4845 8.7685L11.8779 7.91886ZM10.9603 9.38024L11.1982 9.0064L10.7904 9.2443C10.5865 9.38024 10.0654 9.65212 9.22704 10.0599C9.20438 10.0826 9.13075 10.1166 9.00614 10.1619C8.88152 10.2072 8.79656 10.2525 8.75125 10.2978C8.34342 10.4791 8.18482 10.8076 8.27545 11.2834C8.34342 11.6459 8.55866 11.8612 8.92117 11.9291C9.39697 12.0198 9.7255 11.8612 9.90675 11.4534C10.0427 11.1815 10.122 11.0229 10.1447 10.9776C10.3939 10.3885 10.6658 9.85603 10.9603 9.38024ZM17.2136 7.85089C17.6215 8.89311 17.8254 9.96932 17.8254 11.0795C17.8254 13.1186 17.2023 14.9199 15.9562 16.4832C15.8882 16.5512 15.8089 16.5852 15.7183 16.5852H2.5319C2.44128 16.5852 2.36198 16.5512 2.29401 16.4832C1.04787 14.9199 0.424805 13.1186 0.424805 11.0795C0.424805 8.70053 1.26311 6.6614 2.93973 4.96213C2.93973 4.96213 2.95106 4.9508 2.97372 4.92814C2.99637 4.90548 3.0077 4.89416 3.0077 4.89416C3.82335 4.10116 4.75229 3.48942 5.79451 3.05894C5.81717 3.03628 5.83416 3.01929 5.84549 3.00796C5.85682 2.99663 5.87381 2.99097 5.89647 2.99097C6.93869 2.58314 8.01489 2.37923 9.12509 2.37923C11.5041 2.37923 13.5432 3.21754 15.2425 4.89416C15.2425 4.89416 15.2538 4.90548 15.2765 4.92814C15.2991 4.9508 15.3104 4.96213 15.3104 4.96213C16.1034 5.77778 16.7152 6.70671 17.1457 7.74894C17.1683 7.77159 17.1853 7.78858 17.1966 7.79991C17.208 7.81124 17.2136 7.82823 17.2136 7.85089ZM15.5823 16.0074C15.9448 15.5316 16.2507 15.0332 16.4999 14.512L15.6843 14.1382C15.503 14.0702 15.4577 13.9456 15.5483 13.7644C15.6163 13.6058 15.7409 13.5605 15.9222 13.6284L16.7038 13.9683C17.021 13.13 17.2023 12.2577 17.2476 11.3514H15.2085C15.0272 11.3514 14.9366 11.2551 14.9366 11.0625C14.9366 10.8699 15.0272 10.7736 15.2085 10.7736H17.2476C17.2023 9.91268 17.0324 9.0857 16.7378 8.2927L15.9562 8.59857C15.9335 8.59857 15.9109 8.60424 15.8882 8.61556C15.8655 8.62689 15.8542 8.63256 15.8542 8.63256C15.7183 8.63256 15.6276 8.57592 15.5823 8.46263C15.5144 8.28137 15.571 8.15676 15.7523 8.08879L16.5339 7.78292C16.1714 6.94461 15.6843 6.19693 15.0725 5.53988L14.4608 6.15162C14.3928 6.19693 14.3249 6.21959 14.2569 6.21959C14.1889 6.21959 14.121 6.19693 14.053 6.15162C13.917 6.01568 13.917 5.87973 14.053 5.74379L14.6647 5.13205C14.0303 4.54297 13.328 4.06717 12.5576 3.70466L12.1838 4.52032C12.1611 4.6336 12.0818 4.69024 11.9459 4.69024C11.8779 4.69024 11.8326 4.67891 11.8099 4.65626C11.6513 4.58829 11.606 4.46367 11.674 4.28242L12.0139 3.50075C11.1755 3.18355 10.3146 3.0023 9.43095 2.95698V4.99611C9.43095 5.17737 9.329 5.268 9.12509 5.268C8.92117 5.268 8.81922 5.17737 8.81922 4.99611V2.95698C7.98091 3.0023 7.15393 3.17222 6.33828 3.46677L6.64415 4.24843C6.73477 4.42969 6.68946 4.5543 6.5082 4.62227C6.46289 4.62227 6.42891 4.62227 6.40625 4.62227C6.24765 4.62227 6.15702 4.56563 6.13436 4.45234L5.8285 3.67068C4.99019 4.03319 4.24251 4.52032 3.58545 5.13205L4.19719 5.74379C4.33313 5.87973 4.33313 6.01568 4.19719 6.15162C4.12922 6.19693 4.06125 6.21959 3.99328 6.21959C3.92531 6.21959 3.85734 6.19693 3.78937 6.15162L3.17763 5.53988C2.6112 6.17427 2.13541 6.87664 1.75024 7.64698L2.56589 7.98683C2.74715 8.0548 2.79246 8.19075 2.70183 8.39466C2.65652 8.50794 2.57722 8.56459 2.46393 8.56459C2.39596 8.56459 2.35065 8.55326 2.32799 8.5306L1.54633 8.19075C1.22913 9.02906 1.04787 9.89002 1.00256 10.7736H3.04169C3.22294 10.7736 3.31357 10.8699 3.31357 11.0625C3.31357 11.2551 3.22294 11.3514 3.04169 11.3514H1.00256C1.04787 12.235 1.2178 13.0733 1.51234 13.8663L2.29401 13.5265C2.47526 13.4585 2.59987 13.5151 2.66785 13.6964C2.73582 13.8776 2.67917 14.0023 2.49792 14.0702L1.71625 14.3761C1.96548 14.9652 2.29401 15.509 2.70183 16.0074H15.5823Z" fill="#FFB611" stroke="#FFB611" stroke-width="0.4"/>
</svg>
