<svg width="64" height="64" viewBox="0 0 64 64" fill="none" xmlns="http://www.w3.org/2000/svg">
<rect width="64" height="64" rx="32" fill="#FFB611"/>
<path d="M31.3598 21.1201H30.0798C25.2527 21.1201 22.8391 21.1201 21.3395 22.6197C19.8398 24.1193 19.8398 26.5329 19.8398 31.3601V33.9201C19.8398 38.7473 19.8398 41.161 21.3395 42.6605C22.8391 44.1601 25.2527 44.1601 30.0798 44.1601H32.6398C37.467 44.1601 39.8807 44.1601 41.3802 42.6605C42.8798 41.161 42.8798 38.7473 42.8798 33.9201V32.6401" stroke="black" stroke-width="1.92" stroke-linecap="round" stroke-linejoin="round"/>
<path d="M44.1602 24.3189C44.1602 26.7931 42.1544 28.7989 39.6802 28.7989C37.206 28.7989 35.2002 26.7931 35.2002 24.3189C35.2002 21.8446 37.206 19.8389 39.6802 19.8389C42.1544 19.8389 44.1602 21.8446 44.1602 24.3189Z" stroke="black" stroke-width="1.92" stroke-linecap="round" stroke-linejoin="round"/>
<path d="M26.2393 32.6387H31.3593" stroke="black" stroke-width="1.92" stroke-linecap="round" stroke-linejoin="round"/>
<path d="M26.2393 37.7598H36.4793" stroke="black" stroke-width="1.92" stroke-linecap="round" stroke-linejoin="round"/>
</svg>
