<svg width="30" height="30" viewBox="0 0 30 30" fill="none" xmlns="http://www.w3.org/2000/svg">
<path fill-rule="evenodd" clip-rule="evenodd" d="M20.8494 7.83295C21.3559 8.30207 21.3861 9.09296 20.917 9.59942L9.6592 21.7536C8.73735 22.7489 7.20016 22.7489 6.27831 21.7536L1.58295 16.6844C1.11383 16.1779 1.14411 15.387 1.65059 14.9179C2.15705 14.4487 2.94794 14.4791 3.41705 14.9855L7.96875 19.8996L19.083 7.90058C19.5521 7.39411 20.343 7.36383 20.8494 7.83295ZM27.1 7.83295C27.6064 8.30207 27.6368 9.09295 27.1676 9.59942L15.9097 21.7536C15.4406 22.26 14.6497 22.2904 14.1432 21.8212C13.6368 21.3521 13.6065 20.5612 14.0756 20.0547L25.3335 7.90058C25.8026 7.39411 26.5935 7.36383 27.1 7.83295Z" fill="#FFB611"/>
</svg>
