<svg width="16" height="16" viewBox="0 0 16 16" fill="none" xmlns="http://www.w3.org/2000/svg">
<path d="M8 1.33301C11.6817 1.33318 14.666 4.31821 14.666 8C14.6658 11.6816 11.6816 14.6658 8 14.666C4.31821 14.666 1.33318 11.6817 1.33301 8C1.33301 4.3181 4.3181 1.33301 8 1.33301ZM7.33301 6.58301C6.91879 6.58301 6.58301 6.91879 6.58301 7.33301C6.58301 7.71915 6.87487 8.0368 7.25 8.07812V10.666C7.25 11.0802 7.58579 11.416 8 11.416C8.41406 11.4158 8.75 11.0801 8.75 10.666V7.33301C8.75 6.94462 8.45445 6.62524 8.07617 6.58691L8 6.58301H7.33301ZM8 4.66602C7.63181 4.66602 7.33301 4.96482 7.33301 5.33301C7.33318 5.70105 7.63192 5.99902 8 5.99902C8.36793 5.99885 8.66584 5.70094 8.66602 5.33301C8.66602 4.96493 8.36804 4.66619 8 4.66602Z" fill="#6F767E"/>
</svg>
