<svg width="64" height="64" viewBox="0 0 64 64" fill="none" xmlns="http://www.w3.org/2000/svg">
<rect width="64" height="64" rx="32" fill="#FFB611"/>
<path d="M41.6547 30.0802L44.7992 30.7202C44.1554 24.2519 38.6845 19.2002 32.0308 19.2002C24.9442 19.2002 19.1992 24.9309 19.1992 32.0002C19.1992 39.0694 24.9442 44.8002 32.0308 44.8002C37.2927 44.8002 41.8148 41.6409 43.7948 37.1202" stroke="black" stroke-width="1.92" stroke-linecap="round" stroke-linejoin="round"/>
<path d="M29.871 30.5664C28.4887 30.5664 27.7975 31.5648 27.6439 32.1792C27.4903 32.7936 27.4903 35.0208 27.5824 35.9424C27.8896 37.0944 28.6576 37.5706 29.4103 37.7242C30.1014 37.7856 33.0198 37.7626 33.8646 37.7626C35.0934 37.7856 36.015 37.3248 36.399 35.9424C36.4758 35.4816 36.5526 32.9472 36.3606 32.1792C35.9536 30.9504 34.9398 30.5664 34.1718 30.5664H29.871Z" stroke="black" stroke-width="1.92" stroke-linecap="round"/>
<path d="M29.7598 30.0261C29.7598 29.9493 29.7703 29.5072 29.7721 28.951C29.7737 28.4427 29.729 27.9526 29.9717 27.5041C30.881 25.6947 33.4922 25.879 34.1374 27.7222C34.2491 28.0257 34.2559 28.5067 34.2526 28.951C34.2483 29.5186 34.2602 30.0261 34.2602 30.0261" stroke="black" stroke-width="1.92" stroke-linecap="round"/>
</svg>
