<svg width="13" height="13" viewBox="0 0 13 13" fill="none" xmlns="http://www.w3.org/2000/svg">
<g clip-path="url(#clip0_81_551)">
<path d="M11.1366 4.16H8.8399C8.69545 4.16 8.5799 4.21056 8.49323 4.31167C8.40656 4.41278 8.36323 4.52833 8.36323 4.65833C8.36323 4.78833 8.40656 4.89667 8.49323 4.98333C8.5799 5.07 8.69545 5.11333 8.8399 5.11333H11.1366C11.281 5.11333 11.3966 5.15667 11.4832 5.24333C11.5699 5.33 11.6132 5.44556 11.6132 5.59V11.6133C11.6132 11.7289 11.5699 11.8372 11.4832 11.9383C11.3966 12.0394 11.281 12.09 11.1366 12.09H1.86323C1.71878 12.09 1.60323 12.0394 1.51656 11.9383C1.4299 11.8372 1.38656 11.7289 1.38656 11.6133V5.59C1.38656 5.44556 1.4299 5.33 1.51656 5.24333C1.60323 5.15667 1.71878 5.11333 1.86323 5.11333H4.1599C4.30434 5.11333 4.4199 5.07 4.50656 4.98333C4.59323 4.89667 4.63656 4.78833 4.63656 4.65833C4.63656 4.52833 4.59323 4.41278 4.50656 4.31167C4.4199 4.21056 4.30434 4.16 4.1599 4.16H1.86323C1.48767 4.16 1.16267 4.29722 0.888229 4.57167C0.613785 4.84611 0.476562 5.18556 0.476562 5.59V11.6133C0.476562 11.9889 0.613785 12.3139 0.888229 12.5883C1.16267 12.8628 1.48767 13 1.86323 13H11.1366C11.5121 13 11.8371 12.8628 12.1116 12.5883C12.386 12.3139 12.5232 11.9889 12.5232 11.6133V5.59C12.5232 5.18556 12.386 4.84611 12.1116 4.57167C11.8371 4.29722 11.5121 4.16 11.1366 4.16ZM9.14323 2.47L6.84656 0.13C6.73101 0.0433331 6.61545 0 6.4999 0C6.38434 0 6.26878 0.0433331 6.15323 0.13L3.85656 2.47C3.7699 2.55667 3.72656 2.665 3.72656 2.795C3.72656 2.925 3.7699 3.03333 3.85656 3.12C3.94323 3.20667 4.05156 3.25 4.18156 3.25C4.31156 3.25 4.4199 3.20667 4.50656 3.12L6.02323 1.60333V9.27333C6.02323 9.41778 6.07378 9.53333 6.1749 9.62C6.27601 9.70667 6.38434 9.75 6.4999 9.75C6.61545 9.75 6.72378 9.70667 6.8249 9.62C6.92601 9.53333 6.97656 9.41778 6.97656 9.27333V1.60333L8.49323 3.12C8.5799 3.20667 8.68823 3.25 8.81823 3.25C8.94823 3.25 9.05656 3.19944 9.14323 3.09833C9.2299 2.99722 9.27323 2.88889 9.27323 2.77333C9.27323 2.65778 9.2299 2.55667 9.14323 2.47Z" fill="#050B20"/>
</g>
<defs>
<clipPath id="clip0_81_551">
<rect width="13" height="13" fill="white" transform="matrix(1 0 0 -1 0 13)"/>
</clipPath>
</defs>
</svg>
