<svg width="64" height="64" viewBox="0 0 64 64" fill="none" xmlns="http://www.w3.org/2000/svg">
<rect width="64" height="64" rx="32" fill="#FFB611"/>
<path d="M44.7992 25.2797H41.2294C40.46 25.2797 40.0752 25.2797 39.7125 25.1699C39.3497 25.06 39.0296 24.8466 38.3894 24.4198C37.4291 23.7796 36.3336 23.0493 35.7893 22.8845C35.2452 22.7197 34.668 22.7197 33.5138 22.7197C31.9443 22.7197 30.9326 22.7197 30.2269 23.012C29.5213 23.3043 28.9663 23.8593 27.8565 24.9691L26.8797 25.9459C26.6296 26.196 26.5045 26.3211 26.4273 26.4446C26.1411 26.9023 26.1728 27.4904 26.5066 27.9146C26.5966 28.0291 26.7344 28.14 27.01 28.3617C28.0286 29.1815 29.4971 29.0997 30.4194 28.1718L31.9992 26.5826H33.2792L40.9592 34.3083C41.6662 35.0195 41.6662 36.1724 40.9592 36.8835C40.2523 37.5947 39.1062 37.5947 38.3992 36.8835L37.7592 36.2397M37.7592 36.2397L33.9192 32.3769M37.7592 36.2397C38.4662 36.9509 38.4662 38.1039 37.7592 38.8149C37.0523 39.5261 35.9062 39.5261 35.1992 38.8149L33.9192 37.5274M33.9192 37.5274C34.6262 38.2384 34.6262 39.3914 33.9192 40.1026C33.2123 40.8136 32.0662 40.8136 31.3592 40.1026L29.4392 38.1711M33.9192 37.5274L31.3592 34.9674M29.4392 38.1711L28.7992 37.5274M29.4392 38.1711C30.1462 38.8822 30.1462 40.0353 29.4392 40.7464C28.7323 41.4575 27.5861 41.4575 26.8792 40.7464L23.265 37.0568C22.5223 36.2987 22.1509 35.9197 21.6752 35.7196C21.1994 35.5197 20.6688 35.5197 19.6075 35.5197H19.1992" stroke="black" stroke-width="1.92" stroke-linecap="round" stroke-linejoin="round"/>
<path d="M44.7996 35.5215H41.5996" stroke="black" stroke-width="1.92" stroke-linecap="round"/>
<path d="M27.5192 25.2803H19.1992" stroke="black" stroke-width="1.92" stroke-linecap="round"/>
</svg>
