<svg width="64" height="64" viewBox="0 0 64 64" fill="none" xmlns="http://www.w3.org/2000/svg">
<rect width="64" height="64" rx="32" fill="#FFB611"/>
<path d="M37.3455 40.2628C37.7303 40.4475 38.2075 40.9247 38.4384 41.3096C38.5153 41.8482 38.9002 39.7703 40.778 38.5389M44.1589 39.6805C44.1589 42.5082 41.8666 44.8005 39.0389 44.8005C36.2113 44.8005 33.9189 42.5082 33.9189 39.6805C33.9189 36.8528 36.2113 34.5605 39.0389 34.5605C41.8666 34.5605 44.1589 36.8528 44.1589 39.6805Z" stroke="black" stroke-width="1.92" stroke-linecap="round"/>
<path d="M30.7299 34.5614C32.1438 34.5614 33.2899 33.4153 33.2899 32.0014C33.2899 30.5876 32.1438 29.4414 30.7299 29.4414C29.3161 29.4414 28.1699 30.5876 28.1699 32.0014C28.1699 33.4153 29.3161 34.5614 30.7299 34.5614Z" stroke="black" stroke-width="1.92"/>
<path d="M26.2496 39.6827C27.4656 38.5307 28.4896 37.8907 30.7617 37.7627M41.6097 31.3627C41.6097 30.3387 41.6417 27.2027 41.4817 25.9227C41.3857 24.8667 41.0977 23.4267 39.7857 22.5947C38.9857 22.1787 38.2177 21.7947 34.5377 21.7627M26.8256 21.7627C24.0736 21.7627 21.9296 21.9867 20.8737 23.2987C19.9777 24.5232 20.031 25.9227 19.9456 26.3707C19.7536 28.7707 19.8816 37.1547 19.8816 38.5627C19.8816 40.0347 19.7856 43.0267 21.8016 44.0347C23.5296 44.8987 25.3216 44.7707 31.4017 44.8027" stroke="black" stroke-width="1.92" stroke-linecap="round"/>
<path d="M30.5368 19.2001C29.7688 19.2001 29.1287 19.2001 28.4887 19.8721C27.9447 20.3841 28.0291 20.8363 27.8167 21.6321C27.5178 22.7521 27.3684 23.3428 27.7847 23.8081C28.1664 24.3077 28.8079 24.3093 29.3743 24.3108L29.3847 24.3108C29.9288 24.3493 31.7573 24.3317 32.2968 24.3108C32.8764 24.2883 33.3429 24.2561 33.7368 23.7441C34.0888 23.2865 33.88 22.525 33.6728 21.7281C33.4683 20.9419 33.5448 20.5441 33.0008 19.8721C32.2328 19.1041 31.3048 19.2001 30.5368 19.2001Z" stroke="black" stroke-width="1.92" stroke-linecap="round"/>
</svg>
